{
.appVersion = "1357";
classes = (
{
automatic = 1;
code = "";
name = xxxx;
}
);
copyright = "Copyright © 2017 by Lokal Container. All rights reserved.";
customParameters = (
{
name = "Use Typo Metrics";
value = 1;
},
{
name = fsType;
value = (
8
);
},
{
name = "Disable Last Change";
value = 1;
},
{
name = "Family Alignment Zones";
value = (
"{790, 10}",
"{729, 10}",
"{557, 10}",
"{0, -10}",
"{-167, -10}"
);
},
{
name = "Variable Font Origin";
value = "47995495-C855-4C5A-BA32-118EA0334940";
},
{
name = vendorID;
value = LC;
},
{
name = license;
value = "This Font Software is licensed under the SIL Open Font License, Version 1.1. This license is available with a FAQ at: http://scripts.sil.org/OFL";
},
{
name = licenseURL;
value = "https://scripts.sil.org/OFL";
},
{
name = sampleText;
value = "Texte in Point & Millimeter";
},
{
name = Axes;
value = (
{
Name = Weight;
Tag = wght;
}
);
},
{
name = "Variable Font Family Name";
value = "BDO Grotesk VF";
},
{
name = "Variable Font Family Name";
value = "BDO Grotesk Variable";
},
{
name = "Enforce Compatibility Check";
value = 1;
}
);
date = "2017-05-31 3:56:58 AM +0000";
designer = "Deni Anggara";
designerURL = "https://degarism.com";
familyName = "BDO Grotesk";
featurePrefixes = (
{
automatic = 1;
code = "languagesystem DFLT dflt;\012\012languagesystem latn dflt;\012languagesystem latn AZE;\012languagesystem latn CRT;\012languagesystem latn KAZ;\012languagesystem latn TAT;\012languagesystem latn TRK;\012languagesystem latn ROM;\012languagesystem latn MOL;\012languagesystem latn CAT;\012languagesystem latn NLD;\012";
name = Languagesystems;
}
);
features = (
{
automatic = 1;
code = "feature locl;\012feature subs;\012feature sinf;\012feature sups;\012feature numr;\012feature dnom;\012feature frac;\012feature ordn;\012feature pnum;\012feature tnum;\012feature case;\012feature fwid;\012feature salt;\012feature ss01;\012feature ss02;\012feature ss03;\012feature ss04;\012feature ss05;\012feature ss06;\012feature ss07;\012";

glyphs = (
{
color = 3;
glyphname = A;
layers = (
{
anchors = (
{
name = bottom;
position = "{358, 0}";
},
{
name = ogonek;
position = "{700, 0}";
},
{
name = top;
position = "{358, 699}";
}
);
layerId = "F114AD5B-DC62-4E73-AD12-1938E40AC8EF";
paths = (
{
closed = 1;
nodes = (
"82 0 LINE",
"168 209 LINE",
"545 209 LINE",
"632 0 LINE",
"700 0 LINE",
"397 729 LINE",
"317 729 LINE",
"14 0 LINE"
);
},
{
closed = 1;
nodes = (
"270 457 LINE SMOOTH",
"326 593 OFFCURVE",
"330 604 OFFCURVE",
"355 668 CURVE",
"357 668 LINE",
"395 572 OFFCURVE",
"421 509 OFFCURVE",
"443 456 CURVE SMOOTH",
"521 265 LINE",
"191 265 LINE"
);
}
);
width = 713;
},
{
anchors = (
{
name = bottom;
position = "{417, 0}";
},
{
name = ogonek;
position = "{796, 0}";
},
{
name = top;
position = "{417, 729}";
}
);
layerId = "E787E54A-EE3E-475A-BF02-8501A6DA5144";
paths = (
{
closed = 1;
nodes = (
"229 0 LINE",
"267 107 LINE",
"554 107 LINE",
"591 0 LINE",
"796 0 LINE",
"522 729 LINE",
"304 729 LINE",
"31 0 LINE"
);
},
{
closed = 1;
nodes = (
"348 326 LINE SMOOTH",
"380 416 OFFCURVE",
"404 492 OFFCURVE",
"410 515 CURVE",
"414 515 LINE",
"423 475 OFFCURVE",
"452 392 OFFCURVE",
"475 325 CURVE SMOOTH",
"496 264 LINE",
"326 264 LINE"
);
}
);
width = 827;
},
{
anchors = (
{
name = bottom;
position = "{366, 0}";
},
{
name = ogonek;
position = "{720, 0}";
},
{
name = top;
position = "{366, 708}";
}
);
layerId = "47995495-C855-4C5A-BA32-118EA0334940";
paths = (
{
closed = 1;
nodes = (
"118 0 LINE",
"189 176 LINE",
"537 176 LINE",
"609 0 LINE",
"720 0 LINE",
"426 729 LINE",
"303 729 LINE",
"9 0 LINE"
);
},
{
closed = 1;
nodes = (
"284 415 LINE SMOOTH",
"314 490 OFFCURVE",
"341 562 OFFCURVE",
"363 619 CURVE",
"365 619 LINE",
"389 552 OFFCURVE",
"434 437 OFFCURVE",
"443 414 CURVE SMOOTH",
"503 265 LINE",
"224 265 LINE"
);
}
);
width = 729;
}
);
leftKerningGroup = A;
rightKerningGroup = A;
unicode = 0041;
},
{
glyphname = Aringacute;
layers = (
{
components = (
{
name = A;
}
);
layerId = "F114AD5B-DC62-4E73-AD12-1938E40AC8EF";
paths = (
{
closed = 1;
nodes = (
"474 1004 LINE",
"405 1004 LINE",
"346 919 LINE",
"396 919 LINE",
"474 1002 LINE"
);
},
{
closed = 1;
nodes = (
"463 838 OFFCURVE",
"421 876 OFFCURVE",
"362 876 CURVE SMOOTH",
"303 876 OFFCURVE",
"261 838 OFFCURVE",
"261 785 CURVE SMOOTH",
"261 731 OFFCURVE",
"303 692 OFFCURVE",
"362 692 CURVE SMOOTH",
"421 692 OFFCURVE",
"463 731 OFFCURVE",
"463 785 CURVE SMOOTH"
);
},
{
closed = 1;
nodes = (
"418 753 OFFCURVE",
"396 731 OFFCURVE",
"363 731 CURVE SMOOTH",
"329 731 OFFCURVE",
"306 753 OFFCURVE",
"306 785 CURVE SMOOTH",
"306 815 OFFCURVE",
"329 838 OFFCURVE",
"363 838 CURVE SMOOTH",
"396 838 OFFCURVE",
"418 815 OFFCURVE",
"418 785 CURVE SMOOTH"
);
}
);
width = 713;
},
{
components = (
{
name = A;
}
);
hints = (
{
horizontal = 1;
origin = "{2, 2}";
target = "{1, 8}";
type = Stem;
},
{
horizontal = 1;
origin = "{2, 8}";
target = "{1, 2}";
type = Stem;
},
{
horizontal = 1;
origin = "{0, 2}";
target = "{0, 1}";
type = Stem;
},
{
origin = "{1, 5}";
target = "{2, 5}";
type = Stem;
},
{
origin = "{2, 11}";
target = "{1, 11}";
type = Stem;
}
);
layerId = "E787E54A-EE3E-475A-BF02-8501A6DA5144";
paths = (
{
closed = 1;
nodes = (
"556 1031 LINE",
"397 1031 LINE",
"338 931 LINE",
"452 931 LINE",
"556 1027 LINE"
);
},
{
closed = 1;
nodes = (
"523 845 OFFCURVE",
"469 895 OFFCURVE",
"388 895 CURVE SMOOTH",
"307 895 OFFCURVE",
"252 845 OFFCURVE",
"252 770 CURVE SMOOTH",
"252 695 OFFCURVE",
"307 645 OFFCURVE",
"388 645 CURVE SMOOTH",
"469 645 OFFCURVE",
"523 695 OFFCURVE",
"523 770 CURVE SMOOTH"
);
},
{
closed = 1;
nodes = (
"429 746 OFFCURVE",
"412 730 OFFCURVE",
"388 730 CURVE SMOOTH",
"364 730 OFFCURVE",
"347 746 OFFCURVE",
"347 770 CURVE SMOOTH",
"347 794 OFFCURVE",
"364 811 OFFCURVE",
"388 811 CURVE SMOOTH",
"412 811 OFFCURVE",
"429 794 OFFCURVE",
"429 770 CURVE SMOOTH"
);
}
);
width = 827;
},
{
components = (
{
alignment = -1;
name = A;
}
);
layerId = "47995495-C855-4C5A-BA32-118EA0334940";
paths = (
{
closed = 1;
nodes = (
"495 1012 LINE",
"398 1012 LINE",
"339 923 LINE",
"409 923 LINE",
"495 1010 LINE"
);
},
{
closed = 1;
nodes = (
"477 840 OFFCURVE",
"432 882 OFFCURVE",
"366 882 CURVE SMOOTH",
"300 882 OFFCURVE",
"254 840 OFFCURVE",
"254 780 CURVE SMOOTH",
"254 721 OFFCURVE",
"300 677 OFFCURVE",
"366 677 CURVE SMOOTH",
"431 677 OFFCURVE",
"477 720 OFFCURVE",
"477 780 CURVE SMOOTH"
);
},
{
closed = 1;
nodes = (
"417 751 OFFCURVE",
"397 731 OFFCURVE",
"367 731 CURVE SMOOTH",
"335 731 OFFCURVE",
"314 751 OFFCURVE",
"314 780 CURVE SMOOTH",
"314 808 OFFCURVE",
"335 830 OFFCURVE",
"367 830 CURVE SMOOTH",
"397 830 OFFCURVE",
"417 808 OFFCURVE",
"417 780 CURVE SMOOTH"
);
}
);
width = 729;
}
);
leftKerningGroup = A;
leftMetricsKey = "=A";
rightKerningGroup = A;
rightMetricsKey = "=A";
unicode = 01FA;
},
{
glyphname = AE;
layers = (
{
anchors = (
{
name = bottom;
position = "{1088, 0}";
},
{
name = ogonek;
position = "{1108, 10}";
},
{
name = top;
position = "{591, 729}";
},
{
name = topleft;
position = "{544, 729}";
}
);
layerId = "F114AD5B-DC62-4E73-AD12-1938E40AC8EF";
paths = (
{
closed = 1;
nodes = (
"486 336 LINE",
"857 336 LINE",
"857 395 LINE",
"486 395 LINE",
"486 666 LINE",
"919 666 LINE",
"919 729 LINE",
"283 729 LINE",
"14 0 LINE",
"83 0 LINE",
"159 215 LINE",
"421 215 LINE",
"421 0 LINE",
"929 0 LINE",
"929 63 LINE",
"486 63 LINE"
);
},
{
closed = 1;
nodes = (
"319 666 LINE",
"421 666 LINE",
"421 272 LINE",
"179 272 LINE"
);
}
);
width = 957;
},
{
anchors = (
{
name = bottom;
position = "{1122, 0}";
},
{
name = ogonek;
position = "{1172, 10}";
},
{
name = top;
position = "{628, 729}";
},
{
name = topleft;
position = "{649, 729}";
}
);
layerId = "E787E54A-EE3E-475A-BF02-8501A6DA5144";
paths = (
{
closed = 1;
nodes = (
"702 282 LINE",
"976 282 LINE",
"976 442 LINE",
"702 442 LINE",
"702 557 LINE",
"1031 557 LINE",
"1031 729 LINE",
"266 729 LINE",
"31 0 LINE",
"240 0 LINE",
"283 144 LINE",
"499 144 LINE",
"499 0 LINE",
"1041 0 LINE",
"1041 172 LINE",
"702 172 LINE"
);
},
{
closed = 1;
nodes = (
"407 557 LINE",
"499 557 LINE",
"499 298 LINE",
"330 298 LINE"
);
}
);
width = 1086;
},
{
anchors = (
{
name = bottom;
position = "{1088, 0}";
},
{
name = ogonek;
position = "{1118, 10}";
},
{
name = top;
position = "{593, 729}";
},
{
name = topleft;
position = "{567, 729}";
}
);
layerId = "47995495-C855-4C5A-BA32-118EA0334940";
paths = (
{
closed = 1;
nodes = (
"543 319 LINE",
"884 319 LINE",
"884 410 LINE",
"543 410 LINE",
"543 633 LINE",
"943 633 LINE",
"943 729 LINE",
"267 729 LINE",
"9 0 LINE",
"122 0 LINE",
"187 193 LINE",
"435 193 LINE",
"435 0 LINE",
"953 0 LINE",
"953 96 LINE",
"543 96 LINE"
);
},
{
closed = 1;
nodes = (
"336 633 LINE",
"435 633 LINE",
"435 280 LINE",
"216 280 LINE"
);
}
);
width = 1012;
}
);
leftKerningGroup = A;
leftMetricsKey = "=A";
rightKerningGroup = E;
rightMetricsKey = "=E";
unicode = 00C6;
},
{
color = 3;
glyphname = B;
layers = (
{
anchors = (
{
name = bottom;
position = "{351, 0}";
},
{
name = top;
position = "{351, 699}";
}
);
layerId = "F114AD5B-DC62-4E73-AD12-1938E40AC8EF";
paths = (
{
closed = 1;
nodes = (
"406 0 LINE SMOOTH",
"556 0 OFFCURVE",
"650 77 OFFCURVE",
"650 198 CURVE SMOOTH",
"650 280 OFFCURVE",
"606 349 OFFCURVE",
"504 374 CURVE",
"504 376 LINE",
"590 402 OFFCURVE",
"631 467 OFFCURVE",
"631 544 CURVE SMOOTH",
"631 652 OFFCURVE",
"551 729 OFFCURVE",
"408 729 CURVE SMOOTH",
"86 729 LINE",
"86 0 LINE"
);
},
{
closed = 1;
nodes = (
"151 342 LINE",
"411 342 LINE SMOOTH",
"517 342 OFFCURVE",
"581 294 OFFCURVE",
"581 203 CURVE SMOOTH",
"581 125 OFFCURVE",
"535 63 OFFCURVE",
"411 63 CURVE SMOOTH",
"151 63 LINE"
);
},
{
closed = 1;
nodes = (
"151 667 LINE",
"408 667 LINE SMOOTH",
"501 667 OFFCURVE",
"564 618 OFFCURVE",
"564 534 CURVE SMOOTH",
"564 456 OFFCURVE",
"510 403 OFFCURVE",
"408 403 CURVE SMOOTH",
"151 403 LINE"
);
}
);
width = 694;
},
{
anchors = (
{
name = bottom;
position = "{380, 0}";
},
{
name = top;
position = "{380, 729}";
}
);
layerId = "E787E54A-EE3E-475A-BF02-8501A6DA5144";
paths = (
{
closed = 1;
nodes = (
"451 0 LINE SMOOTH",
"609 0 OFFCURVE",
"715 81 OFFCURVE",
"715 209 CURVE SMOOTH",
"715 304 OFFCURVE",
"657 365 OFFCURVE",
"580 378 CURVE",
"580 381 LINE",
"661 407 OFFCURVE",
"694 468 OFFCURVE",
"694 539 CURVE SMOOTH",
"694 651 OFFCURVE",
"611 729 OFFCURVE",
"460 729 CURVE SMOOTH",
"78 729 LINE",
"78 0 LINE"
);
},
{
closed = 1;
nodes = (
"271 301 LINE",
"415 301 LINE SMOOTH",
"489 301 OFFCURVE",
"512 272 OFFCURVE",
"512 229 CURVE SMOOTH",
"512 174 OFFCURVE",
"473 156 OFFCURVE",
"415 156 CURVE SMOOTH",
"271 156 LINE"
);
},
{
closed = 1;
nodes = (
"271 573 LINE",
"410 573 LINE SMOOTH",
"461 573 OFFCURVE",
"495 558 OFFCURVE",
"495 509 CURVE SMOOTH",
"495 470 OFFCURVE",
"475 444 OFFCURVE",
"410 444 CURVE SMOOTH",
"271 444 LINE"
);
}
);
width = 759;
},
{
anchors = (
{
name = bottom;
position = "{376, 0}";
},
{
name = top;
position = "{376, 708}";
}
);
layerId = "47995495-C855-4C5A-BA32-118EA0334940";
paths = (
{
closed = 1;
nodes = (
"436 0 LINE SMOOTH",
"588 0 OFFCURVE",
"687 78 OFFCURVE",
"687 202 CURVE SMOOTH",
"687 281 OFFCURVE",
"642 348 OFFCURVE",
"553 375 CURVE",
"553 378 LINE",
"630 409 OFFCURVE",
"667 470 OFFCURVE",
"667 543 CURVE SMOOTH",
"667 652 OFFCURVE",
"585 729 OFFCURVE",
"441 729 CURVE SMOOTH",
"100 729 LINE",
"100 0 LINE"
);
},
{
closed = 1;
nodes = (
"204 329 LINE",
"428 329 LINE SMOOTH",
"525 329 OFFCURVE",
"575 287 OFFCURVE",
"575 211 CURVE SMOOTH",
"575 140 OFFCURVE",
"532 92 OFFCURVE",
"428 92 CURVE SMOOTH",
"204 92 LINE"
);
},
{
closed = 1;
nodes = (
"204 638 LINE",
"425 638 LINE SMOOTH",
"505 638 OFFCURVE",
"558 599 OFFCURVE",
"558 526 CURVE SMOOTH",
"558 460 OFFCURVE",
"515 416 OFFCURVE",
"425 416 CURVE SMOOTH",
"204 416 LINE"
);
}
);
width = 738;
}
);
leftKerningGroup = L;
leftMetricsKey = "=H";
rightKerningGroup = B;
unicode = 0042;
},
{
color = 3;
glyphname = C;
layers = (
{
anchors = (
{
name = bottom;
position = "{359, 0}";
},
{
name = ogonek;
position = "{372, 0}";
},
{
name = top;
position = "{359, 699}";
}
);
layerId = "F114AD5B-DC62-4E73-AD12-1938E40AC8EF";
paths = (
{
closed = 1;
nodes = (
"611 239 LINE",
"590 126 OFFCURVE",
"508 51 OFFCURVE",
"372 51 CURVE SMOOTH",
"213 51 OFFCURVE",
"110 176 OFFCURVE",
"110 365 CURVE SMOOTH",
"110 553 OFFCURVE",
"213 677 OFFCURVE",
"372 677 CURVE SMOOTH",
"497 677 OFFCURVE",
"587 605 OFFCURVE",
"611 492 CURVE",
"676 500 LINE",
"650 646 OFFCURVE",
"531 738 OFFCURVE",
"372 738 CURVE SMOOTH",
"174 738 OFFCURVE",
"41 586 OFFCURVE",
"41 365 CURVE SMOOTH",
"41 141 OFFCURVE",
"175 -10 OFFCURVE",
"372 -10 CURVE SMOOTH",
"533 -10 OFFCURVE",
"654 84 OFFCURVE",
"676 231 CURVE"
);
}
);
width = 717;
},
{
anchors = (
{
name = bottom;
position = "{388, 0}";
},
{
name = ogonek;
position = "{400, 0}";
},
{
name = top;
position = "{388, 729}";
}
);
layerId = "E787E54A-EE3E-475A-BF02-8501A6DA5144";
paths = (
{
closed = 1;
nodes = (
"535 285 LINE",
"534 205 OFFCURVE",
"474 156 OFFCURVE",
"397 156 CURVE SMOOTH",
"309 156 OFFCURVE",
"250 226 OFFCURVE",
"250 361 CURVE SMOOTH",
"250 499 OFFCURVE",
"305 572 OFFCURVE",
"402 572 CURVE SMOOTH",
"477 572 OFFCURVE",
"532 524 OFFCURVE",
"536 442 CURVE",
"730 470 LINE",
"721 630 OFFCURVE",
"588 738 OFFCURVE",
"403 738 CURVE SMOOTH",
"188 738 OFFCURVE",
"46 589 OFFCURVE",
"46 362 CURVE SMOOTH",
"46 139 OFFCURVE",
"183 -10 OFFCURVE",
"400 -10 CURVE SMOOTH",
"583 -10 OFFCURVE",
"725 98 OFFCURVE",
"730 264 CURVE"
);
}
);
width = 776;
},
{
anchors = (
{
name = bottom;
position = "{371, 0}";
},
{
name = ogonek;
position = "{383, 0}";
},
{
name = top;
position = "{371, 708}";
}
);
layerId = "47995495-C855-4C5A-BA32-118EA0334940";
paths = (
{
closed = 1;
nodes = (
"590 254 LINE",
"575 150 OFFCURVE",
"500 84 OFFCURVE",
"383 84 CURVE SMOOTH",
"245 84 OFFCURVE",
"155 192 OFFCURVE",
"155 364 CURVE SMOOTH",
"155 536 OFFCURVE",
"244 645 OFFCURVE",
"384 645 CURVE SMOOTH",
"493 645 OFFCURVE",
"572 580 OFFCURVE",
"590 476 CURVE",
"695 491 LINE",
"674 641 OFFCURVE",
"551 738 OFFCURVE",
"384 738 CURVE SMOOTH",
"181 738 OFFCURVE",
"45 587 OFFCURVE",
"45 364 CURVE SMOOTH",
"45 141 OFFCURVE",
"180 -10 OFFCURVE",
"383 -10 CURVE SMOOTH",
"550 -10 OFFCURVE",
"678 88 OFFCURVE",
"695 242 CURVE"
);
}
);
width = 740;
}
);
leftKerningGroup = C;
leftMetricsKey = "=O";
rightKerningGroup = C;
rightMetricsKey = "=O";
unicode = 0043;
},
{
color = 3;
glyphname = D;
layers = (
{
anchors = (
{
name = bottom;
position = "{382, 0}";
},
{
name = center;
position = "{151, 365}";
},
{
name = top;
position = "{375, 699}";
}
);
layerId = "F114AD5B-DC62-4E73-AD12-1938E40AC8EF";
paths = (
{
closed = 1;
nodes = (
"375 0 LINE SMOOTH",
"581 0 OFFCURVE",
"700 147 OFFCURVE",
"700 364 CURVE SMOOTH",
"700 581 OFFCURVE",
"582 729 OFFCURVE",
"375 729 CURVE SMOOTH",
"86 729 LINE",
"86 0 LINE"
);
},
{
closed = 1;
nodes = (
"151 666 LINE",
"377 666 LINE SMOOTH",
"530 666 OFFCURVE",
"631 554 OFFCURVE",
"631 364 CURVE SMOOTH",
"631 189 OFFCURVE",
"541 63 OFFCURVE",
"377 63 CURVE SMOOTH",
"151 63 LINE"
);
}
);
width = 741;
},
{
anchors = (
{
name = bottom;
position = "{412, 0}";
},
{
name = center;
position = "{197, 365}";
},
{
name = top;
position = "{397, 729}";
}
);
background = {
anchors = (
{
name = bottom;
position = "{412, 0}";
},
{
name = center;
position = "{412, 365}";
},
{
name = top;
position = "{427, 729}";
}
);
paths = (
{
closed = 1;
nodes = (
"397 0 LINE SMOOTH",
"620 0 OFFCURVE",
"745 146 OFFCURVE",
"745 364 CURVE SMOOTH",
"745 598 OFFCURVE",
"606 729 OFFCURVE",
"397 729 CURVE SMOOTH",
"78 729 LINE",
"78 0 LINE"
);
},
{
closed = 1;
nodes = (
"271 567 LINE",
"382 567 LINE SMOOTH",
"498 567 OFFCURVE",
"543 487 OFFCURVE",
"543 368 CURVE SMOOTH",
"543 220 OFFCURVE",
"479 162 OFFCURVE",
"382 162 CURVE SMOOTH",
"271 162 LINE"
);
}
);
};
layerId = "E787E54A-EE3E-475A-BF02-8501A6DA5144";
paths = (
{
closed = 1;
nodes = (
"397 0 LINE SMOOTH",
"620 0 OFFCURVE",
"745 146 OFFCURVE",
"745 364 CURVE SMOOTH",
"745 598 OFFCURVE",
"606 729 OFFCURVE",
"397 729 CURVE SMOOTH",
"78 729 LINE",
"78 0 LINE"
);
},
{
closed = 1;
nodes = (
"271 567 LINE",
"382 567 LINE SMOOTH",
"498 567 OFFCURVE",
"543 487 OFFCURVE",
"543 368 CURVE SMOOTH",
"543 220 OFFCURVE",
"479 162 OFFCURVE",
"382 162 CURVE SMOOTH",
"271 162 LINE"
);
}
);
width = 791;
},
{
anchors = (
{
name = bottom;
position = "{407, 0}";
},
{
name = center;
position = "{197, 365}";
},
{
name = top;
position = "{398, 708}";
}
);
layerId = "47995495-C855-4C5A-BA32-118EA0334940";
paths = (
{
closed = 1;
nodes = (
"398 0 LINE SMOOTH",
"609 0 OFFCURVE",
"730 147 OFFCURVE",
"730 364 CURVE SMOOTH",
"730 586 OFFCURVE",
"605 729 OFFCURVE",
"398 729 CURVE SMOOTH",
"100 729 LINE",
"100 0 LINE"
);
},
{
closed = 1;
nodes = (
"204 635 LINE",
"395 635 LINE SMOOTH",
"536 635 OFFCURVE",
"620 533 OFFCURVE",
"620 365 CURVE SMOOTH",
"620 199 OFFCURVE",
"538 94 OFFCURVE",
"395 94 CURVE SMOOTH",
"204 94 LINE"
);
}
);
width = 775;
}
);
leftKerningGroup = B;
leftMetricsKey = "=H";
rightKerningGroup = O;
rightMetricsKey = "=O";
unicode = 0044;
},
{
color = 3;
glyphname = E;
layers = (
{
anchors = (
{
name = bottom;
position = "{359, 0}";
},
{
name = ogonek;
position = "{575, 0}";
},
{
name = top;
position = "{344, 699}";
},
{
name = topleft;
position = "{24, 729}";
}
);
layerId = "F114AD5B-DC62-4E73-AD12-1938E40AC8EF";
paths = (
{
closed = 1;
nodes = (
"632 0 LINE",
"632 60 LINE",
"151 60 LINE",
"151 346 LINE",
"562 346 LINE",
"562 404 LINE",
"151 404 LINE",
"151 669 LINE",
"602 669 LINE",
"602 729 LINE",
"86 729 LINE",
"86 0 LINE"
);
}
);
width = 660;
},
{
anchors = (
{
name = bottom;
position = "{359, 0}";
},
{
name = ogonek;
position = "{608, 0}";
},
{
name = top;
position = "{344, 729}";
},
{
name = topleft;
position = "{18, 729}";
}
);
layerId = "E787E54A-EE3E-475A-BF02-8501A6DA5144";
paths = (
{
closed = 1;
nodes = (
"640 0 LINE",
"640 162 LINE",
"271 162 LINE",
"271 291 LINE",
"564 291 LINE",
"564 448 LINE",
"271 448 LINE",
"271 569 LINE",
"610 569 LINE",
"610 729 LINE",
"78 729 LINE",
"78 0 LINE"
);
}
);
width = 685;
},
{
anchors = (
{
name = bottom;
position = "{377, 0}";
},
{
name = ogonek;
position = "{612, 0}";
},
{
name = top;
position = "{362, 708}";
},
{
name = topleft;
position = "{39, 729}";
}
);
layerId = "47995495-C855-4C5A-BA32-118EA0334940";
paths = (
{
closed = 1;
nodes = (
"651 0 LINE",
"651 92 LINE",
"205 92 LINE",
"205 329 LINE",
"580 329 LINE",
"580 417 LINE",
"205 417 LINE",
"205 638 LINE",
"621 638 LINE",
"621 729 LINE",
"101 729 LINE",
"101 0 LINE"
);
}
);
width = 710;
}
);
leftKerningGroup = L;
rightKerningGroup = E;
unicode = 0045;
},
{
color = 3;
glyphname = F;
layers = (
{
anchors = (
{
name = bottom;
position = "{312, 0}";
},
{
name = top;
position = "{312, 699}";
}
);
layerId = "F114AD5B-DC62-4E73-AD12-1938E40AC8EF";
paths = (
{
closed = 1;
nodes = (
"151 0 LINE",
"151 338 LINE",
"548 338 LINE",
"548 396 LINE",
"151 396 LINE",
"151 669 LINE",
"590 669 LINE",
"590 729 LINE",
"86 729 LINE",
"86 0 LINE"
);
}
);
width = 604;
},
{
anchors = (
{
name = bottom;
position = "{306, 0}";
},
{
name = top;
position = "{306, 729}";
}
);
layerId = "E787E54A-EE3E-475A-BF02-8501A6DA5144";
paths = (
{
closed = 1;
nodes = (
"271 0 LINE",
"271 276 LINE",
"552 276 LINE",
"552 439 LINE",
"271 439 LINE",
"271 567 LINE",
"609 567 LINE",
"609 729 LINE",
"78 729 LINE",
"78 0 LINE"
);
}
);
width = 648;
},
{
anchors = (
{
name = bottom;
position = "{326, 0}";
},
{
name = top;
position = "{326, 708}";
}
);
layerId = "47995495-C855-4C5A-BA32-118EA0334940";
paths = (
{
closed = 1;
nodes = (
"204 0 LINE",
"204 319 LINE",
"565 319 LINE",
"565 409 LINE",
"204 409 LINE",
"204 637 LINE",
"612 637 LINE",
"612 729 LINE",
"100 729 LINE",
"100 0 LINE"
);
}
);
width = 646;
}
);
leftKerningGroup = B;
leftMetricsKey = "=H";
rightKerningGroup = F;
unicode = 0046;
},
{
color = 3;
glyphname = G;
layers = (
{
anchors = (
{
name = bottom;
position = "{372, 0}";
},
{
name = top;
position = "{372, 699}";
}
);
layerId = "F114AD5B-DC62-4E73-AD12-1938E40AC8EF";
paths = (
{
closed = 1;
nodes = (
"41 136 OFFCURVE",
"165 -10 OFFCURVE",
"360 -10 CURVE SMOOTH",
"475 -10 OFFCURVE",
"577 45 OFFCURVE",
"623 158 CURVE",
"635 0 LINE",
"689 0 LINE",
"689 370 LINE",
"397 370 LINE",
"397 312 LINE",
"620 312 LINE",
"620 161 OFFCURVE",
"516 53 OFFCURVE",
"362 53 CURVE SMOOTH",
"209 53 OFFCURVE",
"110 170 OFFCURVE",
"110 361 CURVE SMOOTH",
"110 547 OFFCURVE",
"205 674 OFFCURVE",
"376 674 CURVE SMOOTH",
"501 674 OFFCURVE",
"591 606 OFFCURVE",
"615 492 CURVE",
"681 500 LINE",
"654 646 OFFCURVE",
"535 738 OFFCURVE",
"378 738 CURVE SMOOTH",
"173 738 OFFCURVE",
"41 585 OFFCURVE",
"41 357 CURVE SMOOTH"
);
}
);
width = 760;
},
{
anchors = (
{
name = bottom;
position = "{426, 0}";
},
{
name = top;
position = "{426, 729}";
}
);
layerId = "E787E54A-EE3E-475A-BF02-8501A6DA5144";
paths = (
{
closed = 1;
nodes = (
"46 130 OFFCURVE",
"189 -10 OFFCURVE",
"386 -10 CURVE SMOOTH",
"488 -10 OFFCURVE",
"564 26 OFFCURVE",
"603 93 CURVE",
"615 0 LINE",
"770 0 LINE",
"770 403 LINE",
"417 403 LINE",
"417 257 LINE",
"559 257 LINE",
"547 188 OFFCURVE",
"492 150 OFFCURVE",
"411 150 CURVE SMOOTH",
"317 150 OFFCURVE",
"250 230 OFFCURVE",
"250 360 CURVE SMOOTH",
"250 491 OFFCURVE",
"314 572 OFFCURVE",
"419 572 CURVE SMOOTH",
"503 572 OFFCURVE",
"559 528 OFFCURVE",
"568 452 CURVE",
"761 480 LINE",
"750 635 OFFCURVE",
"614 738 OFFCURVE",
"427 738 CURVE SMOOTH",
"197 738 OFFCURVE",
"46 591 OFFCURVE",
"46 360 CURVE SMOOTH"
);
}
);
width = 832;
},
{
anchors = (
{
name = bottom;
position = "{391, 0}";
},
{
name = top;
position = "{391, 708}";
}
);
layerId = "47995495-C855-4C5A-BA32-118EA0334940";
paths = (
{
closed = 1;
nodes = (
"45 135 OFFCURVE",
"174 -10 OFFCURVE",
"371 -10 CURVE SMOOTH",
"482 -10 OFFCURVE",
"576 40 OFFCURVE",
"619 138 CURVE",
"631 0 LINE",
"717 0 LINE",
"717 381 LINE",
"405 381 LINE",
"405 295 LINE",
"604 295 LINE",
"600 169 OFFCURVE",
"510 83 OFFCURVE",
"379 83 CURVE SMOOTH",
"245 83 OFFCURVE",
"155 189 OFFCURVE",
"155 361 CURVE SMOOTH",
"155 529 OFFCURVE",
"241 642 OFFCURVE",
"392 642 CURVE SMOOTH",
"504 642 OFFCURVE",
"583 582 OFFCURVE",
"603 480 CURVE",
"708 494 LINE",
"686 642 OFFCURVE",
"562 738 OFFCURVE",
"395 738 CURVE SMOOTH",
"183 738 OFFCURVE",
"45 587 OFFCURVE",
"45 358 CURVE SMOOTH"
);
}
);
width = 769;
}
);
leftKerningGroup = C;
leftMetricsKey = "=O";
rightKerningGroup = G;
unicode = 0047;
},
{
color = 3;
glyphname = H;
layers = (
{
anchors = (
{
name = bottom;
position = "{384, 0}";
},
{
name = center;
position = "{384, 587}";
},
{
name = top;
position = "{384, 699}";
},
{
name = topleft;
position = "{24, 729}";
}
);
layerId = "F114AD5B-DC62-4E73-AD12-1938E40AC8EF";
paths = (
{
closed = 1;
nodes = (
"151 0 LINE",
"151 345 LINE",
"618 345 LINE",
"618 0 LINE",
"682 0 LINE",
"682 729 LINE",
"618 729 LINE",
"618 404 LINE",
"151 404 LINE",
"151 729 LINE",
"86 729 LINE",
"86 0 LINE"
);
}
);
width = 768;
},
{
anchors = (
{
name = bottom;
position = "{398, 0}";
},
{
name = center;
position = "{398, 584}";
},
{
name = top;
position = "{398, 729}";
},
{
name = topleft;
position = "{38, 729}";
}
);
layerId = "E787E54A-EE3E-475A-BF02-8501A6DA5144";
paths = (
{
closed = 1;
nodes = (
"271 0 LINE",
"271 289 LINE",
"525 289 LINE",
"525 0 LINE",
"718 0 LINE",
"718 729 LINE",
"525 729 LINE",
"525 451 LINE",
"271 451 LINE",
"271 729 LINE",
"78 729 LINE",
"78 0 LINE"
);
}
);
width = 796;
},
{
anchors = (
{
name = bottom;
position = "{405, 0}";
},
{
name = center;
position = "{405, 573}";
},
{
name = top;
position = "{405, 708}";
},
{
name = topleft;
position = "{45, 729}";
}
);
layerId = "47995495-C855-4C5A-BA32-118EA0334940";
paths = (
{
closed = 1;
nodes = (
"204 0 LINE",
"204 328 LINE",
"606 328 LINE",
"606 0 LINE",
"709 0 LINE",
"709 729 LINE",
"606 729 LINE",
"606 419 LINE",
"204 419 LINE",
"204 729 LINE",
"100 729 LINE",
"100 0 LINE"
);
}
);
width = 810;
}
);
leftKerningGroup = B;
unicode = 0048;
},
{
color = 3;
glyphname = I;
layers = (
{
anchors = (
{
name = bottom;
position = "{119, 0}";
},
{
name = ogonek;
position = "{151, 0}";
},
{
name = top;
position = "{119, 699}";
},
{
name = topleft;
position = "{24, 729}";
}
);
layerId = "F114AD5B-DC62-4E73-AD12-1938E40AC8EF";
paths = (
{
closed = 1;
nodes = (
"151 729 LINE",
"86 729 LINE",
"86 0 LINE",
"151 0 LINE"
);
}
);
width = 237;
},
{
anchors = (
{
name = bottom;
position = "{175, 0}";
},
{
name = ogonek;
position = "{271, 0}";
},
{
name = top;
position = "{175, 729}";
},
{
name = topleft;
position = "{38, 729}";
}
);
layerId = "E787E54A-EE3E-475A-BF02-8501A6DA5144";
paths = (
{
closed = 1;
nodes = (
"271 729 LINE",
"78 729 LINE",
"78 0 LINE",
"271 0 LINE"
);
}
);
width = 349;
},
{
anchors = (
{
name = bottom;
position = "{152, 0}";
},
{
name = ogonek;
position = "{204, 0}";
},
{
name = top;
position = "{152, 708}";
},
{
name = topleft;
position = "{45, 729}";
}
);
layerId = "47995495-C855-4C5A-BA32-118EA0334940";
paths = (
{
closed = 1;
nodes = (
"204 729 LINE",
"100 729 LINE",
"100 0 LINE",
"204 0 LINE"
);
}
);
width = 304;
}
);
leftKerningGroup = B;
leftMetricsKey = "=H";
rightMetricsKey = "=|";
unicode = 0049;
},
{
color = 3;
glyphname = J;
layers = (
{
anchors = (
{
name = bottom;
position = "{312, 0}";
},
{
name = top;
position = "{514, 699}";
}
);
layerId = "F114AD5B-DC62-4E73-AD12-1938E40AC8EF";
paths = (
{
closed = 1;
nodes = (
"78 347 LINE",
"78 217 LINE SMOOTH",
"78 56 OFFCURVE",
"172 -10 OFFCURVE",
"312 -10 CURVE SMOOTH",
"472 -10 OFFCURVE",
"546 75 OFFCURVE",
"546 217 CURVE SMOOTH",
"546 729 LINE",
"481 729 LINE",
"481 224 LINE SMOOTH",
"481 94 OFFCURVE",
"414 53 OFFCURVE",
"312 53 CURVE SMOOTH",
"191 53 OFFCURVE",
"143 115 OFFCURVE",
"143 224 CURVE SMOOTH",
"143 347 LINE"
);
}
);
width = 624;
},
{
anchors = (
{
name = bottom;
position = "{343, 0}";
},
{
name = top;
position = "{523, 729}";
}
);
layerId = "E787E54A-EE3E-475A-BF02-8501A6DA5144";
paths = (
{
closed = 1;
nodes = (
"66 345 LINE",
"66 266 LINE SMOOTH",
"66 89 OFFCURVE",
"154 -10 OFFCURVE",
"341 -10 CURVE SMOOTH",
"519 -10 OFFCURVE",
"619 78 OFFCURVE",
"619 266 CURVE SMOOTH",
"619 729 LINE",
"427 729 LINE",
"427 250 LINE SMOOTH",
"427 192 OFFCURVE",
"397 159 OFFCURVE",
"343 159 CURVE SMOOTH",
"289 159 OFFCURVE",
"258 192 OFFCURVE",
"258 250 CURVE SMOOTH",
"258 345 LINE"
);
}
);
width = 685;
},
{
anchors = (
{
name = bottom;
position = "{340, 0}";
},
{
name = top;
position = "{536, 708}";
}
);
layerId = "47995495-C855-4C5A-BA32-118EA0334940";
paths = (
{
closed = 1;
nodes = (
"93 347 LINE",
"93 232 LINE SMOOTH",
"93 66 OFFCURVE",
"186 -10 OFFCURVE",
"340 -10 CURVE SMOOTH",
"505 -10 OFFCURVE",
"588 76 OFFCURVE",
"588 232 CURVE SMOOTH",
"588 729 LINE",
"483 729 LINE",
"483 232 LINE SMOOTH",
"483 125 OFFCURVE",
"428 86 OFFCURVE",
"340 86 CURVE SMOOTH",
"241 86 OFFCURVE",
"198 139 OFFCURVE",
"198 232 CURVE SMOOTH",
"198 347 LINE"
);
}
);
width = 681;
}
);
leftKerningGroup = J;
leftMetricsKey = "=U";
rightKerningGroup = U;
rightMetricsKey = "=U";
unicode = 004A;
},
{
color = 3;
glyphname = K;
layers = (
{
anchors = (
{
name = bottom;
position = "{333, 0}";
},
{
name = top;
position = "{333, 699}";
}
);
layerId = "F114AD5B-DC62-4E73-AD12-1938E40AC8EF";
paths = (
{
closed = 1;
nodes = (
"151 0 LINE",
"151 230 LINE",
"313 387 LINE",
"579 0 LINE",
"657 0 LINE",
"360 432 LINE",
"647 729 LINE",
"568 729 LINE",
"151 308 LINE",
"151 729 LINE",
"86 729 LINE",
"86 0 LINE"
);
}
);
width = 640;
},
{
anchors = (
{
name = bottom;
position = "{394, 0}";
},
{
name = top;
position = "{394, 729}";
}
);
layerId = "E787E54A-EE3E-475A-BF02-8501A6DA5144";
paths = (
{
closed = 1;
nodes = (
"271 0 LINE",
"271 189 LINE",
"362 299 LINE",
"543 0 LINE",
"770 0 LINE",
"499 437 LINE",
"750 729 LINE",
"513 729 LINE",
"271 437 LINE",
"271 729 LINE",
"78 729 LINE",
"78 0 LINE"
);
}
);
width = 800;
},
{
anchors = (
{
name = bottom;
position = "{368, 0}";
},
{
name = top;
position = "{368, 708}";
}
);
layerId = "47995495-C855-4C5A-BA32-118EA0334940";
paths = (
{
closed = 1;
nodes = (
"204 0 LINE",
"204 216 LINE",
"335 352 LINE",
"585 0 LINE",
"708 0 LINE",
"409 426 LINE",
"695 729 LINE",
"568 729 LINE",
"204 345 LINE",
"204 729 LINE",
"100 729 LINE",
"100 0 LINE"
);
}
);
width = 736;
}
);
leftKerningGroup = B;
leftMetricsKey = "=H";
rightKerningGroup = K;
unicode = 004B;
},
{
color = 3;
glyphname = L;
layers = (
{
anchors = (
{
name = bottom;
position = "{338, 0}";
},
{
name = center;
position = "{312, 365}";
},
{
name = top;
position = "{119, 699}";
},
{
name = topright;
position = "{600, 729}";
}
);
layerId = "F114AD5B-DC62-4E73-AD12-1938E40AC8EF";
paths = (
{
closed = 1;
nodes = (
"590 0 LINE",
"590 60 LINE",
"151 60 LINE",
"151 729 LINE",
"86 729 LINE",
"86 0 LINE"
);
}
);
width = 586;
},
{
anchors = (
{
name = bottom;
position = "{305, 0}";
},
{
name = center;
position = "{290, 365}";
},
{
name = top;
position = "{175, 729}";
},
{
name = topright;
position = "{571, 729}";
}
);
layerId = "E787E54A-EE3E-475A-BF02-8501A6DA5144";
paths = (
{
closed = 1;
nodes = (
"591 0 LINE",
"591 162 LINE",
"271 162 LINE",
"271 729 LINE",
"78 729 LINE",
"78 0 LINE"
);
}
);
width = 630;
},
{
anchors = (
{
name = bottom;
position = "{344, 0}";
},
{
name = center;
position = "{321, 365}";
},
{
name = top;
position = "{148, 708}";
},
{
name = topright;
position = "{607, 729}";
}
);
layerId = "47995495-C855-4C5A-BA32-118EA0334940";
paths = (
{
closed = 1;
nodes = (
"607 0 LINE",
"607 92 LINE",
"204 92 LINE",
"204 729 LINE",
"100 729 LINE",
"100 0 LINE"
);
}
);
width = 640;
}
);
leftKerningGroup = B;
leftMetricsKey = "=H";
rightKerningGroup = L;
unicode = 004C;
},
{
glyphname = Lslash;
layers = (
{
components = (
{
name = L;
transform = "{1, 0, 0, 1, -2, 0}";
}
);
layerId = "F114AD5B-DC62-4E73-AD12-1938E40AC8EF";
paths = (
{
closed = 1;
nodes = (
"-12 326 LINE",
"462 492 LINE",
"462 552 LINE",
"-12 386 LINE"
);
}
);
width = 584;
},
{
components = (
{
name = L;
transform = "{1, 0, 0, 1, 36, 0}";
}
);
layerId = "E787E54A-EE3E-475A-BF02-8501A6DA5144";
paths = (
{
closed = 1;
nodes = (
"39 240 LINE",
"432 374 LINE",
"432 534 LINE",
"39 400 LINE"
);
}
);
width = 666;
},
{
components = (
{
alignment = -1;
name = L;
transform = "{1, 0, 0, 1, 5, 0}";
}
);
layerId = "47995495-C855-4C5A-BA32-118EA0334940";
paths = (
{
closed = 1;
nodes = (
"-1 299 LINE",
"461 460 LINE",
"461 550 LINE",
"-1 390 LINE"
);
}
);
width = 645;
}
);
leftKerningGroup = B;
rightKerningGroup = L;
rightMetricsKey = "=L";
unicode = 0141;
},
{
color = 3;
glyphname = M;
layers = (
{
anchors = (
{
name = bottom;
position = "{446, 0}";
},
{
name = top;
position = "{446, 699}";
}
);
background = {
paths = (
{
closed = 1;
nodes = (
"449 -10 LINE",
"738 668 LINE",
"741 668 LINE",
"741 628 OFFCURVE",
"741 589 OFFCURVE",
"741 549 CURVE SMOOTH",
"741 0 LINE",
"806 0 LINE",
"806 729 LINE",
"695 729 LINE",
"449 150 LINE",
"445 150 LINE",
"199 729 LINE",
"88 729 LINE",
"88 0 LINE",
"153 0 LINE",
"153 549 LINE SMOOTH",
"153 588 OFFCURVE",
"153 628 OFFCURVE",
"153 667 CURVE",
"157 667 LINE",
"445 -10 LINE"
);
}
);
};
layerId = "F114AD5B-DC62-4E73-AD12-1938E40AC8EF";
paths = (
{
closed = 1;
nodes = (
"151 0 LINE",
"151 557 LINE SMOOTH",
"151 598 OFFCURVE",
"151 639 OFFCURVE",
"150 680 CURVE",
"154 680 LINE",
"164 653 OFFCURVE",
"188 592 OFFCURVE",
"213 528 CURVE SMOOTH",
"421 0 LINE",
"472 0 LINE",
"681 528 LINE SMOOTH",
"708 595 OFFCURVE",
"731 656 OFFCURVE",
"740 680 CURVE",
"742 680 LINE",
"741 639 OFFCURVE",
"741 598 OFFCURVE",
"741 557 CURVE SMOOTH",
"741 0 LINE",
"806 0 LINE",
"806 729 LINE",
"695 729 LINE",
"549 355 LINE SMOOTH",
"516 270 OFFCURVE",
"482 189 OFFCURVE",
"448 98 CURVE",
"446 98 LINE",
"413 188 OFFCURVE",
"380 270 OFFCURVE",
"347 355 CURVE SMOOTH",
"202 729 LINE",
"86 729 LINE",
"86 0 LINE"
);
}
);
width = 892;
},
{
anchors = (
{
name = bottom;
position = "{487, 0}";
},
{
name = top;
position = "{487, 729}";
}
);
background = {
paths = (
{
closed = 1;
nodes = (
"490 -10 LINE",
"714 560 LINE",
"718 560 LINE",
"715 478 OFFCURVE",
"712 395 OFFCURVE",
"712 352 CURVE SMOOTH",
"712 0 LINE",
"896 0 LINE",
"896 729 LINE",
"599 729 LINE",
"489 429 LINE",
"485 429 LINE",
"375 729 LINE",
"78 729 LINE",
"78 0 LINE",
"262 0 LINE",
"262 352 LINE SMOOTH",
"262 395 OFFCURVE",
"259 478 OFFCURVE",
"256 560 CURVE",
"260 560 LINE",
"484 -10 LINE"
);
}
);
};
layerId = "E787E54A-EE3E-475A-BF02-8501A6DA5144";
paths = (
{
closed = 1;
nodes = (
"262 0 LINE",
"262 367 LINE SMOOTH",
"262 445 OFFCURVE",
"260 519 OFFCURVE",
"258 553 CURVE",
"262 553 LINE",
"270 511 OFFCURVE",
"296 419 OFFCURVE",
"322 325 CURVE SMOOTH",
"413 0 LINE",
"556 0 LINE",
"648 325 LINE SMOOTH",
"676 423 OFFCURVE",
"700 514 OFFCURVE",
"708 553 CURVE",
"711 553 LINE",
"708 486 OFFCURVE",
"707 411 OFFCURVE",
"707 367 CURVE SMOOTH",
"707 0 LINE",
"895 0 LINE",
"895 729 LINE",
"589 729 LINE",
"550 579 LINE SMOOTH",
"532 511 OFFCURVE",
"507 415 OFFCURVE",
"489 339 CURVE",
"484 339 LINE",
"468 415 OFFCURVE",
"442 511 OFFCURVE",
"424 579 CURVE SMOOTH",
"385 729 LINE",
"78 729 LINE",
"78 0 LINE"
);
}
);
width = 973;
},
{
anchors = (
{
name = bottom;
position = "{473, 0}";
},
{
name = top;
position = "{473, 708}";
}
);
background = {
paths = (
{
closed = 1;
nodes = (
"476 -10 LINE",
"751 638 LINE",
"755 638 LINE",
"753 564 OFFCURVE",
"750 472 OFFCURVE",
"750 407 CURVE SMOOTH",
"750 0 LINE",
"844 0 LINE",
"844 729 LINE",
"695 729 LINE",
"475 209 LINE",
"472 209 LINE",
"255 729 LINE",
"102 729 LINE",
"102 0 LINE",
"194 0 LINE",
"194 407 LINE SMOOTH",
"194 499 OFFCURVE",
"192 593 OFFCURVE",
"190 641 CURVE",
"194 641 LINE",
"470 -10 LINE"
);
}
);
};
layerId = "47995495-C855-4C5A-BA32-118EA0334940";
paths = (
{
closed = 1;
nodes = (
"199 0 LINE",
"199 498 LINE SMOOTH",
"199 550 OFFCURVE",
"199 602 OFFCURVE",
"198 640 CURVE",
"202 640 LINE",
"211 609 OFFCURVE",
"227 563 OFFCURVE",
"261 465 CURVE SMOOTH",
"433 0 LINE",
"512 0 LINE",
"685 465 LINE SMOOTH",
"707 525 OFFCURVE",
"735 612 OFFCURVE",
"744 640 CURVE",
"746 640 LINE",
"745 591 OFFCURVE",
"744 532 OFFCURVE",
"744 498 CURVE SMOOTH",
"744 0 LINE",
"848 0 LINE",
"848 729 LINE",
"677 729 LINE",
"564 424 LINE SMOOTH",
"535 346 OFFCURVE",
"502 255 OFFCURVE",
"475 173 CURVE",
"472 173 LINE",
"443 261 OFFCURVE",
"414 344 OFFCURVE",
"385 424 CURVE SMOOTH",
"273 729 LINE",
"98 729 LINE",
"98 0 LINE"
);
}
);
width = 946;
}
);
leftKerningGroup = B;
rightKerningGroup = M;
unicode = 004D;
},
{
color = 3;
glyphname = N;
layers = (
{
anchors = (
{
name = bottom;
position = "{397, 0}";
},
{
name = top;
position = "{397, 697}";
}
);
layerId = "F114AD5B-DC62-4E73-AD12-1938E40AC8EF";
paths = (
{
closed = 1;
nodes = (
"151 0 LINE",
"151 655 LINE",
"152 655 LINE",
"616 0 LINE",
"708 0 LINE",
"708 729 LINE",
"643 729 LINE",
"643 74 LINE",
"642 74 LINE",
"178 729 LINE",
"86 729 LINE",
"86 0 LINE"
);
}
);
width = 794;
},
{
anchors = (
{
name = bottom;
position = "{403, 0}";
},
{
name = top;
position = "{403, 729}";
}
);
layerId = "E787E54A-EE3E-475A-BF02-8501A6DA5144";
paths = (
{
closed = 1;
nodes = (
"268 0 LINE",
"268 439 LINE",
"260 439 LINE",
"491 0 LINE",
"728 0 LINE",
"728 729 LINE",
"540 729 LINE",
"540 254 LINE",
"545 254 LINE",
"305 729 LINE",
"78 729 LINE",
"78 0 LINE"
);
}
);
width = 806;
},
{
anchors = (
{
name = bottom;
position = "{416, 0}";
},
{
name = top;
position = "{416, 707}";
}
);
layerId = "47995495-C855-4C5A-BA32-118EA0334940";
paths = (
{
closed = 1;
nodes = (
"205 0 LINE",
"205 604 LINE",
"203 604 LINE",
"591 0 LINE",
"731 0 LINE",
"731 729 LINE",
"628 729 LINE",
"628 115 LINE",
"629 115 LINE",
"241 729 LINE",
"101 729 LINE",
"101 0 LINE"
);
}
);
width = 832;
},
{
anchors = (
{
name = bottom;
position = "{397, 0}";
},
{
name = top;
position = "{397, 697}";
}
);
associatedMasterId = "F114AD5B-DC62-4E73-AD12-1938E40AC8EF";
layerId = "CE33E34D-F715-4392-9A8F-714A5815244B";
name = "[300]";
paths = (
{
closed = 1;
nodes = (
"151 0 LINE",
"151 460 LINE SMOOTH",
"151 526 OFFCURVE",
"151 593 OFFCURVE",
"151 659 CURVE",
"152 659 LINE",
"194 599 OFFCURVE",
"236 540 OFFCURVE",
"289 465 CURVE SMOOTH",
"614 0 LINE",
"708 0 LINE",
"708 729 LINE",
"643 729 LINE",
"643 271 LINE SMOOTH",
"643 202 OFFCURVE",
"643 133 OFFCURVE",
"643 64 CURVE",
"642 64 LINE",
"595 132 OFFCURVE",
"547 199 OFFCURVE",
"500 267 CURVE SMOOTH",
"178 729 LINE",
"86 729 LINE",
"86 0 LINE"
);
}
);
width = 794;
},
{
anchors = (
{
name = bottom;
position = "{416, 0}";
},
{
name = top;
position = "{416, 704}";
}
);
associatedMasterId = "47995495-C855-4C5A-BA32-118EA0334940";
layerId = "56B80B9F-DCF6-4B70-93FD-B33494FE0344";
name = "[300]";
paths = (
{
closed = 1;
nodes = (
"196 0 LINE",
"196 392 LINE SMOOTH",
"196 466 OFFCURVE",
"196 539 OFFCURVE",
"196 613 CURVE",
"198 613 LINE",
"277 492 OFFCURVE",
"352 371 OFFCURVE",
"432 250 CURVE SMOOTH",
"597 0 LINE",
"730 0 LINE",
"730 729 LINE",
"636 729 LINE",
"636 286 LINE SMOOTH",
"636 227 OFFCURVE",
"636 169 OFFCURVE",
"636 110 CURVE",
"634 110 LINE",
"559 226 OFFCURVE",
"486 341 OFFCURVE",
"410 457 CURVE SMOOTH",
"231 729 LINE",
"102 729 LINE",
"102 0 LINE"
);
}
);
width = 832;
},
{
anchors = (
{
name = bottom;
position = "{368, 0}";
},
{
name = top;
position = "{368, 729}";
}
);
associatedMasterId = "E787E54A-EE3E-475A-BF02-8501A6DA5144";
layerId = "31A412FC-CFBB-4327-AB69-A7C10FBBD6EA";
name = "[300]";
paths = (
{
closed = 1;
nodes = (
"233 0 LINE",
"233 273 LINE SMOOTH",
"233 337 OFFCURVE",
"231 401 OFFCURVE",
"226 467 CURVE",
"229 467 LINE",
"259 387 OFFCURVE",
"293 309 OFFCURVE",
"353 200 CURVE SMOOTH",
"463 0 LINE",
"700 0 LINE",
"700 729 LINE",
"512 729 LINE",
"512 409 LINE SMOOTH",
"512 353 OFFCURVE",
"514 298 OFFCURVE",
"520 243 CURVE",
"517 243 LINE",
"491 316 OFFCURVE",
"457 392 OFFCURVE",
"404 494 CURVE SMOOTH",
"280 729 LINE",
"43 729 LINE",
"43 0 LINE"
);
}
);
width = 743;
}
);
leftKerningGroup = B;
unicode = 004E;
},
{
glyphname = Eng;
layers = (
{
anchors = (
{
name = bottom;
position = "{397, 0}";
},
{
name = top;
position = "{397, 697}";
}
);
layerId = "F114AD5B-DC62-4E73-AD12-1938E40AC8EF";
paths = (
{
closed = 1;
nodes = (
"151 0 LINE",
"151 655 LINE",
"152 655 LINE",
"616 0 LINE",
"644 0 LINE",
"644 -33 LINE SMOOTH",
"644 -75 OFFCURVE",
"633 -111 OFFCURVE",
"569 -111 CURVE SMOOTH",
"554 -111 OFFCURVE",
"542 -110 OFFCURVE",
"528 -107 CURVE",
"528 -159 LINE",
"542 -163 OFFCURVE",
"564 -165 OFFCURVE",
"581 -165 CURVE SMOOTH",
"657 -165 OFFCURVE",
"708 -128 OFFCURVE",
"708 -50 CURVE SMOOTH",
"708 729 LINE",
"643 729 LINE",
"643 74 LINE",
"642 74 LINE",
"178 729 LINE",
"86 729 LINE",
"86 0 LINE"
);
}
);
width = 794;
},
{
anchors = (
{
name = bottom;
position = "{403, 0}";
},
{
name = top;
position = "{403, 729}";
}
);
layerId = "E787E54A-EE3E-475A-BF02-8501A6DA5144";
paths = (
{
closed = 1;
nodes = (
"268 0 LINE",
"268 443 LINE",
"248 443 LINE",
"491 0 LINE",
"526 0 LINE",
"526 -18 LINE SMOOTH",
"526 -52 OFFCURVE",
"505 -72 OFFCURVE",
"462 -72 CURVE SMOOTH",
"451 -72 OFFCURVE",
"441 -71 OFFCURVE",
"433 -70 CURVE",
"433 -212 LINE",
"462 -220 OFFCURVE",
"481 -222 OFFCURVE",
"512 -222 CURVE SMOOTH",
"641 -222 OFFCURVE",
"728 -166 OFFCURVE",
"728 -20 CURVE SMOOTH",
"728 729 LINE",
"540 729 LINE",
"540 243 LINE",
"561 243 LINE",
"305 729 LINE",
"78 729 LINE",
"78 0 LINE"
);
}
);
width = 806;
},
{
anchors = (
{
name = bottom;
position = "{416, 0}";
},
{
name = top;
position = "{416, 707}";
}
);
layerId = "47995495-C855-4C5A-BA32-118EA0334940";
paths = (
{
closed = 1;
nodes = (
"205 0 LINE",
"205 610 LINE",
"197 610 LINE",
"591 0 LINE",
"625 0 LINE",
"625 -28 LINE SMOOTH",
"625 -73 OFFCURVE",
"607 -99 OFFCURVE",
"553 -99 CURVE SMOOTH",
"539 -99 OFFCURVE",
"528 -98 OFFCURVE",
"515 -95 CURVE",
"515 -175 LINE",
"533 -180 OFFCURVE",
"553 -182 OFFCURVE",
"576 -182 CURVE SMOOTH",
"669 -182 OFFCURVE",
"731 -140 OFFCURVE",
"731 -41 CURVE SMOOTH",
"731 729 LINE",
"628 729 LINE",
"628 106 LINE",
"637 106 LINE",
"241 729 LINE",
"101 729 LINE",
"101 0 LINE"
);
}
);
width = 832;
}
);
leftKerningGroup = B;
leftMetricsKey = "=N";
rightMetricsKey = "=N";
unicode = 014A;
},
{
glyphname = Nhookleft;
layers = (
{
anchors = (
{
name = bottom;
position = "{386, 0}";
},
{
name = top;
position = "{386, 697}";
}
);
layerId = "F114AD5B-DC62-4E73-AD12-1938E40AC8EF";
paths = (
{
closed = 1;
nodes = (
"89 -165 OFFCURVE",
"140 -128 OFFCURVE",
"140 -50 CURVE SMOOTH",
"140 655 LINE",
"141 655 LINE",
"605 0 LINE",
"697 0 LINE",
"697 729 LINE",
"632 729 LINE",
"632 74 LINE",
"631 74 LINE",
"167 729 LINE",
"75 729 LINE",
"75 -33 LINE SMOOTH",
"75 -75 OFFCURVE",
"64 -111 OFFCURVE",
"1 -111 CURVE SMOOTH",
"-14 -111 OFFCURVE",
"-26 -110 OFFCURVE",
"-40 -107 CURVE",
"-40 -159 LINE",
"-26 -163 OFFCURVE",
"-4 -165 OFFCURVE",
"13 -165 CURVE SMOOTH"
);
}
);
width = 783;
},
{
anchors = (
{
name = bottom;
position = "{426, 0}";
},
{
name = top;
position = "{426, 729}";
}
);
layerId = "E787E54A-EE3E-475A-BF02-8501A6DA5144";
paths = (
{
closed = 1;
nodes = (
"191 -222 OFFCURVE",
"269 -166 OFFCURVE",
"269 -20 CURVE SMOOTH",
"269 515 LINE",
"226 505 LINE",
"492 0 LINE",
"729 0 LINE",
"729 729 LINE",
"541 729 LINE",
"541 171 LINE",
"583 181 LINE",
"306 729 LINE",
"79 729 LINE",
"79 -18 LINE SMOOTH",
"79 -52 OFFCURVE",
"58 -72 OFFCURVE",
"16 -72 CURVE SMOOTH",
"5 -72 OFFCURVE",
"-5 -71 OFFCURVE",
"-13 -70 CURVE",
"-13 -212 LINE",
"16 -220 OFFCURVE",
"35 -222 OFFCURVE",
"66 -222 CURVE SMOOTH"
);
}
);
width = 807;
},
{
anchors = (
{
name = bottom;
position = "{389, 0}";
},
{
name = top;
position = "{389, 707}";
}
);
layerId = "47995495-C855-4C5A-BA32-118EA0334940";
paths = (
{
closed = 1;
nodes = (
"112 -182 OFFCURVE",
"172 -140 OFFCURVE",
"172 -41 CURVE SMOOTH",
"172 649 LINE",
"146 642 LINE",
"558 0 LINE",
"698 0 LINE",
"698 729 LINE",
"595 729 LINE",
"595 69 LINE",
"621 77 LINE",
"208 729 LINE",
"68 729 LINE",
"68 -28 LINE SMOOTH",
"68 -68 OFFCURVE",
"54 -99 OFFCURVE",
"-2 -99 CURVE SMOOTH",
"-15 -99 OFFCURVE",
"-28 -98 OFFCURVE",
"-40 -95 CURVE",
"-40 -175 LINE",
"-21 -180 OFFCURVE",
"-4 -182 OFFCURVE",
"22 -182 CURVE SMOOTH"
);
}
);
width = 799;
}
);
rightMetricsKey = N;
unicode = 019D;
},
{
color = 3;
glyphname = O;
layers = (
{
anchors = (
{
name = bottom;
position = "{373, 0}";
},
{
name = center;
position = "{373, 365}";
},
{
name = ogonek;
position = "{678, 10}";
},
{
name = top;
position = "{373, 699}";
},
{
name = topleft;
position = "{11, 729}";
},
{
name = topright;
position = "{471, 729}";
}
);
layerId = "F114AD5B-DC62-4E73-AD12-1938E40AC8EF";
paths = (
{
closed = 1;
nodes = (
"41 140 OFFCURVE",
"160 -10 OFFCURVE",
"372 -10 CURVE SMOOTH",
"571 -10 OFFCURVE",
"704 125 OFFCURVE",
"704 365 CURVE SMOOTH",
"704 589 OFFCURVE",
"584 738 OFFCURVE",
"372 738 CURVE SMOOTH",
"173 738 OFFCURVE",
"41 603 OFFCURVE",
"41 364 CURVE SMOOTH"
);
},
{
closed = 1;
nodes = (
"110 565 OFFCURVE",
"204 677 OFFCURVE",
"372 677 CURVE SMOOTH",
"540 677 OFFCURVE",
"635 564 OFFCURVE",
"635 364 CURVE SMOOTH",
"635 165 OFFCURVE",
"540 53 OFFCURVE",
"372 53 CURVE SMOOTH",
"204 53 OFFCURVE",
"110 165 OFFCURVE",
"110 365 CURVE SMOOTH"
);
}
);
width = 745;
},
{
anchors = (
{
name = bottom;
position = "{395, 0}";
},
{
name = center;
position = "{395, 365}";
},
{
name = ogonek;
position = "{705, 10}";
},
{
name = top;
position = "{395, 729}";
},
{
name = topleft;
position = "{26, 729}";
},
{
name = topright;
position = "{534, 729}";
}
);
layerId = "E787E54A-EE3E-475A-BF02-8501A6DA5144";
paths = (
{
closed = 1;
nodes = (
"46 110 OFFCURVE",
"185 -10 OFFCURVE",
"394 -10 CURVE SMOOTH",
"631 -10 OFFCURVE",
"743 140 OFFCURVE",
"743 365 CURVE SMOOTH",
"743 619 OFFCURVE",
"603 738 OFFCURVE",
"394 738 CURVE SMOOTH",
"158 738 OFFCURVE",
"46 589 OFFCURVE",
"46 365 CURVE SMOOTH"
);
},
{
closed = 1;
nodes = (
"250 510 OFFCURVE",
"308 567 OFFCURVE",
"394 567 CURVE SMOOTH",
"499 567 OFFCURVE",
"540 486 OFFCURVE",
"540 365 CURVE SMOOTH",
"540 218 OFFCURVE",
"482 161 OFFCURVE",
"394 161 CURVE SMOOTH",
"290 161 OFFCURVE",
"250 243 OFFCURVE",
"250 365 CURVE SMOOTH"
);
}
);
width = 789;
},
{
anchors = (
{
name = bottom;
position = "{382, 0}";
},
{
name = center;
position = "{382, 365}";
},
{
name = ogonek;
position = "{689, 10}";
},
{
name = top;
position = "{382, 708}";
},
{
name = topleft;
position = "{18, 729}";
},
{
name = topright;
position = "{493, 729}";
}
);
layerId = "47995495-C855-4C5A-BA32-118EA0334940";
paths = (
{
closed = 1;
nodes = (
"45 131 OFFCURVE",
"171 -10 OFFCURVE",
"381 -10 CURVE SMOOTH",
"592 -10 OFFCURVE",
"719 130 OFFCURVE",
"719 365 CURVE SMOOTH",
"719 598 OFFCURVE",
"592 738 OFFCURVE",
"381 738 CURVE SMOOTH",
"171 738 OFFCURVE",
"45 599 OFFCURVE",
"45 364 CURVE SMOOTH"
);
},
{
closed = 1;
nodes = (
"155 548 OFFCURVE",
"239 643 OFFCURVE",
"381 643 CURVE SMOOTH",
"529 643 OFFCURVE",
"608 540 OFFCURVE",
"608 364 CURVE SMOOTH",
"608 181 OFFCURVE",
"524 86 OFFCURVE",
"381 86 CURVE SMOOTH",
"233 86 OFFCURVE",
"155 190 OFFCURVE",
"155 365 CURVE SMOOTH"
);
}
);
width = 764;
}
);
leftKerningGroup = C;
rightKerningGroup = O;
rightMetricsKey = "=|";
unicode = 004F;
},
{
glyphname = OE;
layers = (
{
layerId = "F114AD5B-DC62-4E73-AD12-1938E40AC8EF";
paths = (
{
closed = 1;
nodes = (
"41 147 OFFCURVE",
"193 0 OFFCURVE",
"416 0 CURVE SMOOTH",
"943 0 LINE",
"943 65 LINE",
"529 65 LINE",
"529 336 LINE",
"839 336 LINE",
"839 395 LINE",
"529 395 LINE",
"529 666 LINE",
"943 666 LINE",
"943 729 LINE",
"417 729 LINE SMOOTH",
"192 729 OFFCURVE",
"41 581 OFFCURVE",
"41 365 CURVE SMOOTH"
);
},
{
closed = 1;
nodes = (
"110 543 OFFCURVE",
"231 666 OFFCURVE",
"416 666 CURVE SMOOTH",
"466 666 LINE",
"466 65 LINE",
"416 65 LINE SMOOTH",
"231 65 OFFCURVE",
"110 187 OFFCURVE",
"110 365 CURVE SMOOTH"
);
}
);
width = 971;
},
{
layerId = "E787E54A-EE3E-475A-BF02-8501A6DA5144";
paths = (
{
closed = 1;
nodes = (
"46 150 OFFCURVE",
"196 1 OFFCURVE",
"419 1 CURVE SMOOTH",
"956 1 LINE",
"956 172 LINE",
"648 172 LINE",
"648 282 LINE",
"860 282 LINE",
"860 442 LINE",
"648 442 LINE",
"648 557 LINE",
"956 557 LINE",
"956 728 LINE",
"418 728 LINE SMOOTH",
"195 728 OFFCURVE",
"46 580 OFFCURVE",
"46 365 CURVE SMOOTH"
);
},
{
closed = 1;
nodes = (
"260 476 OFFCURVE",
"323 555 OFFCURVE",
"419 555 CURVE SMOOTH",
"446 555 LINE",
"446 172 LINE",
"419 172 LINE SMOOTH",
"323 172 OFFCURVE",
"260 252 OFFCURVE",
"260 365 CURVE SMOOTH"
);
}
);
width = 1001;
},
{
layerId = "47995495-C855-4C5A-BA32-118EA0334940";
paths = (
{
closed = 1;
nodes = (
"45 148 OFFCURVE",
"196 0 OFFCURVE",
"419 0 CURVE SMOOTH",
"950 0 LINE",
"950 98 LINE",
"569 98 LINE",
"569 319 LINE",
"848 319 LINE",
"848 410 LINE",
"569 410 LINE",
"569 633 LINE",
"950 633 LINE",
"950 729 LINE",
"420 729 LINE SMOOTH",
"195 729 OFFCURVE",
"45 581 OFFCURVE",
"45 365 CURVE SMOOTH"
);
},
{
closed = 1;
nodes = (
"159 522 OFFCURVE",
"262 632 OFFCURVE",
"419 632 CURVE SMOOTH",
"462 632 LINE",
"462 98 LINE",
"419 98 LINE SMOOTH",
"262 98 OFFCURVE",
"159 207 OFFCURVE",
"159 365 CURVE SMOOTH"
);
}
);
width = 1009;
}
);
leftKerningGroup = C;
leftMetricsKey = "=|D";
rightKerningGroup = E;
rightMetricsKey = "=E";
unicode = 0152;
},
{
color = 3;
glyphname = P;
layers = (
{
anchors = (
{
name = bottom;
position = "{337, 0}";
},
{
name = top;
position = "{337, 699}";
}
);
layerId = "F114AD5B-DC62-4E73-AD12-1938E40AC8EF";
paths = (
{
closed = 1;
nodes = (
"86 729 LINE",
"86 0 LINE",
"151 0 LINE",
"151 318 LINE",
"414 317 LINE SMOOTH",
"565 316 OFFCURVE",
"650 398 OFFCURVE",
"650 523 CURVE SMOOTH",
"650 655 OFFCURVE",
"556 729 OFFCURVE",
"414 729 CURVE SMOOTH"
);
},
{
closed = 1;
nodes = (
"151 377 LINE",
"151 666 LINE",
"402 666 LINE SMOOTH",
"527 666 OFFCURVE",
"581 615 OFFCURVE",
"581 524 CURVE SMOOTH",
"581 424 OFFCURVE",
"520 377 OFFCURVE",
"402 377 CURVE SMOOTH"
);
}
);
width = 685;
},
{
anchors = (
{
name = bottom;
position = "{368, 0}";
},
{
name = top;
position = "{368, 729}";
}
);
layerId = "E787E54A-EE3E-475A-BF02-8501A6DA5144";
paths = (
{
closed = 1;
nodes = (
"78 729 LINE",
"78 0 LINE",
"271 0 LINE",
"271 225 LINE",
"412 225 LINE SMOOTH",
"583 225 OFFCURVE",
"697 316 OFFCURVE",
"697 477 CURVE SMOOTH",
"697 638 OFFCURVE",
"587 729 OFFCURVE",
"422 729 CURVE SMOOTH"
);
},
{
closed = 1;
nodes = (
"271 381 LINE",
"271 567 LINE",
"404 567 LINE SMOOTH",
"468 567 OFFCURVE",
"502 530 OFFCURVE",
"502 474 CURVE SMOOTH",
"502 411 OFFCURVE",
"460 381 OFFCURVE",
"404 381 CURVE SMOOTH"
);
}
);
width = 737;
},
{
anchors = (
{
name = bottom;
position = "{363, 0}";
},
{
name = top;
position = "{363, 708}";
}
);
guideLines = (
{
angle = 90;
position = "{580, 515}";
}
);
layerId = "47995495-C855-4C5A-BA32-118EA0334940";
paths = (
{
closed = 1;
nodes = (
"100 729 LINE",
"100 0 LINE",
"204 0 LINE",
"204 292 LINE",
"431 292 LINE SMOOTH",
"589 292 OFFCURVE",
"680 378 OFFCURVE",
"680 510 CURVE SMOOTH",
"680 642 OFFCURVE",
"590 729 OFFCURVE",
"432 729 CURVE SMOOTH"
);
},
{
closed = 1;
nodes = (
"204 385 LINE",
"204 635 LINE",
"440 635 LINE SMOOTH",
"519 635 OFFCURVE",
"571 594 OFFCURVE",
"571 510 CURVE SMOOTH",
"571 425 OFFCURVE",
"518 385 OFFCURVE",
"440 385 CURVE SMOOTH"
);
}
);
width = 711;
}
);
leftKerningGroup = B;
leftMetricsKey = "=H";
rightKerningGroup = P;
unicode = 0050;
},
{
glyphname = Thorn;
layers = (
{
anchors = (
{
name = bottom;
position = "{306, 0}";
},
{
name = top;
position = "{306, 729}";
}
);
layerId = "F114AD5B-DC62-4E73-AD12-1938E40AC8EF";
paths = (
{
closed = 1;
nodes = (
"149 0 LINE",
"149 149 LINE",
"346 149 LINE SMOOTH",
"505 149 OFFCURVE",
"611 226 OFFCURVE",
"611 370 CURVE SMOOTH",
"611 507 OFFCURVE",
"521 600 OFFCURVE",
"357 600 CURVE SMOOTH",
"149 600 LINE",
"149 750 LINE",
"86 750 LINE",
"86 0 LINE"
);
},
{
closed = 1;
nodes = (
"149 538 LINE",
"359 538 LINE SMOOTH",
"472 538 OFFCURVE",
"548 479 OFFCURVE",
"548 373 CURVE SMOOTH",
"548 274 OFFCURVE",
"479 209 OFFCURVE",
"359 209 CURVE SMOOTH",
"149 209 LINE"
);
}
);
width = 646;
},
{
anchors = (
{
name = bottom;
position = "{349, 0}";
},
{
name = top;
position = "{349, 729}";
}
);
layerId = "E787E54A-EE3E-475A-BF02-8501A6DA5144";
paths = (
{
closed = 1;
nodes = (
"271 0 LINE",
"271 118 LINE",
"397 118 LINE SMOOTH",
"564 118 OFFCURVE",
"678 201 OFFCURVE",
"678 378 CURVE SMOOTH",
"678 531 OFFCURVE",
"586 633 OFFCURVE",
"395 633 CURVE SMOOTH",
"271 633 LINE",
"271 750 LINE",
"78 750 LINE",
"78 0 LINE"
);
},
{
closed = 1;
nodes = (
"271 455 LINE",
"375 455 LINE SMOOTH",
"432 455 OFFCURVE",
"471 429 OFFCURVE",
"471 374 CURVE SMOOTH",
"471 323 OFFCURVE",
"440 289 OFFCURVE",
"375 289 CURVE SMOOTH",
"271 289 LINE"
);
}
);
width = 718;
},
{
anchors = (
{
name = bottom;
position = "{335, 0}";
},
{
name = top;
position = "{335, 729}";
}
);
layerId = "47995495-C855-4C5A-BA32-118EA0334940";
paths = (
{
closed = 1;
nodes = (
"203 0 LINE",
"203 140 LINE",
"378 140 LINE SMOOTH",
"539 140 OFFCURVE",
"648 218 OFFCURVE",
"648 373 CURVE SMOOTH",
"648 515 OFFCURVE",
"557 611 OFFCURVE",
"385 611 CURVE SMOOTH",
"203 611 LINE",
"203 750 LINE",
"100 750 LINE",
"100 0 LINE"
);
},
{
closed = 1;
nodes = (
"203 513 LINE",
"380 513 LINE SMOOTH",
"475 513 OFFCURVE",
"540 463 OFFCURVE",
"540 373 CURVE SMOOTH",
"540 289 OFFCURVE",
"483 234 OFFCURVE",
"380 234 CURVE SMOOTH",
"203 234 LINE"
);
}
);
width = 679;
}
);
leftKerningGroup = L;
leftMetricsKey = "=H";
rightKerningGroup = Thorn;
rightMetricsKey = "=P";
unicode = 00DE;
},
{
color = 3;
glyphname = Q;
layers = (
{
anchors = (
{
name = bottom;
position = "{382, 0}";
},
{
name = top;
position = "{382, 729}";
}
);
components = (
{
alignment = -1;
name = O;
}
);
layerId = "F114AD5B-DC62-4E73-AD12-1938E40AC8EF";
paths = (
{
closed = 1;
nodes = (
"635 -44 LINE",
"677 0 LINE",
"438 239 LINE",
"396 195 LINE"
);
}
);
width = 745;
},
{
anchors = (
{
name = bottom;
position = "{389, 0}";
},
{
name = top;
position = "{389, 729}";
}
);
components = (
{
alignment = -1;
name = O;
}
);
layerId = "E787E54A-EE3E-475A-BF02-8501A6DA5144";
paths = (
{
closed = 1;
nodes = (
"634 -43 LINE",
"736 59 LINE",
"446 348 LINE",
"344 246 LINE"
);
}
);
width = 789;
},
{
anchors = (
{
name = bottom;
position = "{384, 0}";
},
{
name = top;
position = "{384, 729}";
}
);
components = (
{
alignment = -1;
name = O;
}
);
layerId = "47995495-C855-4C5A-BA32-118EA0334940";
paths = (
{
closed = 1;
nodes = (
"634 -44 LINE",
"695 19 LINE",
"440 272 LINE",
"379 211 LINE"
);
}
);
width = 764;
}
);
leftKerningGroup = C;
leftMetricsKey = "=O";
rightKerningGroup = D;
rightMetricsKey = "=O";
unicode = 0051;
},
{
color = 3;
glyphname = R;
layers = (
{
anchors = (
{
name = bottom;
position = "{348, 0}";
},
{
name = top;
position = "{348, 699}";
}
);
layerId = "F114AD5B-DC62-4E73-AD12-1938E40AC8EF";
paths = (
{
closed = 1;
nodes = (
"151 0 LINE",
"151 340 LINE",
"437 340 LINE SMOOTH",
"521 340 OFFCURVE",
"563 308 OFFCURVE",
"563 214 CURVE SMOOTH",
"563 92 LINE SMOOTH",
"563 35 OFFCURVE",
"569 11 OFFCURVE",
"576 0 CURVE",
"649 0 LINE",
"649 9 LINE",
"641 14 OFFCURVE",
"628 28 OFFCURVE",
"628 69 CURVE SMOOTH",
"628 227 LINE SMOOTH",
"628 298 OFFCURVE",
"601 347 OFFCURVE",
"530 368 CURVE",
"530 370 LINE",
"599 397 OFFCURVE",
"644 461 OFFCURVE",
"644 539 CURVE SMOOTH",
"644 653 OFFCURVE",
"569 729 OFFCURVE",
"425 729 CURVE SMOOTH",
"86 729 LINE",
"86 0 LINE"
);
},
{
closed = 1;
nodes = (
"151 669 LINE",
"411 669 LINE SMOOTH",
"517 669 OFFCURVE",
"576 626 OFFCURVE",
"576 535 CURVE SMOOTH",
"576 447 OFFCURVE",
"523 398 OFFCURVE",
"411 398 CURVE SMOOTH",
"151 398 LINE"
);
}
);
width = 710;
},
{
anchors = (
{
name = bottom;
position = "{370, 0}";
},
{
name = top;
position = "{370, 729}";
}
);
hints = (
{
horizontal = 1;
origin = "{0, 11}";
target = "{0, 27}";
type = Stem;
},
{
horizontal = 1;
origin = "{1, 8}";
target = "{0, 1}";
type = Stem;
},
{
horizontal = 1;
origin = "{0, 26}";
target = "{1, 0}";
type = Stem;
},
{
origin = "{0, 27}";
target = "{0, 0}";
type = Stem;
},
{
origin = "{0, 6}";
target = "{0, 14}";
type = Stem;
},
{
origin = "{1, 4}";
target = "{0, 22}";
type = Stem;
}
);
layerId = "E787E54A-EE3E-475A-BF02-8501A6DA5144";
paths = (
{
closed = 1;
nodes = (
"271 0 LINE",
"271 249 LINE",
"422 249 LINE SMOOTH",
"472 249 OFFCURVE",
"505 227 OFFCURVE",
"505 168 CURVE SMOOTH",
"505 90 LINE SMOOTH",
"505 46 OFFCURVE",
"510 18 OFFCURVE",
"518 0 CURVE",
"718 0 LINE",
"718 17 LINE",
"710 24 OFFCURVE",
"697 43 OFFCURVE",
"697 107 CURVE SMOOTH",
"697 201 LINE SMOOTH",
"697 290 OFFCURVE",
"651 350 OFFCURVE",
"510 340 CURVE",
"568 324 LINE",
"651 346 OFFCURVE",
"702 421 OFFCURVE",
"702 510 CURVE SMOOTH",
"702 641 OFFCURVE",
"612 729 OFFCURVE",
"451 729 CURVE SMOOTH",
"78 729 LINE",
"78 0 LINE"
);
},
{
closed = 1;
nodes = (
"271 567 LINE",
"412 567 LINE SMOOTH",
"463 567 OFFCURVE",
"501 541 OFFCURVE",
"501 485 CURVE SMOOTH",
"501 436 OFFCURVE",
"469 403 OFFCURVE",
"409 403 CURVE SMOOTH",
"271 403 LINE"
);
}
);
width = 766;
},
{
anchors = (
{
name = bottom;
position = "{371, 0}";
},
{
name = top;
position = "{371, 708}";
}
);
layerId = "47995495-C855-4C5A-BA32-118EA0334940";
paths = (
{
closed = 1;
nodes = (
"204 0 LINE",
"204 314 LINE",
"449 314 LINE SMOOTH",
"523 314 OFFCURVE",
"561 280 OFFCURVE",
"561 205 CURVE SMOOTH",
"561 92 LINE SMOOTH",
"561 41 OFFCURVE",
"566 13 OFFCURVE",
"575 0 CURVE",
"689 0 LINE",
"689 13 LINE",
"679 18 OFFCURVE",
"665 33 OFFCURVE",
"665 76 CURVE SMOOTH",
"665 223 LINE SMOOTH",
"665 296 OFFCURVE",
"632 340 OFFCURVE",
"555 358 CURVE",
"561 358 LINE",
"633 384 OFFCURVE",
"679 450 OFFCURVE",
"679 534 CURVE SMOOTH",
"679 651 OFFCURVE",
"595 729 OFFCURVE",
"446 729 CURVE SMOOTH",
"100 729 LINE",
"100 0 LINE"
);
},
{
closed = 1;
nodes = (
"204 637 LINE",
"437 637 LINE SMOOTH",
"521 637 OFFCURVE",
"569 595 OFFCURVE",
"569 519 CURVE SMOOTH",
"569 443 OFFCURVE",
"521 399 OFFCURVE",
"436 399 CURVE SMOOTH",
"204 399 LINE"
);
}
);
width = 747;
}
);
leftKerningGroup = B;
leftMetricsKey = "=H";
rightKerningGroup = R;
unicode = 0052;
},
{
color = 3;
glyphname = S;
layers = (
{
anchors = (
{
name = bottom;
position = "{326, 0}";
},
{
name = ogonek;
position = "{324, 0}";
},
{
name = top;
position = "{326, 699}";
}
);
layerId = "F114AD5B-DC62-4E73-AD12-1938E40AC8EF";
paths = (
{
closed = 1;
nodes = (
"576 520 LINE",
"570 651 OFFCURVE",
"475 739 OFFCURVE",
"312 739 CURVE SMOOTH",
"167 739 OFFCURVE",
"71 663 OFFCURVE",
"71 550 CURVE SMOOTH",
"71 450 OFFCURVE",
"124 387 OFFCURVE",
"314 347 CURVE SMOOTH",
"422 324 OFFCURVE",
"516 303 OFFCURVE",
"516 199 CURVE SMOOTH",
"516 110 OFFCURVE",
"446 50 OFFCURVE",
"321 50 CURVE SMOOTH",
"188 50 OFFCURVE",
"113 122 OFFCURVE",
"108 237 CURVE",
"43 231 LINE",
"43 86 OFFCURVE",
"154 -10 OFFCURVE",
"321 -10 CURVE SMOOTH",
"480 -10 OFFCURVE",
"586 74 OFFCURVE",
"586 201 CURVE SMOOTH",
"586 358 OFFCURVE",
"444 384 OFFCURVE",
"337 406 CURVE SMOOTH",
"203 433 OFFCURVE",
"139 467 OFFCURVE",
"139 550 CURVE SMOOTH",
"139 627 OFFCURVE",
"202 679 OFFCURVE",
"313 679 CURVE SMOOTH",
"439 679 OFFCURVE",
"503 613 OFFCURVE",
"511 514 CURVE"
);
}
);
width = 629;
},
{
anchors = (
{
name = bottom;
position = "{335, 0}";
},
{
name = ogonek;
position = "{368, 0}";
},
{
name = top;
position = "{352, 729}";
}
);
layerId = "E787E54A-EE3E-475A-BF02-8501A6DA5144";
paths = (
{
closed = 1;
nodes = (
"624 524 LINE",
"616 670 OFFCURVE",
"502 738 OFFCURVE",
"338 738 CURVE SMOOTH",
"168 738 OFFCURVE",
"55 646 OFFCURVE",
"55 511 CURVE SMOOTH",
"55 343 OFFCURVE",
"203 308 OFFCURVE",
"329 280 CURVE SMOOTH",
"381 268 OFFCURVE",
"436 257 OFFCURVE",
"436 203 CURVE SMOOTH",
"436 161 OFFCURVE",
"402 139 OFFCURVE",
"343 139 CURVE SMOOTH",
"280 139 OFFCURVE",
"232 168 OFFCURVE",
"231 251 CURVE",
"42 224 LINE",
"50 84 OFFCURVE",
"145 -10 OFFCURVE",
"335 -10 CURVE SMOOTH",
"517 -10 OFFCURVE",
"640 77 OFFCURVE",
"640 219 CURVE SMOOTH",
"640 345 OFFCURVE",
"566 414 OFFCURVE",
"429 443 CURVE SMOOTH",
"328 465 OFFCURVE",
"254 472 OFFCURVE",
"254 532 CURVE SMOOTH",
"254 566 OFFCURVE",
"280 590 OFFCURVE",
"334 590 CURVE SMOOTH",
"381 590 OFFCURVE",
"434 569 OFFCURVE",
"435 497 CURVE"
);
}
);
width = 683;
},
{
anchors = (
{
name = bottom;
position = "{340, 0}";
},
{
name = ogonek;
position = "{347, 0}";
},
{
name = top;
position = "{339, 708}";
}
);
layerId = "47995495-C855-4C5A-BA32-118EA0334940";
paths = (
{
closed = 1;
nodes = (
"596 521 LINE",
"590 653 OFFCURVE",
"492 739 OFFCURVE",
"325 739 CURVE SMOOTH",
"172 739 OFFCURVE",
"71 657 OFFCURVE",
"71 538 CURVE SMOOTH",
"71 417 OFFCURVE",
"154 363 OFFCURVE",
"324 326 CURVE SMOOTH",
"417 306 OFFCURVE",
"497 288 OFFCURVE",
"497 200 CURVE SMOOTH",
"497 126 OFFCURVE",
"437 78 OFFCURVE",
"333 78 CURVE SMOOTH",
"223 78 OFFCURVE",
"155 136 OFFCURVE",
"151 241 CURVE",
"48 229 LINE",
"51 86 OFFCURVE",
"156 -10 OFFCURVE",
"330 -10 CURVE SMOOTH",
"496 -10 OFFCURVE",
"608 75 OFFCURVE",
"608 206 CURVE SMOOTH",
"608 351 OFFCURVE",
"492 393 OFFCURVE",
"373 417 CURVE SMOOTH",
"252 442 OFFCURVE",
"180 466 OFFCURVE",
"180 545 CURVE SMOOTH",
"180 608 OFFCURVE",
"231 651 OFFCURVE",
"325 651 CURVE SMOOTH",
"425 651 OFFCURVE",
"487 600 OFFCURVE",
"492 509 CURVE"
);
}
);
width = 668;
}
);
leftKerningGroup = S;
rightKerningGroup = S;
unicode = 0053;
},
{
glyphname = Germandbls;
layers = (
{
layerId = "F114AD5B-DC62-4E73-AD12-1938E40AC8EF";
paths = (
{
closed = 1;
nodes = (
"151 0 LINE",
"151 669 LINE",
"528 669 LINE",
"316 409 LINE",
"316 351 LINE",
"343 364 OFFCURVE",
"384 372 OFFCURVE",
"423 372 CURVE SMOOTH",
"528 372 OFFCURVE",
"598 315 OFFCURVE",
"598 213 CURVE SMOOTH",
"598 112 OFFCURVE",
"520 45 OFFCURVE",
"402 45 CURVE SMOOTH",
"359 45 OFFCURVE",
"316 53 OFFCURVE",
"291 66 CURVE",
"291 9 LINE",
"316 -3 OFFCURVE",
"361 -10 OFFCURVE",
"403 -10 CURVE SMOOTH",
"565 -10 OFFCURVE",
"664 87 OFFCURVE",
"664 215 CURVE SMOOTH",
"664 342 OFFCURVE",
"573 424 OFFCURVE",
"437 424 CURVE SMOOTH",
"412 424 OFFCURVE",
"383 421 OFFCURVE",
"359 412 CURVE",
"400 393 LINE",
"400 426 LINE",
"609 678 LINE",
"609 729 LINE",
"86 729 LINE",
"86 0 LINE"
);
}
);
width = 707;
},
{
layerId = "E787E54A-EE3E-475A-BF02-8501A6DA5144";
paths = (
{
closed = 1;
nodes = (
"271 0 LINE",
"271 567 LINE",
"476 567 LINE",
"369 404 LINE",
"369 319 LINE",
"382 328 OFFCURVE",
"408 334 OFFCURVE",
"434 334 CURVE SMOOTH",
"508 334 OFFCURVE",
"550 300 OFFCURVE",
"550 240 CURVE SMOOTH",
"550 180 OFFCURVE",
"511 141 OFFCURVE",
"428 141 CURVE SMOOTH",
"401 141 OFFCURVE",
"374 145 OFFCURVE",
"359 151 CURVE",
"359 7 LINE",
"381 -3 OFFCURVE",
"424 -10 OFFCURVE",
"474 -10 CURVE SMOOTH",
"633 -10 OFFCURVE",
"750 81 OFFCURVE",
"750 218 CURVE SMOOTH",
"750 344 OFFCURVE",
"668 425 OFFCURVE",
"545 425 CURVE SMOOTH",
"520 425 OFFCURVE",
"469 418 OFFCURVE",
"442 409 CURVE",
"582 386 LINE",
"582 425 LINE",
"690 588 LINE",
"690 729 LINE",
"78 729 LINE",
"78 0 LINE"
);
}
);
width = 793;
},
{
layerId = "47995495-C855-4C5A-BA32-118EA0334940";
paths = (
{
closed = 1;
nodes = (
"204 0 LINE",
"204 637 LINE",
"516 637 LINE",
"333 408 LINE",
"333 336 LINE",
"354 353 OFFCURVE",
"395 365 OFFCURVE",
"439 365 CURVE SMOOTH",
"543 365 OFFCURVE",
"593 307 OFFCURVE",
"593 227 CURVE SMOOTH",
"593 133 OFFCURVE",
"525 76 OFFCURVE",
"419 76 CURVE SMOOTH",
"381 76 OFFCURVE",
"343 83 OFFCURVE",
"322 96 CURVE",
"322 9 LINE",
"345 -3 OFFCURVE",
"391 -10 OFFCURVE",
"434 -10 CURVE SMOOTH",
"589 -10 OFFCURVE",
"698 85 OFFCURVE",
"698 223 CURVE SMOOTH",
"698 352 OFFCURVE",
"602 433 OFFCURVE",
"480 433 CURVE SMOOTH",
"455 433 OFFCURVE",
"427 429 OFFCURVE",
"409 420 CURVE",
"474 399 LINE",
"474 437 LINE",
"644 650 LINE",
"644 729 LINE",
"100 729 LINE",
"100 0 LINE"
);
}
);
width = 758;
}
);
leftMetricsKey = "=H";
rightKerningGroup = germandbls;
rightMetricsKey = "=S";
unicode = 1E9E;
},
{
glyphname = Schwa;
layers = (
{
anchors = (
{
name = bottom;
position = "{395, 20}";
},
{
name = ogonek;
position = "{582, 10}";
},
{
name = top;
position = "{357, 513}";
}
);
layerId = "F114AD5B-DC62-4E73-AD12-1938E40AC8EF";
paths = (
{
closed = 1;
nodes = (
"200 739 OFFCURVE",
"69 657 OFFCURVE",
"41 534 CURVE",
"105 528 LINE",
"125 618 OFFCURVE",
"228 679 OFFCURVE",
"348 679 CURVE SMOOTH",
"506 679 OFFCURVE",
"605 581 OFFCURVE",
"605 374 CURVE",
"48 374 LINE",
"45 344 OFFCURVE",
"44 335 OFFCURVE",
"44 320 CURVE SMOOTH",
"44 129 OFFCURVE",
"148 -10 OFFCURVE",
"350 -10 CURVE SMOOTH",
"538 -10 OFFCURVE",
"671 111 OFFCURVE",
"671 363 CURVE SMOOTH",
"671 599 OFFCURVE",
"555 739 OFFCURVE",
"354 739 CURVE SMOOTH"
);
},
{
closed = 1;
nodes = (
"215 52 OFFCURVE",
"112 126 OFFCURVE",
"112 317 CURVE",
"605 317 LINE",
"600 148 OFFCURVE",
"504 52 OFFCURVE",
"350 52 CURVE SMOOTH"
);
}
);
width = 712;
},
{
anchors = (
{
name = bottom;
position = "{360, -16}";
},
{
name = ogonek;
position = "{610, 10}";
},
{
name = top;
position = "{386, 549}";
}
);
layerId = "E787E54A-EE3E-475A-BF02-8501A6DA5144";
paths = (
{
closed = 1;
nodes = (
"220 739 OFFCURVE",
"94 652 OFFCURVE",
"55 495 CURVE",
"252 467 LINE",
"266 525 OFFCURVE",
"311 562 OFFCURVE",
"386 562 CURVE SMOOTH",
"472 562 OFFCURVE",
"526 516 OFFCURVE",
"526 419 CURVE",
"52 419 LINE",
"48 406 OFFCURVE",
"46 379 OFFCURVE",
"46 351 CURVE SMOOTH",
"46 127 OFFCURVE",
"176 -10 OFFCURVE",
"389 -10 CURVE SMOOTH",
"612 -10 OFFCURVE",
"742 141 OFFCURVE",
"742 372 CURVE SMOOTH",
"742 607 OFFCURVE",
"610 739 OFFCURVE",
"394 739 CURVE SMOOTH"
);
},
{
closed = 1;
nodes = (
"335 161 OFFCURVE",
"272 179 OFFCURVE",
"265 267 CURVE",
"523 267 LINE",
"510 201 OFFCURVE",
"463 161 OFFCURVE",
"389 161 CURVE SMOOTH"
);
}
);
width = 788;
},
{
anchors = (
{
name = bottom;
position = "{385, 9}";
},
{
name = ogonek;
position = "{591, 10}";
},
{
name = top;
position = "{367, 524}";
}
);
layerId = "47995495-C855-4C5A-BA32-118EA0334940";
paths = (
{
closed = 1;
nodes = (
"210 739 OFFCURVE",
"79 659 OFFCURVE",
"46 522 CURVE",
"151 509 LINE",
"170 589 OFFCURVE",
"254 643 OFFCURVE",
"361 643 CURVE SMOOTH",
"496 643 OFFCURVE",
"581 561 OFFCURVE",
"581 388 CURVE",
"50 388 LINE",
"46 363 OFFCURVE",
"45 346 OFFCURVE",
"45 329 CURVE SMOOTH",
"45 129 OFFCURVE",
"157 -10 OFFCURVE",
"363 -10 CURVE SMOOTH",
"561 -10 OFFCURVE",
"693 120 OFFCURVE",
"693 366 CURVE SMOOTH",
"693 601 OFFCURVE",
"573 739 OFFCURVE",
"367 739 CURVE SMOOTH"
);
},
{
closed = 1;
nodes = (
"254 85 OFFCURVE",
"162 142 OFFCURVE",
"160 301 CURVE",
"581 301 LINE",
"573 164 OFFCURVE",
"492 85 OFFCURVE",
"363 85 CURVE SMOOTH"
);
}
);
width = 738;
}
);
leftMetricsKey = "=O";
rightMetricsKey = "=O";
unicode = 018F;
},
{
color = 3;
glyphname = T;
layers = (
{
anchors = (
{
name = bottom;
position = "{298, 0}";
},
{
name = center;
position = "{298, 365}";
},
{
name = ogonek;
position = "{301, 0}";
},
{
name = top;
position = "{296, 699}";
}
);
layerId = "F114AD5B-DC62-4E73-AD12-1938E40AC8EF";
paths = (
{
closed = 1;
nodes = (
"265 669 LINE",
"265 0 LINE",
"330 0 LINE",
"330 669 LINE",
"598 669 LINE",
"598 729 LINE",
"-6 729 LINE",
"-6 669 LINE"
);
}
);
width = 592;
},
{
anchors = (
{
name = bottom;
position = "{350, 0}";
},
{
name = center;
position = "{350, 365}";
},
{
name = ogonek;
position = "{360, 0}";
},
{
name = top;
position = "{350, 729}";
}
);
layerId = "E787E54A-EE3E-475A-BF02-8501A6DA5144";
paths = (
{
closed = 1;
nodes = (
"253 567 LINE",
"253 0 LINE",
"446 0 LINE",
"446 567 LINE",
"661 567 LINE",
"661 729 LINE",
"38 729 LINE",
"38 567 LINE"
);
}
);
width = 699;
},
{
anchors = (
{
name = bottom;
position = "{311, 0}";
},
{
name = center;
position = "{311, 365}";
},
{
name = ogonek;
position = "{315, 0}";
},
{
name = top;
position = "{309, 708}";
}
);
layerId = "47995495-C855-4C5A-BA32-118EA0334940";
paths = (
{
closed = 1;
nodes = (
"258 637 LINE",
"258 0 LINE",
"363 0 LINE",
"363 637 LINE",
"614 637 LINE",
"614 729 LINE",
"4 729 LINE",
"4 637 LINE"
);
}
);
width = 618;
}
);
leftKerningGroup = T;
rightKerningGroup = T;
rightMetricsKey = "=|";
unicode = 0054;
},
{
color = 3;
glyphname = U;
layers = (
{
anchors = (
{
name = bottom;
position = "{372, 0}";
},
{
name = ogonek;
position = "{417, -6}";
},
{
name = top;
position = "{372, 699}";
},
{
name = topright;
position = "{622, 729}";
}
);
layerId = "F114AD5B-DC62-4E73-AD12-1938E40AC8EF";
paths = (
{
closed = 1;
nodes = (
"78 86 OFFCURVE",
"192 -10 OFFCURVE",
"372 -10 CURVE SMOOTH",
"562 -10 OFFCURVE",
"666 97 OFFCURVE",
"666 257 CURVE SMOOTH",
"666 729 LINE",
"601 729 LINE",
"601 264 LINE SMOOTH",
"601 137 OFFCURVE",
"537 53 OFFCURVE",
"372 53 CURVE SMOOTH",
"235 53 OFFCURVE",
"143 112 OFFCURVE",
"143 264 CURVE SMOOTH",
"143 729 LINE",
"78 729 LINE",
"78 257 LINE SMOOTH"
);
}
);
width = 744;
},
{
anchors = (
{
name = bottom;
position = "{393, 0}";
},
{
name = ogonek;
position = "{538, 11}";
},
{
name = top;
position = "{393, 729}";
},
{
name = topright;
position = "{630, 729}";
}
);
layerId = "E787E54A-EE3E-475A-BF02-8501A6DA5144";
paths = (
{
closed = 1;
nodes = (
"66 89 OFFCURVE",
"186 -10 OFFCURVE",
"391 -10 CURVE SMOOTH",
"610 -10 OFFCURVE",
"719 100 OFFCURVE",
"719 264 CURVE SMOOTH",
"719 729 LINE",
"527 729 LINE",
"527 275 LINE SMOOTH",
"527 201 OFFCURVE",
"484 159 OFFCURVE",
"393 159 CURVE SMOOTH",
"312 159 OFFCURVE",
"258 193 OFFCURVE",
"258 275 CURVE SMOOTH",
"258 729 LINE",
"66 729 LINE",
"66 264 LINE SMOOTH"
);
}
);
width = 785;
},
{
anchors = (
{
name = bottom;
position = "{398, 0}";
},
{
name = ogonek;
position = "{471, 0}";
},
{
name = top;
position = "{398, 708}";
},
{
name = topright;
position = "{644, 729}";
}
);
layerId = "47995495-C855-4C5A-BA32-118EA0334940";
paths = (
{
closed = 1;
nodes = (
"93 87 OFFCURVE",
"209 -10 OFFCURVE",
"396 -10 CURVE SMOOTH",
"595 -10 OFFCURVE",
"701 98 OFFCURVE",
"701 260 CURVE SMOOTH",
"701 729 LINE",
"597 729 LINE",
"597 268 LINE SMOOTH",
"597 157 OFFCURVE",
"539 86 OFFCURVE",
"398 86 CURVE SMOOTH",
"278 86 OFFCURVE",
"198 137 OFFCURVE",
"198 268 CURVE SMOOTH",
"198 729 LINE",
"93 729 LINE",
"93 260 LINE SMOOTH"
);
}
);
width = 794;
}
);
leftKerningGroup = U;
rightKerningGroup = U;
rightMetricsKey = "=|";
unicode = 0055;
},
{
glyphname = Udieresisacute;
layers = (
{
components = (
{
name = U;
}
);
layerId = "F114AD5B-DC62-4E73-AD12-1938E40AC8EF";
paths = (
{
closed = 1;
nodes = (
"475 1003 LINE",
"406 1003 LINE",
"347 918 LINE",
"397 918 LINE",
"475 1001 LINE"
);
},
{
closed = 1;
nodes = (
"307 777 LINE",
"307 891 LINE",
"244 891 LINE",
"244 777 LINE"
);
},
{
closed = 1;
nodes = (
"499 777 LINE",
"499 891 LINE",
"436 891 LINE",
"436 777 LINE"
);
}
);
width = 757;
},
{
components = (
{
name = U;
}
);
layerId = "E787E54A-EE3E-475A-BF02-8501A6DA5144";
paths = (
{
closed = 1;
nodes = (
"556 1031 LINE",
"397 1031 LINE",
"338 931 LINE",
"452 931 LINE",
"556 1027 LINE"
);
},
{
closed = 1;
nodes = (
"348 786 LINE",
"348 900 LINE",
"186 900 LINE",
"186 786 LINE"
);
},
{
closed = 1;
nodes = (
"589 786 LINE",
"589 900 LINE",
"427 900 LINE",
"427 786 LINE"
);
}
);
width = 785;
},
{
components = (
{
alignment = -1;
name = U;
transform = "{1, 0, 0, 1, -10, 0}";
}
);
layerId = "47995495-C855-4C5A-BA32-118EA0334940";
paths = (
{
closed = 1;
nodes = (
"491 1012 LINE",
"394 1012 LINE",
"335 922 LINE",
"405 922 LINE",
"491 1009 LINE"
);
},
{
closed = 1;
nodes = (
"311 780 LINE",
"311 894 LINE",
"217 894 LINE",
"217 780 LINE"
);
},
{
closed = 1;
nodes = (
"517 780 LINE",
"517 894 LINE",
"424 894 LINE",
"424 780 LINE"
);
}
);
width = 772;
}
);
leftKerningGroup = U;
rightKerningGroup = U;
unicode = 01D7;
},
{
glyphname = Udieresiscaron;
layers = (
{
components = (
{
name = U;
}
);
layerId = "F114AD5B-DC62-4E73-AD12-1938E40AC8EF";
paths = (
{
closed = 1;
nodes = (
"235 998 LINE",
"350 918 LINE",
"392 918 LINE",
"507 998 LINE",
"507 1003 LINE",
"437 1003 LINE",
"371 954 LINE",
"305 1003 LINE",
"235 1003 LINE"
);
},
{
closed = 1;
nodes = (
"306 777 LINE",
"306 891 LINE",
"243 891 LINE",
"243 777 LINE"
);
},
{
closed = 1;
nodes = (
"498 777 LINE",
"498 891 LINE",
"435 891 LINE",
"435 777 LINE"
);
}
);
width = 757;
},
{
components = (
{
name = U;
}
);
layerId = "E787E54A-EE3E-475A-BF02-8501A6DA5144";
paths = (
{
closed = 1;
nodes = (
"188 1025 LINE",
"308 931 LINE",
"468 931 LINE",
"588 1025 LINE",
"588 1031 LINE",
"433 1031 LINE",
"388 994 LINE",
"343 1031 LINE",
"188 1031 LINE"
);
},
{
closed = 1;
nodes = (
"348 781 LINE",
"348 895 LINE",
"186 895 LINE",
"186 781 LINE"
);
},
{
closed = 1;
nodes = (
"589 781 LINE",
"589 895 LINE",
"427 895 LINE",
"427 781 LINE"
);
}
);
width = 785;
},
{
components = (
{
alignment = -1;
name = U;
transform = "{1, 0, 0, 1, -10, 0}";
}
);
layerId = "47995495-C855-4C5A-BA32-118EA0334940";
paths = (
{
closed = 1;
nodes = (
"211 1006 LINE",
"328 922 LINE",
"406 922 LINE",
"523 1006 LINE",
"523 1012 LINE",
"426 1012 LINE",
"367 966 LINE",
"308 1012 LINE",
"211 1012 LINE"
);
},
{
closed = 1;
nodes = (
"310 778 LINE",
"310 892 LINE",
"216 892 LINE",
"216 778 LINE"
);
},
{
closed = 1;
nodes = (
"517 778 LINE",
"517 892 LINE",
"424 892 LINE",
"424 778 LINE"
);
}
);
width = 772;
}
);
leftKerningGroup = U;
rightKerningGroup = U;
unicode = 01D9;
},
{
glyphname = Udieresisgrave;
layers = (
{
components = (
{
name = U;
}
);
layerId = "F114AD5B-DC62-4E73-AD12-1938E40AC8EF";
paths = (
{
closed = 1;
nodes = (
"354 918 LINE",
"404 918 LINE",
"345 1003 LINE",
"276 1003 LINE",
"276 1001 LINE"
);
},
{
closed = 1;
nodes = (
"306 777 LINE",
"306 891 LINE",
"243 891 LINE",
"243 777 LINE"
);
},
{
closed = 1;
nodes = (
"498 777 LINE",
"498 891 LINE",
"435 891 LINE",
"435 777 LINE"
);
}
);
width = 757;
},
{
components = (
{
name = U;
}
);
layerId = "E787E54A-EE3E-475A-BF02-8501A6DA5144";
paths = (
{
closed = 1;
nodes = (
"332 931 LINE",
"446 931 LINE",
"387 1031 LINE",
"228 1031 LINE",
"228 1027 LINE"
);
},
{
closed = 1;
nodes = (
"348 781 LINE",
"348 895 LINE",
"186 895 LINE",
"186 781 LINE"
);
},
{
closed = 1;
nodes = (
"589 781 LINE",
"589 895 LINE",
"427 895 LINE",
"427 781 LINE"
);
}
);
width = 785;
},
{
components = (
{
alignment = -1;
name = U;
transform = "{1, 0, 0, 1, -10, 0}";
}
);
layerId = "47995495-C855-4C5A-BA32-118EA0334940";
paths = (
{
closed = 1;
nodes = (
"338 922 LINE",
"408 922 LINE",
"349 1012 LINE",
"252 1012 LINE",
"252 1009 LINE"
);
},
{
closed = 1;
nodes = (
"310 778 LINE",
"310 892 LINE",
"216 892 LINE",
"216 778 LINE"
);
},
{
closed = 1;
nodes = (
"517 778 LINE",
"517 892 LINE",
"424 892 LINE",
"424 778 LINE"
);
}
);
width = 772;
}
);
leftKerningGroup = U;
rightKerningGroup = U;
unicode = 01DB;
},
{
glyphname = Udieresismacron;
layers = (
{
components = (
{
name = U;
}
);
layerId = "F114AD5B-DC62-4E73-AD12-1938E40AC8EF";
paths = (
{
closed = 1;
nodes = (
"492 948 LINE",
"492 993 LINE",
"260 993 LINE",
"260 948 LINE"
);
},
{
closed = 1;
nodes = (
"311 777 LINE",
"311 891 LINE",
"248 891 LINE",
"248 777 LINE"
);
},
{
closed = 1;
nodes = (
"503 777 LINE",
"503 891 LINE",
"440 891 LINE",
"440 777 LINE"
);
}
);
width = 744;
},
{
components = (
{
name = U;
}
);
layerId = "E787E54A-EE3E-475A-BF02-8501A6DA5144";
paths = (
{
closed = 1;
nodes = (
"551 931 LINE",
"551 1030 LINE",
"194 1030 LINE",
"194 931 LINE"
);
},
{
closed = 1;
nodes = (
"340 781 LINE",
"340 895 LINE",
"194 895 LINE",
"194 781 LINE"
);
},
{
closed = 1;
nodes = (
"551 781 LINE",
"551 895 LINE",
"405 895 LINE",
"405 781 LINE"
);
}
);
width = 785;
},
{
components = (
{
name = U;
}
);
layerId = "47995495-C855-4C5A-BA32-118EA0334940";
paths = (
{
closed = 1;
nodes = (
"544 943 LINE",
"544 1005 LINE",
"248 1005 LINE",
"248 943 LINE"
);
},
{
closed = 1;
nodes = (
"340 778 LINE",
"340 892 LINE",
"248 892 LINE",
"248 778 LINE"
);
},
{
closed = 1;
nodes = (
"544 778 LINE",
"544 892 LINE",
"452 892 LINE",
"452 778 LINE"
);
}
);
width = 795;
}
);
leftKerningGroup = U;
rightKerningGroup = U;
unicode = 01D5;
},
{
color = 3;
glyphname = V;
layers = (
{
anchors = (
{
name = bottom;
position = "{323, 0}";
},
{
name = top;
position = "{323, 699}";
}
);
layerId = "F114AD5B-DC62-4E73-AD12-1938E40AC8EF";
paths = (
{
closed = 1;
nodes = (
"-8 729 LINE",
"288 0 LINE",
"363 0 LINE",
"659 729 LINE",
"590 729 LINE",
"411 274 LINE SMOOTH",
"384 206 OFFCURVE",
"356 139 OFFCURVE",
"327 64 CURVE",
"325 64 LINE",
"296 139 OFFCURVE",
"268 206 OFFCURVE",
"241 275 CURVE SMOOTH",
"62 729 LINE"
);
}
);
width = 651;
},
{
anchors = (
{
name = bottom;
position = "{427, 0}";
},
{
name = top;
position = "{427, 729}";
}
);
layerId = "E787E54A-EE3E-475A-BF02-8501A6DA5144";
paths = (
{
closed = 1;
nodes = (
"31 729 LINE",
"300 0 LINE",
"508 0 LINE",
"776 729 LINE",
"578 729 LINE",
"468 403 LINE SMOOTH",
"440 320 OFFCURVE",
"413 251 OFFCURVE",
"405 217 CURVE",
"403 217 LINE",
"393 256 OFFCURVE",
"365 336 OFFCURVE",
"343 404 CURVE SMOOTH",
"236 729 LINE"
);
}
);
width = 807;
},
{
anchors = (
{
name = bottom;
position = "{370, 0}";
},
{
name = top;
position = "{370, 708}";
}
);
layerId = "47995495-C855-4C5A-BA32-118EA0334940";
paths = (
{
closed = 1;
nodes = (
"19 729 LINE",
"307 0 LINE",
"423 0 LINE",
"710 729 LINE",
"601 729 LINE",
"443 314 LINE SMOOTH",
"416 242 OFFCURVE",
"388 174 OFFCURVE",
"366 112 CURVE",
"364 112 LINE",
"341 175 OFFCURVE",
"290 311 OFFCURVE",
"288 315 CURVE SMOOTH",
"131 729 LINE"
);
}
);
width = 729;
}
);
leftKerningGroup = V;
rightKerningGroup = V;
rightMetricsKey = "=|";
unicode = 0056;
},
{
color = 3;
glyphname = W;
layers = (
{
anchors = (
{
name = bottom;
position = "{439, 0}";
},
{
name = top;
position = "{439, 692}";
}
);
layerId = "F114AD5B-DC62-4E73-AD12-1938E40AC8EF";
paths = (
{
closed = 1;
nodes = (
"193 0 LINE",
"262 0 LINE",
"391 461 LINE SMOOTH",
"409 524 OFFCURVE",
"426 594 OFFCURVE",
"439 654 CURVE",
"441 654 LINE",
"455 594 OFFCURVE",
"472 524 OFFCURVE",
"489 461 CURVE SMOOTH",
"615 0 LINE",
"680 0 LINE",
"881 729 LINE",
"815 729 LINE",
"684 238 LINE SMOOTH",
"674 199 OFFCURVE",
"658 129 OFFCURVE",
"650 84 CURVE",
"648 84 LINE",
"632 162 OFFCURVE",
"612 242 OFFCURVE",
"597 294 CURVE SMOOTH",
"475 729 LINE",
"405 729 LINE",
"284 294 LINE SMOOTH",
"268 239 OFFCURVE",
"248 164 OFFCURVE",
"231 84 CURVE",
"229 84 LINE",
"220 135 OFFCURVE",
"205 199 OFFCURVE",
"195 238 CURVE SMOOTH",
"65 729 LINE",
"0 729 LINE"
);
}
);
width = 881;
},
{
anchors = (
{
name = bottom;
position = "{509, 0}";
},
{
name = top;
position = "{509, 729}";
}
);
layerId = "E787E54A-EE3E-475A-BF02-8501A6DA5144";
paths = (
{
closed = 1;
nodes = (
"218 0 LINE",
"416 0 LINE",
"467 228 LINE SMOOTH",
"479 283 OFFCURVE",
"494 367 OFFCURVE",
"506 451 CURVE",
"509 451 LINE",
"521 367 OFFCURVE",
"536 281 OFFCURVE",
"548 228 CURVE SMOOTH",
"601 0 LINE",
"796 0 LINE",
"981 729 LINE",
"785 729 LINE",
"726 454 LINE SMOOTH",
"712 386 OFFCURVE",
"700 315 OFFCURVE",
"695 276 CURVE",
"692 276 LINE",
"683 334 OFFCURVE",
"668 420 OFFCURVE",
"644 521 CURVE SMOOTH",
"594 729 LINE",
"420 729 LINE",
"371 521 LINE SMOOTH",
"352 441 OFFCURVE",
"335 352 OFFCURVE",
"321 276 CURVE",
"318 276 LINE",
"313 323 OFFCURVE",
"302 394 OFFCURVE",
"289 454 CURVE SMOOTH",
"229 729 LINE",
"34 729 LINE"
);
}
);
width = 1015;
},
{
anchors = (
{
name = bottom;
position = "{465, 0}";
},
{
name = top;
position = "{465, 704}";
}
);
layerId = "47995495-C855-4C5A-BA32-118EA0334940";
paths = (
{
closed = 1;
nodes = (
"201 0 LINE",
"315 0 LINE",
"428 430 LINE SMOOTH",
"440 475 OFFCURVE",
"455 544 OFFCURVE",
"463 588 CURVE",
"465 588 LINE",
"473 547 OFFCURVE",
"486 489 OFFCURVE",
"501 430 CURVE SMOOTH",
"612 0 LINE",
"723 0 LINE",
"918 729 LINE",
"810 729 LINE",
"702 311 LINE SMOOTH",
"691 268 OFFCURVE",
"669 152 OFFCURVE",
"668 150 CURVE",
"666 150 LINE",
"655 207 OFFCURVE",
"631 307 OFFCURVE",
"612 379 CURVE SMOOTH",
"518 729 LINE",
"411 729 LINE",
"317 379 LINE SMOOTH",
"300 316 OFFCURVE",
"280 233 OFFCURVE",
"261 150 CURVE",
"259 150 LINE",
"250 201 OFFCURVE",
"238 263 OFFCURVE",
"226 310 CURVE SMOOTH",
"118 729 LINE",
"12 729 LINE"
);
}
);
width = 930;
}
);
leftKerningGroup = W;
rightKerningGroup = W;
rightMetricsKey = "=|";
unicode = 0057;
},
{
color = 3;
glyphname = X;
layers = (
{
anchors = (
{
name = bottom;
position = "{279, 0}";
},
{
name = top;
position = "{279, 699}";
}
);
layerId = "F114AD5B-DC62-4E73-AD12-1938E40AC8EF";
paths = (
{
closed = 1;
nodes = (
"59 0 LINE",
"144 122 LINE SMOOTH",
"189 186 OFFCURVE",
"234 251 OFFCURVE",
"279 319 CURVE",
"281 319 LINE",
"325 251 OFFCURVE",
"368 187 OFFCURVE",
"412 123 CURVE SMOOTH",
"496 0 LINE",
"568 0 LINE",
"322 366 LINE",
"571 729 LINE",
"499 729 LINE",
"421 614 LINE SMOOTH",
"375 548 OFFCURVE",
"331 480 OFFCURVE",
"285 411 CURVE",
"283 411 LINE",
"238 480 OFFCURVE",
"195 548 OFFCURVE",
"150 614 CURVE SMOOTH",
"73 729 LINE",
"1 729 LINE",
"240 371 LINE",
"-14 0 LINE"
);
}
);
width = 557;
},
{
anchors = (
{
name = bottom;
position = "{399, 0}";
},
{
name = top;
position = "{399, 729}";
}
);
layerId = "E787E54A-EE3E-475A-BF02-8501A6DA5144";
paths = (
{
closed = 1;
nodes = (
"247 0 LINE",
"300 82 LINE SMOOTH",
"333 131 OFFCURVE",
"365 182 OFFCURVE",
"398 239 CURVE",
"400 239 LINE",
"433 182 OFFCURVE",
"465 131 OFFCURVE",
"498 82 CURVE SMOOTH",
"551 0 LINE",
"771 0 LINE",
"522 370 LINE",
"758 729 LINE",
"541 729 LINE",
"488 642 LINE SMOOTH",
"461 597 OFFCURVE",
"432 552 OFFCURVE",
"405 499 CURVE",
"401 499 LINE",
"374 552 OFFCURVE",
"345 597 OFFCURVE",
"318 642 CURVE SMOOTH",
"265 729 LINE",
"44 729 LINE",
"280 368 LINE",
"31 0 LINE"
);
}
);
width = 802;
},
{
anchors = (
{
name = bottom;
position = "{324, 0}";
},
{
name = top;
position = "{324, 708}";
}
);
layerId = "47995495-C855-4C5A-BA32-118EA0334940";
paths = (
{
closed = 1;
nodes = (
"125 0 LINE",
"201 110 LINE SMOOTH",
"242 169 OFFCURVE",
"290 242 OFFCURVE",
"324 294 CURVE",
"326 294 LINE",
"366 230 OFFCURVE",
"397 183 OFFCURVE",
"446 110 CURVE SMOOTH",
"521 0 LINE",
"639 0 LINE",
"392 367 LINE",
"637 729 LINE",
"520 729 LINE",
"450 623 LINE SMOOTH",
"412 566 OFFCURVE",
"375 510 OFFCURVE",
"330 439 CURVE",
"328 439 LINE",
"280 516 OFFCURVE",
"217 612 OFFCURVE",
"210 623 CURVE SMOOTH",
"140 729 LINE",
"22 729 LINE",
"261 370 LINE",
"8 0 LINE"
);
}
);
width = 647;
}
);
leftKerningGroup = X;
rightKerningGroup = X;
rightMetricsKey = "=|";
unicode = 0058;
},
{
color = 3;
glyphname = Y;
layers = (
{
anchors = (
{
name = bottom;
position = "{308, 0}";
},
{
name = top;
position = "{308, 699}";
},
{
name = topleft;
position = "{-7, 729}";
}
);
layerId = "F114AD5B-DC62-4E73-AD12-1938E40AC8EF";
paths = (
{
closed = 1;
nodes = (
"275 321 LINE",
"275 0 LINE",
"340 0 LINE",
"340 321 LINE",
"627 729 LINE",
"553 729 LINE",
"493 644 LINE SMOOTH",
"431 557 OFFCURVE",
"371 468 OFFCURVE",
"309 379 CURVE",
"307 379 LINE",
"245 468 OFFCURVE",
"185 557 OFFCURVE",
"123 644 CURVE SMOOTH",
"64 729 LINE",
"-12 729 LINE"
);
}
);
width = 615;
},
{
anchors = (
{
name = bottom;
position = "{383, 0}";
},
{
name = top;
position = "{386, 729}";
},
{
name = topleft;
position = "{34, 729}";
}
);
layerId = "E787E54A-EE3E-475A-BF02-8501A6DA5144";
paths = (
{
closed = 1;
nodes = (
"286 254 LINE",
"286 0 LINE",
"479 0 LINE",
"479 254 LINE",
"736 729 LINE",
"520 729 LINE",
"466 614 LINE SMOOTH",
"441 562 OFFCURVE",
"415 511 OFFCURVE",
"386 439 CURVE",
"384 439 LINE",
"355 510 OFFCURVE",
"329 562 OFFCURVE",
"305 613 CURVE SMOOTH",
"251 729 LINE",
"29 729 LINE"
);
}
);
width = 765;
},
{
anchors = (
{
name = bottom;
position = "{343, 0}";
},
{
name = top;
position = "{344, 708}";
},
{
name = topleft;
position = "{17, 729}";
}
);
layerId = "47995495-C855-4C5A-BA32-118EA0334940";
paths = (
{
closed = 1;
nodes = (
"290 300 LINE",
"290 0 LINE",
"394 0 LINE",
"394 300 LINE",
"672 729 LINE",
"554 729 LINE",
"495 635 LINE SMOOTH",
"444 555 OFFCURVE",
"396 481 OFFCURVE",
"344 398 CURVE",
"342 398 LINE",
"294 476 OFFCURVE",
"194 630 OFFCURVE",
"191 635 CURVE SMOOTH",
"133 729 LINE",
"12 729 LINE"
);
}
);
width = 684;
}
);
leftKerningGroup = Y;
rightKerningGroup = Y;
rightMetricsKey = "=|";
unicode = 0059;
},
{
color = 3;
glyphname = Z;
layers = (
{
anchors = (
{
name = bottom;
position = "{325, 0}";
},
{
name = center;
position = "{325, 365}";
},
{
name = top;
position = "{325, 699}";
}
);
layerId = "F114AD5B-DC62-4E73-AD12-1938E40AC8EF";
paths = (
{
closed = 1;
nodes = (
"633 0 LINE",
"633 64 LINE",
"110 64 LINE",
"110 66 LINE",
"617 677 LINE",
"617 729 LINE",
"31 729 LINE",
"31 666 LINE",
"523 666 LINE",
"523 662 LINE",
"16 52 LINE",
"16 0 LINE"
);
}
);
width = 649;
},
{
anchors = (
{
name = bottom;
position = "{356, 0}";
},
{
name = center;
position = "{356, 365}";
},
{
name = top;
position = "{356, 729}";
}
);
layerId = "E787E54A-EE3E-475A-BF02-8501A6DA5144";
paths = (
{
closed = 1;
nodes = (
"664 0 LINE",
"664 162 LINE",
"302 162 LINE",
"302 167 LINE",
"650 574 LINE",
"650 729 LINE",
"63 729 LINE",
"63 567 LINE",
"389 567 LINE",
"389 563 LINE",
"50 157 LINE",
"50 0 LINE"
);
}
);
width = 713;
},
{
anchors = (
{
name = bottom;
position = "{356, 0}";
},
{
name = center;
position = "{356, 365}";
},
{
name = top;
position = "{356, 708}";
}
);
layerId = "47995495-C855-4C5A-BA32-118EA0334940";
paths = (
{
closed = 1;
nodes = (
"664 0 LINE",
"664 95 LINE",
"191 95 LINE",
"191 98 LINE",
"649 645 LINE",
"649 729 LINE",
"62 729 LINE",
"62 635 LINE",
"503 635 LINE",
"503 631 LINE",
"48 85 LINE",
"48 0 LINE"
);
}
);
width = 713;
}
);
leftKerningGroup = Z;
rightKerningGroup = Z;
unicode = 005A;
},
{
color = 3;
glyphname = Q.SS02;
layers = (
{
anchors = (
{
name = bottom;
position = "{382, 0}";
},
{
name = center;
position = "{373, 365}";
},
{
name = ogonek;
position = "{678, 10}";
},
{
name = top;
position = "{382, 729}";
},
{
name = topleft;
position = "{11, 729}";
},
{
name = topright;
position = "{471, 729}";
}
);
layerId = "F114AD5B-DC62-4E73-AD12-1938E40AC8EF";
paths = (
{
closed = 1;
nodes = (
"41 140 OFFCURVE",
"160 -10 OFFCURVE",
"372 -10 CURVE",
"668 -137 LINE",
"692 -76 LINE",
"631 -52 LINE SMOOTH",
"546 -19 OFFCURVE",
"470 5 OFFCURVE",
"443 9 CURVE",
"447 3 LINE",
"605 30 OFFCURVE",
"704 154 OFFCURVE",
"704 365 CURVE SMOOTH",
"704 589 OFFCURVE",
"584 738 OFFCURVE",
"372 738 CURVE SMOOTH",
"173 738 OFFCURVE",
"41 603 OFFCURVE",
"41 364 CURVE SMOOTH"
);
},
{
closed = 1;
nodes = (
"110 565 OFFCURVE",
"204 677 OFFCURVE",
"372 677 CURVE SMOOTH",
"540 677 OFFCURVE",
"635 564 OFFCURVE",
"635 364 CURVE SMOOTH",
"635 165 OFFCURVE",
"540 53 OFFCURVE",
"372 53 CURVE SMOOTH",
"204 53 OFFCURVE",
"110 165 OFFCURVE",
"110 365 CURVE SMOOTH"
);
}
);
width = 745;
},
{
anchors = (
{
name = bottom;
position = "{395, 0}";
},
{
name = center;
position = "{395, 365}";
},
{
name = ogonek;
position = "{705, 10}";
},
{
name = top;
position = "{395, 729}";
},
{
name = topleft;
position = "{26, 729}";
},
{
name = topright;
position = "{534, 729}";
}
);
layerId = "E787E54A-EE3E-475A-BF02-8501A6DA5144";
paths = (
{
closed = 1;
nodes = (
"46 110 OFFCURVE",
"185 -10 OFFCURVE",
"394 -10 CURVE",
"698 -139 LINE",
"759 17 LINE",
"724 30 LINE SMOOTH",
"540 98 OFFCURVE",
"461 64 OFFCURVE",
"358 41 CURVE",
"482 35 LINE",
"650 45 OFFCURVE",
"743 200 OFFCURVE",
"743 365 CURVE SMOOTH",
"743 619 OFFCURVE",
"603 738 OFFCURVE",
"394 738 CURVE SMOOTH",
"158 738 OFFCURVE",
"46 589 OFFCURVE",
"46 365 CURVE SMOOTH"
);
},
{
closed = 1;
nodes = (
"250 510 OFFCURVE",
"308 567 OFFCURVE",
"394 567 CURVE SMOOTH",
"499 567 OFFCURVE",
"540 486 OFFCURVE",
"540 365 CURVE SMOOTH",
"540 218 OFFCURVE",
"482 161 OFFCURVE",
"394 161 CURVE SMOOTH",
"290 161 OFFCURVE",
"250 243 OFFCURVE",
"250 365 CURVE SMOOTH"
);
}
);
width = 802;
},
{
anchors = (
{
name = bottom;
position = "{372, 0}";
},
{
name = center;
position = "{382, 365}";
},
{
name = ogonek;
position = "{689, 10}";
},
{
name = top;
position = "{372, 729}";
},
{
name = topleft;
position = "{18, 729}";
},
{
name = topright;
position = "{493, 729}";
}
);
layerId = "47995495-C855-4C5A-BA32-118EA0334940";
paths = (
{
closed = 1;
nodes = (
"45 131 OFFCURVE",
"171 -10 OFFCURVE",
"381 -10 CURVE",
"675 -135 LINE",
"712 -42 LINE",
"670 -24 LINE SMOOTH",
"591 9 OFFCURVE",
"514 22 OFFCURVE",
"463 25 CURVE",
"495 21 LINE",
"636 55 OFFCURVE",
"719 184 OFFCURVE",
"719 365 CURVE SMOOTH",
"719 598 OFFCURVE",
"592 738 OFFCURVE",
"381 738 CURVE SMOOTH",
"171 738 OFFCURVE",
"45 599 OFFCURVE",
"45 364 CURVE SMOOTH"
);
},
{
closed = 1;
nodes = (
"155 548 OFFCURVE",
"239 643 OFFCURVE",
"381 643 CURVE SMOOTH",
"529 643 OFFCURVE",
"608 540 OFFCURVE",
"608 364 CURVE SMOOTH",
"608 181 OFFCURVE",
"524 86 OFFCURVE",
"381 86 CURVE SMOOTH",
"233 86 OFFCURVE",
"155 190 OFFCURVE",
"155 365 CURVE SMOOTH"
);
}
);
width = 736;
}
);
leftKerningGroup = C;
leftMetricsKey = "=O";
rightKerningGroup = O;
},
{
glyphname = Adieresis.ss02;
layers = (
{
anchors = (
{
name = _top;
position = "{357, 699}";
}
);
components = (
{
name = A;
}
);
layerId = "F114AD5B-DC62-4E73-AD12-1938E40AC8EF";
paths = (
{
closed = 1;
nodes = (
"169 595 LINE",
"169 729 LINE",
"106 729 LINE",
"106 595 LINE"
);
},
{
closed = 1;
nodes = (
"609 595 LINE",
"609 729 LINE",
"546 729 LINE",
"546 595 LINE"
);
}
);
width = 713;
},
{
anchors = (
{
name = _top;
position = "{424, 729}";
}
);
components = (
{
name = A;
transform = "{1, 0, 0, 1, 29, 0}";
}
);
layerId = "E787E54A-EE3E-475A-BF02-8501A6DA5144";
paths = (
{
closed = 1;
nodes = (
"214 565 LINE",
"214 729 LINE",
"52 729 LINE",
"52 565 LINE"
);
},
{
closed = 1;
nodes = (
"795 565 LINE",
"795 729 LINE",
"633 729 LINE",
"633 565 LINE"
);
}
);
width = 850;
},
{
anchors = (
{
name = _top;
position = "{375, 708}";
}
);
components = (
{
alignment = -1;
name = A;
}
);
layerId = "47995495-C855-4C5A-BA32-118EA0334940";
paths = (
{
closed = 1;
nodes = (
"184 586 LINE",
"184 729 LINE",
"90 729 LINE",
"90 586 LINE"
);
},
{
closed = 1;
nodes = (
"658 586 LINE",
"658 729 LINE",
"565 729 LINE",
"565 586 LINE"
);
}
);
width = 746;
}
);
leftKerningGroup = A;
rightKerningGroup = A;
},
{
glyphname = Amacron.ss02;
layers = (
{
anchors = (
{
name = _top;
position = "{358, 699}";
}
);
components = (
{
alignment = -1;
name = A;
}
);
layerId = "F114AD5B-DC62-4E73-AD12-1938E40AC8EF";
paths = (
{
closed = 1;
nodes = (
"654 669 LINE",
"654 729 LINE",
"62 729 LINE",
"62 669 LINE"
);
}
);
width = 717;
},
{
anchors = (
{
name = _top;
position = "{414, 729}";
}
);
components = (
{
name = A;
transform = "{1, 0, 0, 1, 19, 0}";
}
);
layerId = "E787E54A-EE3E-475A-BF02-8501A6DA5144";
paths = (
{
closed = 1;
nodes = (
"744 565 LINE",
"744 729 LINE",
"83 729 LINE",
"83 565 LINE"
);
}
);
width = 830;
},
{
anchors = (
{
name = _top;
position = "{376, 708}";
}
);
components = (
{
alignment = -1;
name = A;
}
);
layerId = "47995495-C855-4C5A-BA32-118EA0334940";
paths = (
{
closed = 1;
nodes = (
"655 637 LINE",
"655 729 LINE",
"95 729 LINE",
"95 637 LINE"
);
}
);
width = 746;
}
);
leftKerningGroup = A;
rightKerningGroup = A;
},
{
glyphname = R.ss02;
layers = (
{
anchors = (
{
name = bottom;
position = "{337, 0}";
},
{
name = top;
position = "{297, 729}";
}
);
background = {
paths = (
{
closed = 1;
nodes = (
"151 0 LINE",
"151 340 LINE",
"437 340 LINE SMOOTH",
"521 340 OFFCURVE",
"563 303 OFFCURVE",
"563 218 CURVE SMOOTH",
"563 92 LINE SMOOTH",
"563 35 OFFCURVE",
"569 11 OFFCURVE",
"576 0 CURVE",
"649 0 LINE",
"649 9 LINE",
"641 14 OFFCURVE",
"628 28 OFFCURVE",
"628 69 CURVE SMOOTH",
"628 226 LINE SMOOTH",
"628 308 OFFCURVE",
"589 348 OFFCURVE",
"530 368 CURVE",
"530 370 LINE",
"599 397 OFFCURVE",
"644 461 OFFCURVE",
"644 539 CURVE SMOOTH",
"644 653 OFFCURVE",
"569 729 OFFCURVE",
"425 729 CURVE SMOOTH",
"86 729 LINE",
"86 0 LINE"
);
},
{
closed = 1;
nodes = (
"151 669 LINE",
"411 669 LINE SMOOTH",
"517 669 OFFCURVE",
"576 626 OFFCURVE",
"576 535 CURVE SMOOTH",
"576 447 OFFCURVE",
"523 398 OFFCURVE",
"411 398 CURVE SMOOTH",
"151 398 LINE"
);
}
);
};
layerId = "F114AD5B-DC62-4E73-AD12-1938E40AC8EF";
paths = (
{
closed = 1;
nodes = (
"151 0 LINE",
"151 344 LINE",
"402 344 LINE",
"570 0 LINE",
"643 0 LINE",
"463 373 LINE",
"437 345 LINE",
"564 355 OFFCURVE",
"644 423 OFFCURVE",
"644 538 CURVE SMOOTH",
"644 660 OFFCURVE",
"556 729 OFFCURVE",
"425 729 CURVE SMOOTH",
"86 729 LINE",
"86 0 LINE"
);
},
{
closed = 1;
nodes = (
"151 668 LINE",
"411 668 LINE SMOOTH",
"510 668 OFFCURVE",
"576 629 OFFCURVE",
"576 535 CURVE SMOOTH",
"576 451 OFFCURVE",
"523 398 OFFCURVE",
"411 398 CURVE SMOOTH",
"151 398 LINE"
);
}
);
width = 705;
},
{
anchors = (
{
name = bottom;
position = "{398, 0}";
},
{
name = top;
position = "{334, 729}";
}
);
background = {
paths = (
{
closed = 1;
nodes = (
"271 0 LINE",
"271 259 LINE",
"422 259 LINE SMOOTH",
"478 259 OFFCURVE",
"505 230 OFFCURVE",
"505 178 CURVE SMOOTH",
"505 90 LINE SMOOTH",
"505 53 OFFCURVE",
"508 17 OFFCURVE",
"521 0 CURVE",
"728 0 LINE",
"728 27 LINE",
"710 28 OFFCURVE",
"697 47 OFFCURVE",
"697 80 CURVE SMOOTH",
"697 188 LINE SMOOTH",
"697 270 OFFCURVE",
"653 317 OFFCURVE",
"586 334 CURVE",
"586 337 LINE",
"659 362 OFFCURVE",
"707 433 OFFCURVE",
"707 515 CURVE SMOOTH",
"707 652 OFFCURVE",
"611 729 OFFCURVE",
"467 729 CURVE SMOOTH",
"78 729 LINE",
"78 0 LINE"
);
},
{
closed = 1;
nodes = (
"271 567 LINE",
"410 567 LINE SMOOTH",
"476 567 OFFCURVE",
"501 534 OFFCURVE",
"501 485 CURVE SMOOTH",
"501 426 OFFCURVE",
"465 403 OFFCURVE",
"410 403 CURVE SMOOTH",
"271 403 LINE"
);
}
);
};
layerId = "E787E54A-EE3E-475A-BF02-8501A6DA5144";
paths = (
{
closed = 1;
nodes = (
"271 0 LINE",
"271 249 LINE",
"375 249 LINE",
"494 0 LINE",
"729 0 LINE",
"535 369 LINE",
"474 267 LINE",
"617 276 OFFCURVE",
"711 361 OFFCURVE",
"711 498 CURVE SMOOTH",
"711 637 OFFCURVE",
"624 729 OFFCURVE",
"438 729 CURVE SMOOTH",
"78 729 LINE",
"78 0 LINE"
);
},
{
closed = 1;
nodes = (
"271 561 LINE",
"410 561 LINE SMOOTH",
"465 561 OFFCURVE",
"501 539 OFFCURVE",
"501 482 CURVE SMOOTH",
"501 435 OFFCURVE",
"476 403 OFFCURVE",
"410 403 CURVE SMOOTH",
"271 403 LINE"
);
}
);
width = 777;
},
{
anchors = (
{
name = bottom;
position = "{372, 0}";
},
{
name = top;
position = "{325, 729}";
}
);
background = {
paths = (
{
closed = 1;
nodes = (
"198 0 LINE",
"198 321 LINE",
"453 321 LINE SMOOTH",
"530 321 OFFCURVE",
"569 286 OFFCURVE",
"569 209 CURVE SMOOTH",
"569 92 LINE SMOOTH",
"569 39 OFFCURVE",
"574 12 OFFCURVE",
"583 0 CURVE",
"687 0 LINE",
"687 13 LINE",
"677 17 OFFCURVE",
"664 32 OFFCURVE",
"664 72 CURVE SMOOTH",
"664 217 LINE SMOOTH",
"664 299 OFFCURVE",
"623 341 OFFCURVE",
"562 360 CURVE",
"562 362 LINE",
"632 389 OFFCURVE",
"678 454 OFFCURVE",
"678 533 CURVE SMOOTH",
"678 653 OFFCURVE",
"598 729 OFFCURVE",
"454 729 CURVE SMOOTH",
"104 729 LINE",
"104 0 LINE"
);
},
{
closed = 1;
nodes = (
"198 645 LINE",
"430 645 LINE SMOOTH",
"527 645 OFFCURVE",
"578 605 OFFCURVE",
"578 523 CURVE SMOOTH",
"578 442 OFFCURVE",
"529 399 OFFCURVE",
"430 399 CURVE SMOOTH",
"198 399 LINE"
);
}
);
};
layerId = "47995495-C855-4C5A-BA32-118EA0334940";
paths = (
{
closed = 1;
nodes = (
"205 0 LINE",
"205 312 LINE",
"418 312 LINE",
"570 0 LINE",
"690 0 LINE",
"508 365 LINE",
"457 317 LINE",
"600 327 OFFCURVE",
"682 406 OFFCURVE",
"682 526 CURVE SMOOTH",
"682 650 OFFCURVE",
"597 729 OFFCURVE",
"449 729 CURVE SMOOTH",
"100 729 LINE",
"100 0 LINE"
);
},
{
closed = 1;
nodes = (
"205 636 LINE",
"435 636 LINE SMOOTH",
"525 636 OFFCURVE",
"568 589 OFFCURVE",
"568 518 CURVE SMOOTH",
"568 439 OFFCURVE",
"516 400 OFFCURVE",
"435 400 CURVE SMOOTH",
"205 400 LINE"
);
}
);
width = 748;
}
);
leftKerningGroup = B;
leftMetricsKey = "=R";
rightKerningGroup = R;
rightMetricsKey = "=R";
},
{
color = 1;
glyphname = R.ss03;
layers = (
{
anchors = (
{
name = bottom;
position = "{432, 0}";
},
{
name = top;
position = "{406, 729}";
}
);
layerId = "F114AD5B-DC62-4E73-AD12-1938E40AC8EF";
paths = (
{
closed = 1;
nodes = (
"58 664 LINE",
"378 664 LINE",
"378 177 LINE SMOOTH",
"378 110 OFFCURVE",
"331 65 OFFCURVE",
"249 65 CURVE SMOOTH",
"145 65 LINE SMOOTH",
"101 65 OFFCURVE",
"79 65 OFFCURVE",
"58 65 CURVE",
"58 0 LINE",
"83 0 OFFCURVE",
"111 0 OFFCURVE",
"135 0 CURVE SMOOTH",
"267 0 LINE SMOOTH",
"345 0 OFFCURVE",
"403 45 OFFCURVE",
"411 112 CURVE",
"435 29 OFFCURVE",
"508 -16 OFFCURVE",
"590 -16 CURVE SMOOTH",
"714 -16 OFFCURVE",
"787 68 OFFCURVE",
"787 203 CURVE SMOOTH",
"787 729 LINE",
"58 729 LINE"
);
},
{
closed = 1;
nodes = (
"727 664 LINE",
"727 227 LINE SMOOTH",
"727 122 OFFCURVE",
"687 52 OFFCURVE",
"583 52 CURVE SMOOTH",
"495 52 OFFCURVE",
"436 101 OFFCURVE",
"436 227 CURVE SMOOTH",
"436 664 LINE"
);
}
);
width = 865;
},
{
anchors = (
{
name = bottom;
position = "{445, 0}";
},
{
name = top;
position = "{449, 729}";
}
);
layerId = "E787E54A-EE3E-475A-BF02-8501A6DA5144";
paths = (
{
closed = 1;
nodes = (
"59 526 LINE",
"310 526 LINE",
"310 306 LINE SMOOTH",
"310 247 OFFCURVE",
"272 203 OFFCURVE",
"214 203 CURVE SMOOTH",
"149 203 LINE SMOOTH",
"105 203 OFFCURVE",
"76 203 OFFCURVE",
"59 203 CURVE",
"59 0 LINE",
"89 0 OFFCURVE",
"121 0 OFFCURVE",
"151 0 CURVE SMOOTH",
"246 0 LINE SMOOTH",
"321 0 OFFCURVE",
"381 49 OFFCURVE",
"397 122 CURVE",
"421 43 OFFCURVE",
"477 -10 OFFCURVE",
"582 -10 CURVE SMOOTH",
"706 -10 OFFCURVE",
"788 78 OFFCURVE",
"788 225 CURVE SMOOTH",
"788 729 LINE",
"59 729 LINE"
);
},
{
closed = 1;
nodes = (
"616 526 LINE",
"616 290 LINE SMOOTH",
"616 238 OFFCURVE",
"593 206 OFFCURVE",
"543 206 CURVE SMOOTH",
"499 206 OFFCURVE",
"470 235 OFFCURVE",
"470 297 CURVE SMOOTH",
"470 526 LINE"
);
}
);
width = 857;
},
{
anchors = (
{
name = bottom;
position = "{436, 0}";
},
{
name = top;
position = "{419, 729}";
}
);
layerId = "47995495-C855-4C5A-BA32-118EA0334940";
paths = (
{
closed = 1;
nodes = (
"59 621 LINE",
"357 621 LINE",
"357 217 LINE SMOOTH",
"357 153 OFFCURVE",
"314 108 OFFCURVE",
"238 108 CURVE SMOOTH",
"146 108 LINE SMOOTH",
"102 108 OFFCURVE",
"79 108 OFFCURVE",
"59 108 CURVE",
"59 0 LINE",
"85 0 OFFCURVE",
"115 0 OFFCURVE",
"140 0 CURVE SMOOTH",
"260 0 LINE SMOOTH",
"338 0 OFFCURVE",
"396 46 OFFCURVE",
"407 115 CURVE",
"431 33 OFFCURVE",
"499 -15 OFFCURVE",
"587 -15 CURVE SMOOTH",
"711 -15 OFFCURVE",
"788 71 OFFCURVE",
"788 210 CURVE SMOOTH",
"788 729 LINE",
"59 729 LINE"
);
},
{
closed = 1;
nodes = (
"693 621 LINE",
"693 247 LINE SMOOTH",
"693 159 OFFCURVE",
"658 100 OFFCURVE",
"571 100 CURVE SMOOTH",
"497 100 OFFCURVE",
"447 142 OFFCURVE",
"447 248 CURVE SMOOTH",
"447 621 LINE"
);
}
);
width = 866;
}
);
leftKerningGroup = B;
rightKerningGroup = R;
},
{
color = 3;
glyphname = R.ss05;
layers = (
{
anchors = (
{
name = bottom;
position = "{348, 0}";
},
{
name = top;
position = "{348, 699}";
}
);
layerId = "F114AD5B-DC62-4E73-AD12-1938E40AC8EF";
paths = (
{
closed = 1;
nodes = (
"151 0 LINE",
"151 340 LINE",
"437 340 LINE SMOOTH",
"521 340 OFFCURVE",
"563 308 OFFCURVE",
"563 214 CURVE SMOOTH",
"563 0 LINE",
"628 0 LINE",
"628 227 LINE SMOOTH",
"628 298 OFFCURVE",
"601 347 OFFCURVE",
"530 368 CURVE",
"530 370 LINE",
"599 397 OFFCURVE",
"644 461 OFFCURVE",
"644 539 CURVE SMOOTH",
"644 653 OFFCURVE",
"569 729 OFFCURVE",
"425 729 CURVE SMOOTH",
"86 729 LINE",
"86 0 LINE"
);
},
{
closed = 1;
nodes = (
"151 669 LINE",
"411 669 LINE SMOOTH",
"517 669 OFFCURVE",
"576 626 OFFCURVE",
"576 535 CURVE SMOOTH",
"576 447 OFFCURVE",
"523 398 OFFCURVE",
"411 398 CURVE SMOOTH",
"151 398 LINE"
);
}
);
width = 710;
},
{
anchors = (
{
name = bottom;
position = "{370, 0}";
},
{
name = top;
position = "{370, 729}";
}
);
hints = (
{
horizontal = 1;
place = "{27, -27}";
type = Stem;
},
{
horizontal = 1;
origin = "{1, 8}";
target = "{0, 1}";
type = Stem;
},
{
horizontal = 1;
origin = "{0, 19}";
target = "{1, 0}";
type = Stem;
},
{
origin = "{0, 20}";
target = "{0, 0}";
type = Stem;
},
{
origin = "{0, 6}";
target = "{0, 7}";
type = Stem;
},
{
origin = "{1, 4}";
target = "{0, 15}";
type = Stem;
}
);
layerId = "E787E54A-EE3E-475A-BF02-8501A6DA5144";
paths = (
{
closed = 1;
nodes = (
"271 0 LINE",
"271 249 LINE",
"430 249 LINE SMOOTH",
"479 249 OFFCURVE",
"505 227 OFFCURVE",
"505 174 CURVE SMOOTH",
"505 0 LINE",
"697 0 LINE",
"697 195 LINE SMOOTH",
"697 286 OFFCURVE",
"645 352 OFFCURVE",
"509 338 CURVE",
"568 324 LINE",
"651 346 OFFCURVE",
"702 421 OFFCURVE",
"702 510 CURVE SMOOTH",
"702 643 OFFCURVE",
"611 729 OFFCURVE",
"436 729 CURVE SMOOTH",
"78 729 LINE",
"78 0 LINE"
);
},
{
closed = 1;
nodes = (
"271 567 LINE",
"412 567 LINE SMOOTH",
"463 567 OFFCURVE",
"501 541 OFFCURVE",
"501 485 CURVE SMOOTH",
"501 436 OFFCURVE",
"469 403 OFFCURVE",
"409 403 CURVE SMOOTH",
"271 403 LINE"
);
}
);
width = 759;
},
{
anchors = (
{
name = bottom;
position = "{371, 0}";
},
{
name = top;
position = "{371, 708}";
}
);
layerId = "47995495-C855-4C5A-BA32-118EA0334940";
paths = (
{
closed = 1;
nodes = (
"204 0 LINE",
"204 314 LINE",
"456 314 LINE SMOOTH",
"515 314 OFFCURVE",
"561 300 OFFCURVE",
"561 205 CURVE SMOOTH",
"561 0 LINE",
"665 0 LINE",
"665 214 LINE SMOOTH",
"665 299 OFFCURVE",
"631 345 OFFCURVE",
"555 358 CURVE",
"561 358 LINE",
"633 384 OFFCURVE",
"679 450 OFFCURVE",
"679 534 CURVE SMOOTH",
"679 651 OFFCURVE",
"595 729 OFFCURVE",
"445 729 CURVE SMOOTH",
"100 729 LINE",
"100 0 LINE"
);
},
{
closed = 1;
nodes = (
"204 637 LINE",
"437 637 LINE SMOOTH",
"521 637 OFFCURVE",
"569 595 OFFCURVE",
"569 519 CURVE SMOOTH",
"569 443 OFFCURVE",
"521 399 OFFCURVE",
"436 399 CURVE SMOOTH",
"204 399 LINE"
);
}
);
width = 734;
}
);
leftKerningGroup = B;
leftMetricsKey = "=H";
rightKerningGroup = R;
},
{
color = 3;
glyphname = O.ss06;
layers = (
{
anchors = (
{
name = bottom;
position = "{356, 0}";
},
{
name = center;
position = "{356, 365}";
},
{
name = ogonek;
position = "{661, 10}";
},
{
name = top;
position = "{356, 699}";
},
{
name = topleft;
position = "{-6, 729}";
},
{
name = topright;
position = "{454, 729}";
}
);
layerId = "F114AD5B-DC62-4E73-AD12-1938E40AC8EF";
paths = (
{
closed = 1;
nodes = (
"364 340 OFFCURVE",
"386 319 OFFCURVE",
"410 320 CURVE SMOOTH",
"434 319 OFFCURVE",
"456 340 OFFCURVE",
"456 363 CURVE SMOOTH",
"456 388 OFFCURVE",
"435 409 OFFCURVE",
"410 409 CURVE SMOOTH",
"384 409 OFFCURVE",
"364 389 OFFCURVE",
"364 364 CURVE SMOOTH"
);
},
{
closed = 1;
nodes = (
"524 341 OFFCURVE",
"546 320 OFFCURVE",
"570 321 CURVE SMOOTH",
"594 320 OFFCURVE",
"616 341 OFFCURVE",
"616 364 CURVE SMOOTH",
"616 389 OFFCURVE",
"595 410 OFFCURVE",
"570 410 CURVE SMOOTH",
"544 410 OFFCURVE",
"524 390 OFFCURVE",
"524 365 CURVE SMOOTH"
);
},
{
closed = 1;
nodes = (
"685 341 OFFCURVE",
"707 320 OFFCURVE",
"731 321 CURVE SMOOTH",
"755 320 OFFCURVE",
"777 341 OFFCURVE",
"777 364 CURVE SMOOTH",
"777 389 OFFCURVE",
"756 410 OFFCURVE",
"731 410 CURVE SMOOTH",
"705 410 OFFCURVE",
"685 390 OFFCURVE",
"685 365 CURVE SMOOTH"
);
},
{
closed = 1;
nodes = (
"202 341 OFFCURVE",
"224 320 OFFCURVE",
"248 321 CURVE SMOOTH",
"272 320 OFFCURVE",
"294 341 OFFCURVE",
"294 364 CURVE SMOOTH",
"294 389 OFFCURVE",
"273 410 OFFCURVE",
"248 410 CURVE SMOOTH",
"222 410 OFFCURVE",
"202 390 OFFCURVE",
"202 365 CURVE SMOOTH"
);
},
{
closed = 1;
nodes = (
"41 341 OFFCURVE",
"63 320 OFFCURVE",
"87 321 CURVE SMOOTH",
"111 320 OFFCURVE",
"133 341 OFFCURVE",
"133 364 CURVE SMOOTH",
"133 389 OFFCURVE",
"112 410 OFFCURVE",
"87 410 CURVE SMOOTH",
"61 410 OFFCURVE",
"41 390 OFFCURVE",
"41 365 CURVE SMOOTH"
);
},
{
closed = 1;
nodes = (
"284 201 OFFCURVE",
"306 180 OFFCURVE",
"330 181 CURVE SMOOTH",
"354 180 OFFCURVE",
"376 201 OFFCURVE",
"376 224 CURVE SMOOTH",
"376 249 OFFCURVE",
"355 270 OFFCURVE",
"330 270 CURVE SMOOTH",
"304 270 OFFCURVE",
"284 250 OFFCURVE",
"284 225 CURVE SMOOTH"
);
},
{
closed = 1;
nodes = (
"444 202 OFFCURVE",
"466 181 OFFCURVE",
"490 182 CURVE SMOOTH",
"514 181 OFFCURVE",
"536 202 OFFCURVE",
"536 225 CURVE SMOOTH",
"536 250 OFFCURVE",
"515 271 OFFCURVE",
"490 271 CURVE SMOOTH",
"464 271 OFFCURVE",
"444 251 OFFCURVE",
"444 226 CURVE SMOOTH"
);
},
{
closed = 1;
nodes = (
"643 180 OFFCURVE",
"665 159 OFFCURVE",
"689 160 CURVE SMOOTH",
"713 159 OFFCURVE",
"735 180 OFFCURVE",
"735 203 CURVE SMOOTH",
"735 228 OFFCURVE",
"714 249 OFFCURVE",
"689 249 CURVE SMOOTH",
"663 249 OFFCURVE",
"643 229 OFFCURVE",
"643 204 CURVE SMOOTH"
);
},
{
closed = 1;
nodes = (
"524 62 OFFCURVE",
"546 41 OFFCURVE",
"570 42 CURVE SMOOTH",
"594 41 OFFCURVE",
"616 62 OFFCURVE",
"616 85 CURVE SMOOTH",
"616 110 OFFCURVE",
"595 131 OFFCURVE",
"570 131 CURVE SMOOTH",
"544 131 OFFCURVE",
"524 111 OFFCURVE",
"524 86 CURVE SMOOTH"
);
},
{
closed = 1;
nodes = (
"363 20 OFFCURVE",
"385 -1 OFFCURVE",
"409 0 CURVE SMOOTH",
"433 -1 OFFCURVE",
"455 20 OFFCURVE",
"455 43 CURVE SMOOTH",
"455 68 OFFCURVE",
"434 89 OFFCURVE",
"409 89 CURVE SMOOTH",
"383 89 OFFCURVE",
"363 69 OFFCURVE",
"363 44 CURVE SMOOTH"
);
},
{
closed = 1;
nodes = (
"203 62 OFFCURVE",
"225 41 OFFCURVE",
"249 42 CURVE SMOOTH",
"273 41 OFFCURVE",
"295 62 OFFCURVE",
"295 85 CURVE SMOOTH",
"295 110 OFFCURVE",
"274 131 OFFCURVE",
"249 131 CURVE SMOOTH",
"223 131 OFFCURVE",
"203 111 OFFCURVE",
"203 86 CURVE SMOOTH"
);
},
{
closed = 1;
nodes = (
"84 180 OFFCURVE",
"106 159 OFFCURVE",
"130 160 CURVE SMOOTH",
"154 159 OFFCURVE",
"176 180 OFFCURVE",
"176 203 CURVE SMOOTH",
"176 228 OFFCURVE",
"155 249 OFFCURVE",
"130 249 CURVE SMOOTH",
"104 249 OFFCURVE",
"84 229 OFFCURVE",
"84 204 CURVE SMOOTH"
);
},
{
closed = 1;
nodes = (
"85 500 OFFCURVE",
"107 479 OFFCURVE",
"131 480 CURVE SMOOTH",
"155 479 OFFCURVE",
"177 500 OFFCURVE",
"177 523 CURVE SMOOTH",
"177 548 OFFCURVE",
"156 569 OFFCURVE",
"131 569 CURVE SMOOTH",
"105 569 OFFCURVE",
"85 549 OFFCURVE",
"85 524 CURVE SMOOTH"
);
},
{
closed = 1;
nodes = (
"282 480 OFFCURVE",
"304 459 OFFCURVE",
"328 460 CURVE SMOOTH",
"352 459 OFFCURVE",
"374 480 OFFCURVE",
"374 503 CURVE SMOOTH",
"374 528 OFFCURVE",
"353 549 OFFCURVE",
"328 549 CURVE SMOOTH",
"302 549 OFFCURVE",
"282 529 OFFCURVE",
"282 504 CURVE SMOOTH"
);
},
{
closed = 1;
nodes = (
"444 480 OFFCURVE",
"466 459 OFFCURVE",
"490 460 CURVE SMOOTH",
"514 459 OFFCURVE",
"536 480 OFFCURVE",
"536 503 CURVE SMOOTH",
"536 528 OFFCURVE",
"515 549 OFFCURVE",
"490 549 CURVE SMOOTH",
"464 549 OFFCURVE",
"444 529 OFFCURVE",
"444 504 CURVE SMOOTH"
);
},
{
closed = 1;
nodes = (
"643 499 OFFCURVE",
"665 478 OFFCURVE",
"689 479 CURVE SMOOTH",
"713 478 OFFCURVE",
"735 499 OFFCURVE",
"735 522 CURVE SMOOTH",
"735 547 OFFCURVE",
"714 568 OFFCURVE",
"689 568 CURVE SMOOTH",
"663 568 OFFCURVE",
"643 548 OFFCURVE",
"643 523 CURVE SMOOTH"
);
},
{
closed = 1;
nodes = (
"524 618 OFFCURVE",
"546 597 OFFCURVE",
"570 598 CURVE SMOOTH",
"594 597 OFFCURVE",
"616 618 OFFCURVE",
"616 641 CURVE SMOOTH",
"616 666 OFFCURVE",
"595 687 OFFCURVE",
"570 687 CURVE SMOOTH",
"544 687 OFFCURVE",
"524 667 OFFCURVE",
"524 642 CURVE SMOOTH"
);
},
{
closed = 1;
nodes = (
"363 660 OFFCURVE",
"385 639 OFFCURVE",
"409 640 CURVE SMOOTH",
"433 639 OFFCURVE",
"455 660 OFFCURVE",
"455 683 CURVE SMOOTH",
"455 708 OFFCURVE",
"434 729 OFFCURVE",
"409 729 CURVE SMOOTH",
"383 729 OFFCURVE",
"363 709 OFFCURVE",
"363 684 CURVE SMOOTH"
);
},
{
closed = 1;
nodes = (
"202 619 OFFCURVE",
"224 598 OFFCURVE",
"248 599 CURVE SMOOTH",
"272 598 OFFCURVE",
"294 619 OFFCURVE",
"294 642 CURVE SMOOTH",
"294 667 OFFCURVE",
"273 688 OFFCURVE",
"248 688 CURVE SMOOTH",
"222 688 OFFCURVE",
"202 668 OFFCURVE",
"202 643 CURVE SMOOTH"
);
}
);
width = 818;
},
{
anchors = (
{
name = bottom;
position = "{455, 0}";
},
{
name = center;
position = "{455, 365}";
},
{
name = ogonek;
position = "{765, 10}";
},
{
name = top;
position = "{455, 729}";
},
{
name = topleft;
position = "{86, 729}";
},
{
name = topright;
position = "{594, 729}";
}
);
layerId = "E787E54A-EE3E-475A-BF02-8501A6DA5144";
paths = (
{
closed = 1;
nodes = (
"369 340 OFFCURVE",
"391 319 OFFCURVE",
"415 320 CURVE SMOOTH",
"439 319 OFFCURVE",
"461 340 OFFCURVE",
"461 363 CURVE SMOOTH",
"461 388 OFFCURVE",
"440 409 OFFCURVE",
"415 409 CURVE SMOOTH",
"389 409 OFFCURVE",
"369 389 OFFCURVE",
"369 364 CURVE SMOOTH"
);
},
{
closed = 1;
nodes = (
"529 341 OFFCURVE",
"551 320 OFFCURVE",
"575 321 CURVE SMOOTH",
"599 320 OFFCURVE",
"621 341 OFFCURVE",
"621 364 CURVE SMOOTH",
"621 389 OFFCURVE",
"600 410 OFFCURVE",
"575 410 CURVE SMOOTH",
"549 410 OFFCURVE",
"529 390 OFFCURVE",
"529 365 CURVE SMOOTH"
);
},
{
closed = 1;
nodes = (
"690 341 OFFCURVE",
"712 320 OFFCURVE",
"736 321 CURVE SMOOTH",
"760 320 OFFCURVE",
"782 341 OFFCURVE",
"782 364 CURVE SMOOTH",
"782 389 OFFCURVE",
"761 410 OFFCURVE",
"736 410 CURVE SMOOTH",
"710 410 OFFCURVE",
"690 390 OFFCURVE",
"690 365 CURVE SMOOTH"
);
},
{
closed = 1;
nodes = (
"207 341 OFFCURVE",
"229 320 OFFCURVE",
"253 321 CURVE SMOOTH",
"277 320 OFFCURVE",
"299 341 OFFCURVE",
"299 364 CURVE SMOOTH",
"299 389 OFFCURVE",
"278 410 OFFCURVE",
"253 410 CURVE SMOOTH",
"227 410 OFFCURVE",
"207 390 OFFCURVE",
"207 365 CURVE SMOOTH"
);
},
{
closed = 1;
nodes = (
"46 341 OFFCURVE",
"68 320 OFFCURVE",
"92 321 CURVE SMOOTH",
"116 320 OFFCURVE",
"138 341 OFFCURVE",
"138 364 CURVE SMOOTH",
"138 389 OFFCURVE",
"117 410 OFFCURVE",
"92 410 CURVE SMOOTH",
"66 410 OFFCURVE",
"46 390 OFFCURVE",
"46 365 CURVE SMOOTH"
);
},
{
closed = 1;
nodes = (
"289 201 OFFCURVE",
"311 180 OFFCURVE",
"335 181 CURVE SMOOTH",
"359 180 OFFCURVE",
"381 201 OFFCURVE",
"381 224 CURVE SMOOTH",
"381 249 OFFCURVE",
"360 270 OFFCURVE",
"335 270 CURVE SMOOTH",
"309 270 OFFCURVE",
"289 250 OFFCURVE",
"289 225 CURVE SMOOTH"
);
},
{
closed = 1;
nodes = (
"449 202 OFFCURVE",
"471 181 OFFCURVE",
"495 182 CURVE SMOOTH",
"519 181 OFFCURVE",
"541 202 OFFCURVE",
"541 225 CURVE SMOOTH",
"541 250 OFFCURVE",
"520 271 OFFCURVE",
"495 271 CURVE SMOOTH",
"469 271 OFFCURVE",
"449 251 OFFCURVE",
"449 226 CURVE SMOOTH"
);
},
{
closed = 1;
nodes = (
"648 180 OFFCURVE",
"670 159 OFFCURVE",
"694 160 CURVE SMOOTH",
"718 159 OFFCURVE",
"740 180 OFFCURVE",
"740 203 CURVE SMOOTH",
"740 228 OFFCURVE",
"719 249 OFFCURVE",
"694 249 CURVE SMOOTH",
"668 249 OFFCURVE",
"648 229 OFFCURVE",
"648 204 CURVE SMOOTH"
);
},
{
closed = 1;
nodes = (
"529 62 OFFCURVE",
"551 41 OFFCURVE",
"575 42 CURVE SMOOTH",
"599 41 OFFCURVE",
"621 62 OFFCURVE",
"621 85 CURVE SMOOTH",
"621 110 OFFCURVE",
"600 131 OFFCURVE",
"575 131 CURVE SMOOTH",
"549 131 OFFCURVE",
"529 111 OFFCURVE",
"529 86 CURVE SMOOTH"
);
},
{
closed = 1;
nodes = (
"368 20 OFFCURVE",
"390 -1 OFFCURVE",
"414 0 CURVE SMOOTH",
"438 -1 OFFCURVE",
"460 20 OFFCURVE",
"460 43 CURVE SMOOTH",
"460 68 OFFCURVE",
"439 89 OFFCURVE",
"414 89 CURVE SMOOTH",
"388 89 OFFCURVE",
"368 69 OFFCURVE",
"368 44 CURVE SMOOTH"
);
},
{
closed = 1;
nodes = (
"208 62 OFFCURVE",
"230 41 OFFCURVE",
"254 42 CURVE SMOOTH",
"278 41 OFFCURVE",
"300 62 OFFCURVE",
"300 85 CURVE SMOOTH",
"300 110 OFFCURVE",
"279 131 OFFCURVE",
"254 131 CURVE SMOOTH",
"228 131 OFFCURVE",
"208 111 OFFCURVE",
"208 86 CURVE SMOOTH"
);
},
{
closed = 1;
nodes = (
"89 180 OFFCURVE",
"111 159 OFFCURVE",
"135 160 CURVE SMOOTH",
"159 159 OFFCURVE",
"181 180 OFFCURVE",
"181 203 CURVE SMOOTH",
"181 228 OFFCURVE",
"160 249 OFFCURVE",
"135 249 CURVE SMOOTH",
"109 249 OFFCURVE",
"89 229 OFFCURVE",
"89 204 CURVE SMOOTH"
);
},
{
closed = 1;
nodes = (
"90 500 OFFCURVE",
"112 479 OFFCURVE",
"136 480 CURVE SMOOTH",
"160 479 OFFCURVE",
"182 500 OFFCURVE",
"182 523 CURVE SMOOTH",
"182 548 OFFCURVE",
"161 569 OFFCURVE",
"136 569 CURVE SMOOTH",
"110 569 OFFCURVE",
"90 549 OFFCURVE",
"90 524 CURVE SMOOTH"
);
},
{
closed = 1;
nodes = (
"287 480 OFFCURVE",
"309 459 OFFCURVE",
"333 460 CURVE SMOOTH",
"357 459 OFFCURVE",
"379 480 OFFCURVE",
"379 503 CURVE SMOOTH",
"379 528 OFFCURVE",
"358 549 OFFCURVE",
"333 549 CURVE SMOOTH",
"307 549 OFFCURVE",
"287 529 OFFCURVE",
"287 504 CURVE SMOOTH"
);
},
{
closed = 1;
nodes = (
"449 480 OFFCURVE",
"471 459 OFFCURVE",
"495 460 CURVE SMOOTH",
"519 459 OFFCURVE",
"541 480 OFFCURVE",
"541 503 CURVE SMOOTH",
"541 528 OFFCURVE",
"520 549 OFFCURVE",
"495 549 CURVE SMOOTH",
"469 549 OFFCURVE",
"449 529 OFFCURVE",
"449 504 CURVE SMOOTH"
);
},
{
closed = 1;
nodes = (
"648 499 OFFCURVE",
"670 478 OFFCURVE",
"694 479 CURVE SMOOTH",
"718 478 OFFCURVE",
"740 499 OFFCURVE",
"740 522 CURVE SMOOTH",
"740 547 OFFCURVE",
"719 568 OFFCURVE",
"694 568 CURVE SMOOTH",
"668 568 OFFCURVE",
"648 548 OFFCURVE",
"648 523 CURVE SMOOTH"
);
},
{
closed = 1;
nodes = (
"529 618 OFFCURVE",
"551 597 OFFCURVE",
"575 598 CURVE SMOOTH",
"599 597 OFFCURVE",
"621 618 OFFCURVE",
"621 641 CURVE SMOOTH",
"621 666 OFFCURVE",
"600 687 OFFCURVE",
"575 687 CURVE SMOOTH",
"549 687 OFFCURVE",
"529 667 OFFCURVE",
"529 642 CURVE SMOOTH"
);
},
{
closed = 1;
nodes = (
"368 660 OFFCURVE",
"390 639 OFFCURVE",
"414 640 CURVE SMOOTH",
"438 639 OFFCURVE",
"460 660 OFFCURVE",
"460 683 CURVE SMOOTH",
"460 708 OFFCURVE",
"439 729 OFFCURVE",
"414 729 CURVE SMOOTH",
"388 729 OFFCURVE",
"368 709 OFFCURVE",
"368 684 CURVE SMOOTH"
);
},
{
closed = 1;
nodes = (
"207 619 OFFCURVE",
"229 598 OFFCURVE",
"253 599 CURVE SMOOTH",
"277 598 OFFCURVE",
"299 619 OFFCURVE",
"299 642 CURVE SMOOTH",
"299 667 OFFCURVE",
"278 688 OFFCURVE",
"253 688 CURVE SMOOTH",
"227 688 OFFCURVE",
"207 668 OFFCURVE",
"207 643 CURVE SMOOTH"
);
}
);
width = 828;
},
{
anchors = (
{
name = bottom;
position = "{400, 0}";
},
{
name = center;
position = "{400, 365}";
},
{
name = ogonek;
position = "{706, 10}";
},
{
name = top;
position = "{400, 708}";
},
{
name = topleft;
position = "{36, 729}";
},
{
name = topright;
position = "{510, 729}";
}
);
layerId = "47995495-C855-4C5A-BA32-118EA0334940";
paths = (
{
closed = 1;
nodes = (
"368 340 OFFCURVE",
"390 320 OFFCURVE",
"414 320 CURVE SMOOTH",
"438 320 OFFCURVE",
"460 340 OFFCURVE",
"460 363 CURVE SMOOTH",
"460 388 OFFCURVE",
"439 409 OFFCURVE",
"414 409 CURVE SMOOTH",
"388 409 OFFCURVE",
"368 389 OFFCURVE",
"368 364 CURVE SMOOTH"
);
},
{
closed = 1;
nodes = (
"528 341 OFFCURVE",
"550 321 OFFCURVE",
"574 321 CURVE SMOOTH",
"598 321 OFFCURVE",
"620 341 OFFCURVE",
"620 364 CURVE SMOOTH",
"620 389 OFFCURVE",
"599 410 OFFCURVE",
"574 410 CURVE SMOOTH",
"548 410 OFFCURVE",
"528 390 OFFCURVE",
"528 365 CURVE SMOOTH"
);
},
{
closed = 1;
nodes = (
"689 341 OFFCURVE",
"711 321 OFFCURVE",
"735 321 CURVE SMOOTH",
"759 321 OFFCURVE",
"781 341 OFFCURVE",
"781 364 CURVE SMOOTH",
"781 389 OFFCURVE",
"760 410 OFFCURVE",
"735 410 CURVE SMOOTH",
"709 410 OFFCURVE",
"689 390 OFFCURVE",
"689 365 CURVE SMOOTH"
);
},
{
closed = 1;
nodes = (
"206 341 OFFCURVE",
"228 321 OFFCURVE",
"252 321 CURVE SMOOTH",
"276 321 OFFCURVE",
"298 341 OFFCURVE",
"298 364 CURVE SMOOTH",
"298 389 OFFCURVE",
"277 410 OFFCURVE",
"252 410 CURVE SMOOTH",
"226 410 OFFCURVE",
"206 390 OFFCURVE",
"206 365 CURVE SMOOTH"
);
},
{
closed = 1;
nodes = (
"45 341 OFFCURVE",
"67 321 OFFCURVE",
"91 321 CURVE SMOOTH",
"115 321 OFFCURVE",
"137 341 OFFCURVE",
"137 364 CURVE SMOOTH",
"137 389 OFFCURVE",
"116 410 OFFCURVE",
"91 410 CURVE SMOOTH",
"65 410 OFFCURVE",
"45 390 OFFCURVE",
"45 365 CURVE SMOOTH"
);
},
{
closed = 1;
nodes = (
"288 201 OFFCURVE",
"310 181 OFFCURVE",
"334 181 CURVE SMOOTH",
"358 181 OFFCURVE",
"380 201 OFFCURVE",
"380 224 CURVE SMOOTH",
"380 249 OFFCURVE",
"359 270 OFFCURVE",
"334 270 CURVE SMOOTH",
"308 270 OFFCURVE",
"288 250 OFFCURVE",
"288 225 CURVE SMOOTH"
);
},
{
closed = 1;
nodes = (
"448 202 OFFCURVE",
"470 182 OFFCURVE",
"494 182 CURVE SMOOTH",
"518 182 OFFCURVE",
"540 202 OFFCURVE",
"540 225 CURVE SMOOTH",
"540 250 OFFCURVE",
"519 271 OFFCURVE",
"494 271 CURVE SMOOTH",
"468 271 OFFCURVE",
"448 251 OFFCURVE",
"448 226 CURVE SMOOTH"
);
},
{
closed = 1;
nodes = (
"647 180 OFFCURVE",
"669 160 OFFCURVE",
"693 160 CURVE SMOOTH",
"717 160 OFFCURVE",
"739 180 OFFCURVE",
"739 203 CURVE SMOOTH",
"739 228 OFFCURVE",
"718 249 OFFCURVE",
"693 249 CURVE SMOOTH",
"667 249 OFFCURVE",
"647 229 OFFCURVE",
"647 204 CURVE SMOOTH"
);
},
{
closed = 1;
nodes = (
"528 62 OFFCURVE",
"550 42 OFFCURVE",
"574 42 CURVE SMOOTH",
"598 42 OFFCURVE",
"620 62 OFFCURVE",
"620 85 CURVE SMOOTH",
"620 110 OFFCURVE",
"599 131 OFFCURVE",
"574 131 CURVE SMOOTH",
"548 131 OFFCURVE",
"528 111 OFFCURVE",
"528 86 CURVE SMOOTH"
);
},
{
closed = 1;
nodes = (
"367 20 OFFCURVE",
"389 0 OFFCURVE",
"413 0 CURVE SMOOTH",
"437 0 OFFCURVE",
"459 20 OFFCURVE",
"459 43 CURVE SMOOTH",
"459 68 OFFCURVE",
"438 89 OFFCURVE",
"413 89 CURVE SMOOTH",
"387 89 OFFCURVE",
"367 69 OFFCURVE",
"367 44 CURVE SMOOTH"
);
},
{
closed = 1;
nodes = (
"207 62 OFFCURVE",
"229 42 OFFCURVE",
"253 42 CURVE SMOOTH",
"277 42 OFFCURVE",
"299 62 OFFCURVE",
"299 85 CURVE SMOOTH",
"299 110 OFFCURVE",
"278 131 OFFCURVE",
"253 131 CURVE SMOOTH",
"227 131 OFFCURVE",
"207 111 OFFCURVE",
"207 86 CURVE SMOOTH"
);
},
{
closed = 1;
nodes = (
"88 180 OFFCURVE",
"110 160 OFFCURVE",
"134 160 CURVE SMOOTH",
"158 160 OFFCURVE",
"180 180 OFFCURVE",
"180 203 CURVE SMOOTH",
"180 228 OFFCURVE",
"159 249 OFFCURVE",
"134 249 CURVE SMOOTH",
"108 249 OFFCURVE",
"88 229 OFFCURVE",
"88 204 CURVE SMOOTH"
);
},
{
closed = 1;
nodes = (
"89 500 OFFCURVE",
"111 480 OFFCURVE",
"135 480 CURVE SMOOTH",
"159 480 OFFCURVE",
"181 500 OFFCURVE",
"181 523 CURVE SMOOTH",
"181 548 OFFCURVE",
"160 569 OFFCURVE",
"135 569 CURVE SMOOTH",
"109 569 OFFCURVE",
"89 549 OFFCURVE",
"89 524 CURVE SMOOTH"
);
},
{
closed = 1;
nodes = (
"286 480 OFFCURVE",
"308 460 OFFCURVE",
"332 460 CURVE SMOOTH",
"356 460 OFFCURVE",
"378 480 OFFCURVE",
"378 503 CURVE SMOOTH",
"378 528 OFFCURVE",
"357 549 OFFCURVE",
"332 549 CURVE SMOOTH",
"306 549 OFFCURVE",
"286 529 OFFCURVE",
"286 504 CURVE SMOOTH"
);
},
{
closed = 1;
nodes = (
"448 480 OFFCURVE",
"470 460 OFFCURVE",
"494 460 CURVE SMOOTH",
"518 460 OFFCURVE",
"540 480 OFFCURVE",
"540 503 CURVE SMOOTH",
"540 528 OFFCURVE",
"519 549 OFFCURVE",
"494 549 CURVE SMOOTH",
"468 549 OFFCURVE",
"448 529 OFFCURVE",
"448 504 CURVE SMOOTH"
);
},
{
closed = 1;
nodes = (
"647 499 OFFCURVE",
"669 479 OFFCURVE",
"693 479 CURVE SMOOTH",
"717 479 OFFCURVE",
"739 499 OFFCURVE",
"739 522 CURVE SMOOTH",
"739 547 OFFCURVE",
"718 568 OFFCURVE",
"693 568 CURVE SMOOTH",
"667 568 OFFCURVE",
"647 548 OFFCURVE",
"647 523 CURVE SMOOTH"
);
},
{
closed = 1;
nodes = (
"528 618 OFFCURVE",
"550 598 OFFCURVE",
"574 598 CURVE SMOOTH",
"598 598 OFFCURVE",
"620 618 OFFCURVE",
"620 641 CURVE SMOOTH",
"620 666 OFFCURVE",
"599 687 OFFCURVE",
"574 687 CURVE SMOOTH",
"548 687 OFFCURVE",
"528 667 OFFCURVE",
"528 642 CURVE SMOOTH"
);
},
{
closed = 1;
nodes = (
"367 660 OFFCURVE",
"389 640 OFFCURVE",
"413 640 CURVE SMOOTH",
"437 640 OFFCURVE",
"459 660 OFFCURVE",
"459 683 CURVE SMOOTH",
"459 708 OFFCURVE",
"438 729 OFFCURVE",
"413 729 CURVE SMOOTH",
"387 729 OFFCURVE",
"367 709 OFFCURVE",
"367 684 CURVE SMOOTH"
);
},
{
closed = 1;
nodes = (
"206 619 OFFCURVE",
"228 599 OFFCURVE",
"252 599 CURVE SMOOTH",
"276 599 OFFCURVE",
"298 619 OFFCURVE",
"298 642 CURVE SMOOTH",
"298 667 OFFCURVE",
"277 688 OFFCURVE",
"252 688 CURVE SMOOTH",
"226 688 OFFCURVE",
"206 668 OFFCURVE",
"206 643 CURVE SMOOTH"
);
}
);
width = 826;
}
);
leftKerningGroup = C;
leftMetricsKey = O;
rightKerningGroup = O;
rightMetricsKey = O;
},
{
color = 3;
glyphname = a;
layers = (
{
anchors = (
{
name = bottom;
position = "{272, 0}";
},
{
name = ogonek;
position = "{505, 0}";
},
{
name = top;
position = "{287, 544}";
}
);
background = {
paths = (
{
closed = 1;
nodes = (
"537 51 LINE",
"530 49 OFFCURVE",
"526 48 OFFCURVE",
"519 48 CURVE SMOOTH",
"497 48 OFFCURVE",
"482 54 OFFCURVE",
"482 93 CURVE SMOOTH",
"482 417 LINE SMOOTH",
"482 507 OFFCURVE",
"407 567 OFFCURVE",
"275 567 CURVE SMOOTH",
"143 567 OFFCURVE",
"56 496 OFFCURVE",
"58 389 CURVE",
"120 384 LINE",
"118 461 OFFCURVE",
"169 512 OFFCURVE",
"279 512 CURVE SMOOTH",
"363 512 OFFCURVE",
"419 478 OFFCURVE",
"419 415 CURVE SMOOTH",
"419 377 OFFCURVE",
"404.006 348.967 OFFCURVE",
"345 339 CURVE SMOOTH",
"197 314 LINE SMOOTH",
"105.087 298.474 OFFCURVE",
"38 246 OFFCURVE",
"38 155 CURVE SMOOTH",
"38 54 OFFCURVE",
"111 -10 OFFCURVE",
"223 -10 CURVE SMOOTH",
"305 -10 OFFCURVE",
"381 24 OFFCURVE",
"421 97 CURVE",
"421 80 LINE SMOOTH",
"421 28 OFFCURVE",
"442 -6 OFFCURVE",
"501 -6 CURVE SMOOTH",
"517 -6 OFFCURVE",
"531 -3 OFFCURVE",
"541 0 CURVE",
"541 51 LINE"
);
},
{
closed = 1;
nodes = (
"103 219 OFFCURVE",
"146.969 253.206 OFFCURVE",
"227 265 CURVE SMOOTH",
"322 279 LINE SMOOTH",
"367.055 285.64 OFFCURVE",
"403 295 OFFCURVE",
"420 309 CURVE",
"420 211 LINE",
"413 112 OFFCURVE",
"345 46 OFFCURVE",
"233 46 CURVE SMOOTH",
"150 46 OFFCURVE",
"103 85 OFFCURVE",
"103 156 CURVE SMOOTH"
);
}
);
};
layerId = "F114AD5B-DC62-4E73-AD12-1938E40AC8EF";
paths = (
{
closed = 1;
nodes = (
"542 50 LINE",
"535 48 OFFCURVE",
"530 47 OFFCURVE",
"521 47 CURVE SMOOTH",
"494 47 OFFCURVE",
"487 64 OFFCURVE",
"487 89 CURVE SMOOTH",
"487 413 LINE SMOOTH",
"487 505 OFFCURVE",
"423 567 OFFCURVE",
"287 567 CURVE SMOOTH",
"146 567 OFFCURVE",
"63 499 OFFCURVE",
"63 397 CURVE",
"125 392 LINE",
"125 463 OFFCURVE",
"176 511 OFFCURVE",
"285 511 CURVE SMOOTH",
"387 511 OFFCURVE",
"424 472 OFFCURVE",
"424 408 CURVE SMOOTH",
"424 370 OFFCURVE",
"411 346 OFFCURVE",
"350 335 CURVE SMOOTH",
"205 309 LINE SMOOTH",
"101 291 OFFCURVE",
"42 236 OFFCURVE",
"42 142 CURVE SMOOTH",
"42 51 OFFCURVE",
"112 -10 OFFCURVE",
"224 -10 CURVE SMOOTH",
"311 -10 OFFCURVE",
"388 24 OFFCURVE",
"426 95 CURVE",
"426 75 LINE SMOOTH",
"426 63 OFFCURVE",
"426 -6 OFFCURVE",
"505 -6 CURVE SMOOTH",
"521 -6 OFFCURVE",
"538 -3 OFFCURVE",
"546 0 CURVE",
"546 50 LINE"
);
},
{
closed = 1;
nodes = (
"108 204 OFFCURVE",
"143 246 OFFCURVE",
"232 261 CURVE SMOOTH",
"327 277 LINE SMOOTH",
"379 286 OFFCURVE",
"410 296 OFFCURVE",
"425 307 CURVE",
"425 172 LINE",
"410 96 OFFCURVE",
"335 45 OFFCURVE",
"238 45 CURVE SMOOTH",
"150 45 OFFCURVE",
"108 87 OFFCURVE",
"108 149 CURVE SMOOTH"
);
}
);
width = 552;
},
{
anchors = (
{
name = bottom;
position = "{301, 0}";
},
{
name = ogonek;
position = "{554, 0}";
},
{
name = top;
position = "{300, 540}";
}
);
background = {
paths = (
{
closed = 1;
nodes = (
"568 76 LINE",
"565 75 OFFCURVE",
"559 74 OFFCURVE",
"554 74 CURVE SMOOTH",
"533 74 OFFCURVE",
"516 80 OFFCURVE",
"516 127 CURVE SMOOTH",
"516 400 LINE SMOOTH",
"516 512 OFFCURVE",
"440 575 OFFCURVE",
"294 575 CURVE SMOOTH",
"155 575 OFFCURVE",
"63 502 OFFCURVE",
"62 391 CURVE",
"159 381 LINE",
"158 450 OFFCURVE",
"207 495 OFFCURVE",
"295 495 CURVE SMOOTH",
"364 495 OFFCURVE",
"414 470 OFFCURVE",
"414 412 CURVE SMOOTH",
"414 378 OFFCURVE",
"397 349 OFFCURVE",
"341 341 CURVE SMOOTH",
"202 321 LINE SMOOTH",
"106 307 OFFCURVE",
"42 248 OFFCURVE",
"42 154 CURVE SMOOTH",
"42 54 OFFCURVE",
"116 -10 OFFCURVE",
"231 -10 CURVE SMOOTH",
"312 -10 OFFCURVE",
"383 21 OFFCURVE",
"426 86 CURVE",
"427 77 LINE SMOOTH",
"433 25 OFFCURVE",
"464 -6 OFFCURVE",
"520 -6 CURVE SMOOTH",
"541 -6 OFFCURVE",
"560 -4 OFFCURVE",
"574 2 CURVE",
"574 76 LINE"
);
},
{
closed = 1;
nodes = (
"147 211 OFFCURVE",
"178 242 OFFCURVE",
"247 254 CURVE SMOOTH",
"334 269 LINE SMOOTH",
"369 275 OFFCURVE",
"400 282 OFFCURVE",
"415 294 CURVE",
"415 207 LINE",
"408 124 OFFCURVE",
"346 70 OFFCURVE",
"256 70 CURVE SMOOTH",
"186 70 OFFCURVE",
"147 103 OFFCURVE",
"147 159 CURVE SMOOTH"
);
}
);
};
guideLines = (
{
angle = 190.8865;
position = "{334, 267}";
}
);
layerId = "47995495-C855-4C5A-BA32-118EA0334940";
paths = (
{
closed = 1;
nodes = (
"568 73 LINE",
"566 72 OFFCURVE",
"562 71 OFFCURVE",
"551 71 CURVE SMOOTH",
"533 71 OFFCURVE",
"516 79 OFFCURVE",
"516 119 CURVE SMOOTH",
"516 403 LINE SMOOTH",
"516 517 OFFCURVE",
"438 573 OFFCURVE",
"298 573 CURVE SMOOTH",
"158 573 OFFCURVE",
"64 511 OFFCURVE",
"62 401 CURVE",
"159 391 LINE",
"158 460 OFFCURVE",
"213 493 OFFCURVE",
"298 493 CURVE SMOOTH",
"386 493 OFFCURVE",
"414 458 OFFCURVE",
"414 411 CURVE SMOOTH",
"414 375 OFFCURVE",
"401 354 OFFCURVE",
"341 343 CURVE SMOOTH",
"223 321 LINE SMOOTH",
"127 303 OFFCURVE",
"42 259 OFFCURVE",
"42 147 CURVE SMOOTH",
"42 54 OFFCURVE",
"109 -10 OFFCURVE",
"227 -10 CURVE SMOOTH",
"319 -10 OFFCURVE",
"399 32 OFFCURVE",
"427 95 CURVE",
"427 77 LINE SMOOTH",
"427 19 OFFCURVE",
"466 -8 OFFCURVE",
"523 -8 CURVE SMOOTH",
"534 -8 OFFCURVE",
"560 -6 OFFCURVE",
"574 0 CURVE",
"574 73 LINE"
);
},
{
closed = 1;
nodes = (
"147 193 OFFCURVE",
"167 230 OFFCURVE",
"251 247 CURVE SMOOTH",
"334 264 LINE SMOOTH",
"377 273 OFFCURVE",
"403 279 OFFCURVE",
"415 288 CURVE",
"415 169 LINE",
"395 108 OFFCURVE",
"333 72 OFFCURVE",
"253 72 CURVE SMOOTH",
"192 72 OFFCURVE",
"147 98 OFFCURVE",
"147 155 CURVE SMOOTH"
);
}
);
width = 607;
},
{
anchors = (
{
name = bottom;
position = "{305, 0}";
},
{
name = ogonek;
position = "{514, 0}";
},
{
name = top;
position = "{305, 563}";
}
);
associatedMasterId = "47995495-C855-4C5A-BA32-118EA0334940";
background = {
paths = (
{
closed = 1;
nodes = (
"50 53 OFFCURVE",
"124 -10 OFFCURVE",
"238 -10 CURVE SMOOTH",
"317 -10 OFFCURVE",
"379 18 OFFCURVE",
"424 81 CURVE",
"424 71 LINE SMOOTH",
"424 39 OFFCURVE",
"432 11 OFFCURVE",
"433 0 CURVE",
"533 0 LINE",
"533 21 LINE",
"524 26 OFFCURVE",
"517 77 OFFCURVE",
"517 144 CURVE SMOOTH",
"517 425 LINE SMOOTH",
"517 510 OFFCURVE",
"443 573 OFFCURVE",
"298 573 CURVE SMOOTH",
"159 573 OFFCURVE",
"68 512 OFFCURVE",
"70 390 CURVE",
"158 382 LINE",
"157 461 OFFCURVE",
"202 499 OFFCURVE",
"300 499 CURVE SMOOTH",
"372 499 OFFCURVE",
"424 473 OFFCURVE",
"424 415 CURVE SMOOTH",
"424 378 OFFCURVE",
"413 353 OFFCURVE",
"366 345 CURVE SMOOTH",
"210 319 LINE SMOOTH",
"115 303 OFFCURVE",
"50 248 OFFCURVE",
"50 153 CURVE SMOOTH"
);
},
{
closed = 1;
nodes = (
"145 215 OFFCURVE",
"182 247 OFFCURVE",
"251 257 CURVE SMOOTH",
"340 270 LINE SMOOTH",
"378 276 OFFCURVE",
"410 284 OFFCURVE",
"425 296 CURVE",
"425 207 LINE",
"419 131 OFFCURVE",
"348 64 OFFCURVE",
"259 64 CURVE SMOOTH",
"186 64 OFFCURVE",
"145 98 OFFCURVE",
"145 157 CURVE SMOOTH"
);
}
);
};
layerId = "63943EC2-331D-4B51-9A5E-A986501536CA";
name = "[600]";
paths = (
{
closed = 1;
nodes = (
"319.881 -10 OFFCURVE",
"399 29 OFFCURVE",
"427 83 CURVE",
"427 76 LINE SMOOTH",
"427 54 OFFCURVE",
"431 25 OFFCURVE",
"438 0 CURVE",
"533 0 LINE",
"533 12 LINE",
"524 17 OFFCURVE",
"516 72 OFFCURVE",
"516 120 CURVE SMOOTH",
"516 397 LINE SMOOTH",
"516 517 OFFCURVE",
"439 573 OFFCURVE",
"298 573 CURVE SMOOTH",
"140 573 OFFCURVE",
"64 502 OFFCURVE",
"62 397 CURVE",
"159 387 LINE",
"158 462 OFFCURVE",
"213 495 OFFCURVE",
"298 495 CURVE SMOOTH",
"387 495 OFFCURVE",
"414 458 OFFCURVE",
"414 407 CURVE SMOOTH",
"414 368 OFFCURVE",
"399 348 OFFCURVE",
"341 337 CURVE SMOOTH",
"216 314 LINE SMOOTH",
"128 297 OFFCURVE",
"42 259 OFFCURVE",
"42 143 CURVE SMOOTH",
"42 51 OFFCURVE",
"108.553 -10 OFFCURVE",
"226.869 -10 CURVE SMOOTH"
);
},
{
closed = 1;
nodes = (
"190 64 OFFCURVE",
"147 92 OFFCURVE",
"147 152 CURVE SMOOTH",
"147 197 OFFCURVE",
"171 233 OFFCURVE",
"251 248 CURVE SMOOTH",
"334 264 LINE SMOOTH",
"372 272 OFFCURVE",
"405 280 OFFCURVE",
"415 289 CURVE",
"415 156 LINE",
"396 99 OFFCURVE",
"324 64 OFFCURVE",
"253 64 CURVE SMOOTH"
);
}
);
width = 589;
},
{
anchors = (
{
name = bottom;
position = "{322, 0}";
},
{
name = ogonek;
position = "{602, 1}";
},
{
name = top;
position = "{322, 584}";
}
);
background = {
paths = (
{
closed = 1;
nodes = (
"619 142 LINE",
"615 140 OFFCURVE",
"609 139 OFFCURVE",
"603 139 CURVE SMOOTH",
"584 139 OFFCURVE",
"569 146 OFFCURVE",
"569 176 CURVE SMOOTH",
"569 428 LINE SMOOTH",
"569 530 OFFCURVE",
"470 594 OFFCURVE",
"312 594 CURVE SMOOTH",
"150 594 OFFCURVE",
"47 519 OFFCURVE",
"50 395 CURVE",
"223 374 LINE",
"223 430 OFFCURVE",
"250 457 OFFCURVE",
"307 457 CURVE SMOOTH",
"350 457 OFFCURVE",
"378 443 OFFCURVE",
"378 407 CURVE SMOOTH",
"378 381 OFFCURVE",
"360 362 OFFCURVE",
"331 357 CURVE SMOOTH",
"191 335 LINE SMOOTH",
"88 319 OFFCURVE",
"28 253 OFFCURVE",
"28 158 CURVE SMOOTH",
"28 56 OFFCURVE",
"105 -10 OFFCURVE",
"224 -10 CURVE SMOOTH",
"304 -10 OFFCURVE",
"366 20 OFFCURVE",
"403 79 CURVE",
"405 72 LINE SMOOTH",
"420 20 OFFCURVE",
"466 -7 OFFCURVE",
"535 -7 CURVE SMOOTH",
"567 -7 OFFCURVE",
"603 -2 OFFCURVE",
"625 10 CURVE",
"625 142 LINE"
);
},
{
closed = 1;
nodes = (
"220 202 OFFCURVE",
"236 223 OFFCURVE",
"270 229 CURVE SMOOTH",
"339 241 LINE SMOOTH",
"354 244 OFFCURVE",
"370 249 OFFCURVE",
"378 254 CURVE",
"378 202 LINE",
"373 151 OFFCURVE",
"340 122 OFFCURVE",
"287 122 CURVE SMOOTH",
"243 122 OFFCURVE",
"220 144 OFFCURVE",
"220 176 CURVE SMOOTH"
);
}
);
};
guideLines = (
{
angle = 189.1762;
position = "{331, 357}";
}
);
layerId = "E787E54A-EE3E-475A-BF02-8501A6DA5144";
paths = (
{
closed = 1;
nodes = (
"619 142 LINE",
"615 140 OFFCURVE",
"609 139 OFFCURVE",
"603 139 CURVE SMOOTH",
"584 139 OFFCURVE",
"569 146 OFFCURVE",
"569 176 CURVE SMOOTH",
"569 400 LINE SMOOTH",
"569 516 OFFCURVE",
"497.04 594 OFFCURVE",
"312 594 CURVE SMOOTH",
"150 594 OFFCURVE",
"47 519 OFFCURVE",
"50 395 CURVE",
"223 374 LINE",
"223 430 OFFCURVE",
"250 457 OFFCURVE",
"307 457 CURVE SMOOTH",
"350 457 OFFCURVE",
"378 443 OFFCURVE",
"378 407 CURVE SMOOTH",
"378 378.163 OFFCURVE",
"362.96 362.163 OFFCURVE",
"331 357 CURVE SMOOTH",
"201 336 LINE SMOOTH",
"87.88 317.727 OFFCURVE",
"28 253 OFFCURVE",
"28 158 CURVE SMOOTH",
"28 56 OFFCURVE",
"105 -10 OFFCURVE",
"224 -10 CURVE SMOOTH",
"304 -10 OFFCURVE",
"366 20 OFFCURVE",
"403 79 CURVE",
"405 72 LINE SMOOTH",
"420 20 OFFCURVE",
"466 -7 OFFCURVE",
"535 -7 CURVE SMOOTH",
"567 -7 OFFCURVE",
"603 -2 OFFCURVE",
"625 10 CURVE",
"625 142 LINE"
);
},
{
closed = 1;
nodes = (
"220 202 OFFCURVE",
"236 223 OFFCURVE",
"270 229 CURVE SMOOTH",
"339 241 LINE SMOOTH",
"356 244 OFFCURVE",
"375 249 OFFCURVE",
"384 254 CURVE",
"384 202 LINE",
"379 151 OFFCURVE",
"343 122 OFFCURVE",
"287 122 CURVE SMOOTH",
"243 122 OFFCURVE",
"220 144 OFFCURVE",
"220 176 CURVE SMOOTH"
);
}
);
width = 649;
},
{
anchors = (
{
name = bottom;
position = "{281, 0}";
},
{
name = ogonek;
position = "{522, 0}";
},
{
name = top;
position = "{281, 557}";
}
);
associatedMasterId = "F114AD5B-DC62-4E73-AD12-1938E40AC8EF";
background = {
paths = (
{
closed = 1;
nodes = (
"537 51 LINE",
"530 49 OFFCURVE",
"526 48 OFFCURVE",
"519 48 CURVE SMOOTH",
"497 48 OFFCURVE",
"482 54 OFFCURVE",
"482 93 CURVE SMOOTH",
"482 424 LINE SMOOTH",
"482 504 OFFCURVE",
"416 567 OFFCURVE",
"275 567 CURVE SMOOTH",
"143 567 OFFCURVE",
"56 510 OFFCURVE",
"58 389 CURVE",
"120 384 LINE",
"118 471 OFFCURVE",
"169 512 OFFCURVE",
"279 512 CURVE SMOOTH",
"363 512 OFFCURVE",
"419 482 OFFCURVE",
"419 417 CURVE SMOOTH",
"419 377 OFFCURVE",
"411 350 OFFCURVE",
"358 341 CURVE SMOOTH",
"197 314 LINE SMOOTH",
"105 299 OFFCURVE",
"38 246 OFFCURVE",
"38 155 CURVE SMOOTH",
"38 54 OFFCURVE",
"111 -10 OFFCURVE",
"223 -10 CURVE SMOOTH",
"305 -10 OFFCURVE",
"381 24 OFFCURVE",
"421 97 CURVE",
"421 80 LINE SMOOTH",
"421 28 OFFCURVE",
"442 -6 OFFCURVE",
"501 -6 CURVE SMOOTH",
"517 -6 OFFCURVE",
"531 -3 OFFCURVE",
"541 0 CURVE",
"541 51 LINE"
);
},
{
closed = 1;
nodes = (
"103 219 OFFCURVE",
"147 253 OFFCURVE",
"227 265 CURVE SMOOTH",
"322 279 LINE SMOOTH",
"367 286 OFFCURVE",
"403 295 OFFCURVE",
"420 309 CURVE",
"420 211 LINE",
"413 112 OFFCURVE",
"345 46 OFFCURVE",
"233 46 CURVE SMOOTH",
"150 46 OFFCURVE",
"103 85 OFFCURVE",
"103 156 CURVE SMOOTH"
);
}
);
};
hints = (
{
horizontal = 1;
origin = "{0, 6}";
target = "{1, 13}";
type = TTStem;
options = 4;
},
{
horizontal = 1;
origin = "{0, 15}";
target = "{0, 22}";
type = TTStem;
options = 4;
},
{
horizontal = 1;
origin = "{1, 13}";
target = "{0, 35}";
type = TTStem;
options = 4;
}
);
layerId = "4290CB9E-415F-4167-A081-78A4428B9D3A";
name = "[600]";
paths = (
{
closed = 1;
nodes = (
"305 -10 OFFCURVE",
"381 24 OFFCURVE",
"421 97 CURVE",
"421 80 LINE SMOOTH",
"421 54 OFFCURVE",
"424 22 OFFCURVE",
"428 0 CURVE",
"491 0 LINE",
"491 5 LINE",
"483 52 OFFCURVE",
"482 96 OFFCURVE",
"482 124 CURVE SMOOTH",
"482 417 LINE SMOOTH",
"482 507 OFFCURVE",
"407 567 OFFCURVE",
"275 567 CURVE SMOOTH",
"143 567 OFFCURVE",
"56 496 OFFCURVE",
"58 389 CURVE",
"120 384 LINE",
"118 461 OFFCURVE",
"169 512 OFFCURVE",
"279 512 CURVE SMOOTH",
"363 512 OFFCURVE",
"419 478 OFFCURVE",
"419 415 CURVE SMOOTH",
"419 377 OFFCURVE",
"404 349 OFFCURVE",
"345 339 CURVE SMOOTH",
"197 314 LINE SMOOTH",
"105 298 OFFCURVE",
"38 246 OFFCURVE",
"38 155 CURVE SMOOTH",
"38 54 OFFCURVE",
"111 -10 OFFCURVE",
"223 -10 CURVE SMOOTH"
);
},
{
closed = 1;
nodes = (
"150 46 OFFCURVE",
"103 85 OFFCURVE",
"103 156 CURVE SMOOTH",
"103 219 OFFCURVE",
"147 253 OFFCURVE",
"227 265 CURVE SMOOTH",
"322 279 LINE SMOOTH",
"367 286 OFFCURVE",
"403 295 OFFCURVE",
"420 309 CURVE",
"420 211 LINE",
"413 112 OFFCURVE",
"345 46 OFFCURVE",
"233 46 CURVE SMOOTH"
);
}
);
width = 552;
},
{
anchors = (
{
name = bottom;
position = "{325, 0}";
},
{
name = ogonek;
position = "{580, 3}";
},
{
name = top;
position = "{315, 584}";
}
);
associatedMasterId = "E787E54A-EE3E-475A-BF02-8501A6DA5144";
background = {
paths = (
{
closed = 1;
nodes = (
"294 -10 OFFCURVE",
"360 17 OFFCURVE",
"391 65 CURVE",
"392 55 LINE SMOOTH",
"394 36 OFFCURVE",
"397 17 OFFCURVE",
"403 0 CURVE",
"594 0 LINE",
"594 14 LINE",
"582 20 OFFCURVE",
"574 51 OFFCURVE",
"574 113 CURVE SMOOTH",
"574 391 LINE SMOOTH",
"574 539 OFFCURVE",
"459 594 OFFCURVE",
"317 594 CURVE SMOOTH",
"163 594 OFFCURVE",
"52 519 OFFCURVE",
"55 395 CURVE",
"228 374 LINE",
"228 430 OFFCURVE",
"255 457 OFFCURVE",
"312 457 CURVE SMOOTH",
"352 457 OFFCURVE",
"383 441 OFFCURVE",
"383 405 CURVE SMOOTH",
"383 376 OFFCURVE",
"365 362 OFFCURVE",
"336 357 CURVE SMOOTH",
"196 335 LINE SMOOTH",
"93 319 OFFCURVE",
"33 253 OFFCURVE",
"33 158 CURVE SMOOTH",
"33 56 OFFCURVE",
"110 -10 OFFCURVE",
"221 -10 CURVE SMOOTH"
);
},
{
closed = 1;
nodes = (
"248 122 OFFCURVE",
"225 144 OFFCURVE",
"225 175 CURVE SMOOTH",
"225 207 OFFCURVE",
"241 223 OFFCURVE",
"275 229 CURVE SMOOTH",
"344 241 LINE SMOOTH",
"361 244 OFFCURVE",
"380 249 OFFCURVE",
"389 254 CURVE",
"389 206 LINE",
"384 156 OFFCURVE",
"347 122 OFFCURVE",
"286 122 CURVE SMOOTH"
);
}
);
};
layerId = "FB852309-AE4A-4FFD-BE60-D7BEE0A87FF0";
name = "[600]";
paths = (
{
closed = 1;
nodes = (
"295.492 -10 OFFCURVE",
"364.531 21.431 OFFCURVE",
"391 70 CURVE",
"392 54 LINE SMOOTH",
"393 38 OFFCURVE",
"397 16 OFFCURVE",
"403 0 CURVE",
"594 0 LINE",
"594 14 LINE",
"582 20 OFFCURVE",
"574 50 OFFCURVE",
"574 111 CURVE SMOOTH",
"574 407 LINE SMOOTH",
"574 527 OFFCURVE",
"490 594 OFFCURVE",
"332 594 CURVE SMOOTH",
"165 594 OFFCURVE",
"66 531 OFFCURVE",
"55 398.537 CURVE",
"228 377.864 LINE",
"228 432.883 OFFCURVE",
"255 460 OFFCURVE",
"311.778 460 CURVE SMOOTH",
"352 460 OFFCURVE",
"383 446.394 OFFCURVE",
"383 404.199 CURVE SMOOTH",
"383 374.777 OFFCURVE",
"367.928 356.897 OFFCURVE",
"336 350.995 CURVE SMOOTH",
"216.743 328.951 LINE SMOOTH",
"84.448 304.497 OFFCURVE",
"33 236.828 OFFCURVE",
"33 145.589 CURVE SMOOTH",
"33 52.236 OFFCURVE",
"106.162 -10 OFFCURVE",
"215.905 -10 CURVE SMOOTH"
);
},
{
closed = 1;
nodes = (
"246.429 120 OFFCURVE",
"225 140 OFFCURVE",
"225 171.247 CURVE SMOOTH",
"225 200 OFFCURVE",
"243.139 218.147 OFFCURVE",
"285.007 225.96 CURVE SMOOTH",
"344.006 236.97 LINE SMOOTH",
"360.975 240.136 OFFCURVE",
"380 245 OFFCURVE",
"389 250 CURVE",
"389 183 LINE",
"384.856 146.639 OFFCURVE",
"344 120 OFFCURVE",
"291.724 120 CURVE SMOOTH"
);
}
);
width = 641;
}
);
leftKerningGroup = a;
rightKerningGroup = a;
unicode = 0061;
},
{
glyphname = aringacute;
layers = (
{
anchors = (
{
name = _top;
position = "{291, 557}";
}
);
components = (
{
name = a;
}
);
layerId = "F114AD5B-DC62-4E73-AD12-1938E40AC8EF";
paths = (
{
closed = 1;
nodes = (
"387 862 LINE",
"318 862 LINE",
"259 777 LINE",
"309 777 LINE",
"387 860 LINE"
);
},
{
closed = 1;
nodes = (
"387 693 OFFCURVE",
"342 734 OFFCURVE",
"279 734 CURVE SMOOTH",
"216 734 OFFCURVE",
"171 693 OFFCURVE",
"171 636 CURVE SMOOTH",
"171 578 OFFCURVE",
"216 537 OFFCURVE",
"279 537 CURVE SMOOTH",
"342 537 OFFCURVE",
"387 578 OFFCURVE",
"387 636 CURVE SMOOTH"
);
},
{
closed = 1;
nodes = (
"339 602 OFFCURVE",
"316 578 OFFCURVE",
"280 578 CURVE SMOOTH",
"244 578 OFFCURVE",
"219 602 OFFCURVE",
"219 636 CURVE SMOOTH",
"219 669 OFFCURVE",
"244 693 OFFCURVE",
"280 693 CURVE SMOOTH",
"316 693 OFFCURVE",
"339 669 OFFCURVE",
"339 636 CURVE SMOOTH"
);
}
);
width = 552.50571;
},
{
anchors = (
{
name = _top;
position = "{324, 584}";
}
);
components = (
{
name = a;
}
);
layerId = "E787E54A-EE3E-475A-BF02-8501A6DA5144";
paths = (
{
closed = 1;
nodes = (
"487 886 LINE",
"328 886 LINE",
"269 776 LINE",
"383 776 LINE",
"487 882 LINE"
);
},
{
closed = 1;
nodes = (
"430 705 OFFCURVE",
"386 746 OFFCURVE",
"319 746 CURVE SMOOTH",
"252 746 OFFCURVE",
"207 705 OFFCURVE",
"207 643 CURVE SMOOTH",
"207 581 OFFCURVE",
"252 540 OFFCURVE",
"319 540 CURVE SMOOTH",
"386 540 OFFCURVE",
"430 581 OFFCURVE",
"430 643 CURVE SMOOTH"
);
},
{
closed = 1;
nodes = (
"353 623 OFFCURVE",
"339 610 OFFCURVE",
"319 610 CURVE SMOOTH",
"299 610 OFFCURVE",
"285 623 OFFCURVE",
"285 643 CURVE SMOOTH",
"285 663 OFFCURVE",
"299 677 OFFCURVE",
"319 677 CURVE SMOOTH",
"339 677 OFFCURVE",
"353 663 OFFCURVE",
"353 643 CURVE SMOOTH"
);
}
);
width = 649;
},
{
anchors = (
{
name = _top;
position = "{299, 565}";
}
);
components = (
{
name = a;
}
);
layerId = "47995495-C855-4C5A-BA32-118EA0334940";
paths = (
{
closed = 1;
nodes = (
"420 870 LINE",
"323 870 LINE",
"264 779 LINE",
"334 779 LINE",
"420 867 LINE"
);
},
{
closed = 1;
nodes = (
"405 697 OFFCURVE",
"360 738 OFFCURVE",
"296 738 CURVE SMOOTH",
"232 738 OFFCURVE",
"187 697 OFFCURVE",
"187 639 CURVE SMOOTH",
"187 580 OFFCURVE",
"232 538 OFFCURVE",
"296 538 CURVE SMOOTH",
"360 538 OFFCURVE",
"405 579 OFFCURVE",
"405 639 CURVE SMOOTH"
);
},
{
closed = 1;
nodes = (
"348 609 OFFCURVE",
"328 588 OFFCURVE",
"296 588 CURVE SMOOTH",
"265 588 OFFCURVE",
"244 609 OFFCURVE",
"244 639 CURVE SMOOTH",
"244 667 OFFCURVE",
"265 688 OFFCURVE",
"296 688 CURVE SMOOTH",
"328 688 OFFCURVE",
"348 667 OFFCURVE",
"348 639 CURVE SMOOTH"
);
}
);
width = 607;
},
{
anchors = (
{
name = _top;
position = "{295.16, 557}";
}
);
associatedMasterId = "F114AD5B-DC62-4E73-AD12-1938E40AC8EF";
components = (
{
name = a;
transform = "{1, 0, 0, 1, 4.16, 0}";
}
);
layerId = "B867DFEC-681A-4B91-9A95-928B09A1D4D2";
name = "[600]";
paths = (
{
closed = 1;
nodes = (
"390.16 862 LINE",
"321.16 862 LINE",
"262.16 777 LINE",
"312.16 777 LINE",
"390.16 860 LINE"
);
},
{
closed = 1;
nodes = (
"390.16 693 OFFCURVE",
"345.16 734 OFFCURVE",
"282.16 734 CURVE SMOOTH",
"219.16 734 OFFCURVE",
"174.16 693 OFFCURVE",
"174.16 636 CURVE SMOOTH",
"174.16 578 OFFCURVE",
"219.16 537 OFFCURVE",
"282.16 537 CURVE SMOOTH",
"345.16 537 OFFCURVE",
"390.16 578 OFFCURVE",
"390.16 636 CURVE SMOOTH"
);
},
{
closed = 1;
nodes = (
"342.16 602 OFFCURVE",
"319.16 578 OFFCURVE",
"283.16 578 CURVE SMOOTH",
"247.16 578 OFFCURVE",
"222.16 602 OFFCURVE",
"222.16 636 CURVE SMOOTH",
"222.16 669 OFFCURVE",
"247.16 693 OFFCURVE",
"283.16 693 CURVE SMOOTH",
"319.16 693 OFFCURVE",
"342.16 669 OFFCURVE",
"342.16 636 CURVE SMOOTH"
);
}
);
width = 556.16;
},
{
anchors = (
{
name = _top;
position = "{299, 563}";
}
);
associatedMasterId = "47995495-C855-4C5A-BA32-118EA0334940";
components = (
{
alignment = -1;
name = a;
}
);
layerId = "75AB23F6-1F29-4AA5-B1DE-E00F3BA31A5B";
name = "[600]";
paths = (
{
closed = 1;
nodes = (
"418 868 LINE",
"328 868 LINE",
"269 779 LINE",
"334 779 LINE",
"418 865 LINE"
);
},
{
closed = 1;
nodes = (
"407 696 OFFCURVE",
"363 737 OFFCURVE",
"299 737 CURVE SMOOTH",
"235 737 OFFCURVE",
"190 696 OFFCURVE",
"190 638 CURVE SMOOTH",
"190 579 OFFCURVE",
"235 538 OFFCURVE",
"299 538 CURVE SMOOTH",
"363 538 OFFCURVE",
"407 579 OFFCURVE",
"407 638 CURVE SMOOTH"
);
},
{
closed = 1;
nodes = (
"353 607 OFFCURVE",
"332 585 OFFCURVE",
"299 585 CURVE SMOOTH",
"267 585 OFFCURVE",
"245 607 OFFCURVE",
"245 638 CURVE SMOOTH",
"245 668 OFFCURVE",
"267 689 OFFCURVE",
"299 689 CURVE SMOOTH",
"332 689 OFFCURVE",
"353 668 OFFCURVE",
"353 638 CURVE SMOOTH"
);
}
);
width = 589;
},
{
anchors = (
{
name = _top;
position = "{319, 584}";
}
);
associatedMasterId = "E787E54A-EE3E-475A-BF02-8501A6DA5144";
components = (
{
name = a;
transform = "{1, 0, 0, 1, -5, 0}";
}
);
layerId = "A1BF7A7B-3B17-41F2-8EAC-5B2C707CB62D";
name = "[600]";
paths = (
{
closed = 1;
nodes = (
"487 886 LINE",
"328 886 LINE",
"269 776 LINE",
"383 776 LINE",
"487 882 LINE"
);
},
{
closed = 1;
nodes = (
"430 705 OFFCURVE",
"386 746 OFFCURVE",
"319 746 CURVE SMOOTH",
"252 746 OFFCURVE",
"207 705 OFFCURVE",
"207 643 CURVE SMOOTH",
"207 581 OFFCURVE",
"252 540 OFFCURVE",
"319 540 CURVE SMOOTH",
"386 540 OFFCURVE",
"430 581 OFFCURVE",
"430 643 CURVE SMOOTH"
);
},
{
closed = 1;
nodes = (
"353 623 OFFCURVE",
"339 610 OFFCURVE",
"319 610 CURVE SMOOTH",
"299 610 OFFCURVE",
"285 623 OFFCURVE",
"285 643 CURVE SMOOTH",
"285 663 OFFCURVE",
"299 677 OFFCURVE",
"319 677 CURVE SMOOTH",
"339 677 OFFCURVE",
"353 663 OFFCURVE",
"353 643 CURVE SMOOTH"
);
}
);
width = 644;
}
);
leftKerningGroup = a;
leftMetricsKey = "=a";
rightKerningGroup = a;
unicode = 01FB;
},
{
glyphname = ae;
layers = (
{
anchors = (
{
name = top;
position = "{473.16, 557}";
}
);
layerId = "F114AD5B-DC62-4E73-AD12-1938E40AC8EF";
paths = (
{
closed = 1;
nodes = (
"42.16 50 OFFCURVE",
"112.16 -10 OFFCURVE",
"224.16 -10 CURVE SMOOTH",
"336.16 -10 OFFCURVE",
"426.16 53 OFFCURVE",
"448.16 139 CURVE",
"475.16 49 OFFCURVE",
"560.16 -9 OFFCURVE",
"676.16 -9 CURVE SMOOTH",
"796.16 -9 OFFCURVE",
"883.16 54 OFFCURVE",
"904.16 160 CURVE",
"842.16 166 LINE",
"828.16 98 OFFCURVE",
"771.16 47 OFFCURVE",
"670.16 47 CURVE SMOOTH",
"544.16 47 OFFCURVE",
"490.16 128 OFFCURVE",
"495.16 266 CURVE",
"902.16 266 LINE",
"903.16 277 OFFCURVE",
"905.16 300 OFFCURVE",
"905.16 323 CURVE SMOOTH",
"905.16 476 OFFCURVE",
"812.16 567 OFFCURVE",
"672.16 567 CURVE SMOOTH",
"587.16 567 OFFCURVE",
"516.16 533 OFFCURVE",
"473.16 467 CURVE",
"449.16 530 OFFCURVE",
"378.16 566 OFFCURVE",
"285.16 566 CURVE SMOOTH",
"150.16 566 OFFCURVE",
"60.16 496 OFFCURVE",
"65.16 371 CURVE",
"124.16 365 LINE",
"117.16 462 OFFCURVE",
"179.16 514 OFFCURVE",
"285.16 514 CURVE SMOOTH",
"367.16 514 OFFCURVE",
"422.16 475 OFFCURVE",
"422.16 399 CURVE SMOOTH",
"422.16 354 OFFCURVE",
"391.16 326 OFFCURVE",
"345.16 320 CURVE SMOOTH",
"215.16 305 LINE SMOOTH",
"122.16 294 OFFCURVE",
"42.16 247 OFFCURVE",
"42.16 140 CURVE SMOOTH"
);
},
{
closed = 1;
nodes = (
"498.16 440 OFFCURVE",
"561.16 508 OFFCURVE",
"669.16 508 CURVE SMOOTH",
"776.16 508 OFFCURVE",
"846.16 440 OFFCURVE",
"842.16 318 CURVE",
"494.16 318 LINE"
);
},
{
closed = 1;
nodes = (
"107.16 216 OFFCURVE",
"154.16 246 OFFCURVE",
"238.16 256 CURVE SMOOTH",
"359.16 271 LINE SMOOTH",
"390.16 274 OFFCURVE",
"415.16 283 OFFCURVE",
"422.16 293 CURVE",
"422.16 192 LINE",
"406.16 104 OFFCURVE",
"339.16 46 OFFCURVE",
"224.16 46 CURVE SMOOTH",
"154.16 46 OFFCURVE",
"107.16 82 OFFCURVE",
"107.16 147 CURVE SMOOTH"
);
}
);
width = 932.16;
},
{
anchors = (
{
name = top;
position = "{486, 584}";
}
);
layerId = "E787E54A-EE3E-475A-BF02-8501A6DA5144";
paths = (
{
closed = 1;
nodes = (
"28 56 OFFCURVE",
"102 -10 OFFCURVE",
"225 -10 CURVE SMOOTH",
"324 -10 OFFCURVE",
"402 26 OFFCURVE",
"440 92 CURVE",
"480 27 OFFCURVE",
"554 -10 OFFCURVE",
"654 -10 CURVE SMOOTH",
"797 -10 OFFCURVE",
"899 60 OFFCURVE",
"915 174 CURVE",
"742 199 LINE",
"734 159 OFFCURVE",
"702 132 OFFCURVE",
"656 132 CURVE SMOOTH",
"602 132 OFFCURVE",
"559 162 OFFCURVE",
"559 247 CURVE",
"908 247 LINE",
"912 262 OFFCURVE",
"915 291 OFFCURVE",
"915 322 CURVE SMOOTH",
"915 494 OFFCURVE",
"823 594 OFFCURVE",
"662 594 CURVE SMOOTH",
"586 594 OFFCURVE",
"522 572 OFFCURVE",
"486 532 CURVE",
"452 569 OFFCURVE",
"385 594 OFFCURVE",
"308 594 CURVE SMOOTH",
"135 594 OFFCURVE",
"55 516 OFFCURVE",
"51 395 CURVE",
"224 371 LINE",
"226 418 OFFCURVE",
"250 450 OFFCURVE",
"310 450 CURVE SMOOTH",
"353 450 OFFCURVE",
"381 432 OFFCURVE",
"381 395 CURVE SMOOTH",
"381 370 OFFCURVE",
"363 352 OFFCURVE",
"326 347 CURVE SMOOTH",
"199 330 LINE SMOOTH",
"90 316 OFFCURVE",
"28 248 OFFCURVE",
"28 159 CURVE SMOOTH"
);
},
{
closed = 1;
nodes = (
"565 428 OFFCURVE",
"597 453 OFFCURVE",
"649 453 CURVE SMOOTH",
"692 453 OFFCURVE",
"729 434 OFFCURVE",
"729 357 CURVE",
"559 357 LINE"
);
},
{
closed = 1;
nodes = (
"220 206 OFFCURVE",
"256 213 OFFCURVE",
"279 216 CURVE SMOOTH",
"331 223 LINE SMOOTH",
"355 226 OFFCURVE",
"369 230 OFFCURVE",
"381 237 CURVE",
"381 190 LINE",
"374 152 OFFCURVE",
"336 127 OFFCURVE",
"284 127 CURVE SMOOTH",
"248 127 OFFCURVE",
"220 141 OFFCURVE",
"220 171 CURVE SMOOTH"
);
}
);
width = 946;
},
{
anchors = (
{
name = top;
position = "{481, 565}";
}
);
layerId = "47995495-C855-4C5A-BA32-118EA0334940";
paths = (
{
closed = 1;
nodes = (
"42 52 OFFCURVE",
"113 -10 OFFCURVE",
"229 -10 CURVE SMOOTH",
"337 -10 OFFCURVE",
"423 45 OFFCURVE",
"450 124 CURVE",
"482 41 OFFCURVE",
"564 -9 OFFCURVE",
"673 -9 CURVE SMOOTH",
"805 -9 OFFCURVE",
"893 59 OFFCURVE",
"912 164 CURVE",
"815 177 LINE",
"803 117 OFFCURVE",
"754 74 OFFCURVE",
"670 74 CURVE SMOOTH",
"570 74 OFFCURVE",
"515 135 OFFCURVE",
"519 261 CURVE",
"909 261 LINE",
"910 273 OFFCURVE",
"913 300 OFFCURVE",
"913 323 CURVE SMOOTH",
"913 481 OFFCURVE",
"820 575 OFFCURVE",
"673 575 CURVE SMOOTH",
"594 575 OFFCURVE",
"524 547 OFFCURVE",
"481 487 CURVE",
"454 542 OFFCURVE",
"385 575 OFFCURVE",
"297 575 CURVE SMOOTH",
"156 575 OFFCURVE",
"63 508 OFFCURVE",
"65 379 CURVE",
"160 367 LINE",
"155 453 OFFCURVE",
"211 494 OFFCURVE",
"297 494 CURVE SMOOTH",
"366 494 OFFCURVE",
"414 462 OFFCURVE",
"414 398 CURVE SMOOTH",
"414 359 OFFCURVE",
"387 333 OFFCURVE",
"344 328 CURVE SMOOTH",
"215 313 LINE SMOOTH",
"115 301 OFFCURVE",
"42 246 OFFCURVE",
"42 146 CURVE SMOOTH"
);
},
{
closed = 1;
nodes = (
"523 436 OFFCURVE",
"577 491 OFFCURVE",
"668 491 CURVE SMOOTH",
"757 491 OFFCURVE",
"814 436 OFFCURVE",
"811 330 CURVE",
"519 330 LINE"
);
},
{
closed = 1;
nodes = (
"147 213 OFFCURVE",
"190 236 OFFCURVE",
"255 244 CURVE SMOOTH",
"355 256 LINE SMOOTH",
"384 260 OFFCURVE",
"404 266 OFFCURVE",
"414 276 CURVE",
"414 192 LINE",
"401 120 OFFCURVE",
"344 71 OFFCURVE",
"247 71 CURVE SMOOTH",
"187 71 OFFCURVE",
"147 101 OFFCURVE",
"147 155 CURVE SMOOTH"
);
}
);
width = 949;
}
);
leftKerningGroup = a;
leftMetricsKey = "=a";
rightKerningGroup = e;
rightMetricsKey = "=e";
unicode = 00E6;
},
{
color = 3;
glyphname = b;
layers = (
{
anchors = (
{
name = bottom;
position = "{310, 0}";
},
{
name = top;
position = "{310, 750}";
}
);
layerId = "F114AD5B-DC62-4E73-AD12-1938E40AC8EF";
paths = (
{
closed = 1;
nodes = (
"129 0 LINE",
"135 105 LINE",
"167 34 OFFCURVE",
"240 -10 OFFCURVE",
"332 -10 CURVE SMOOTH",
"480 -10 OFFCURVE",
"571 100 OFFCURVE",
"571 274 CURVE SMOOTH",
"571 453 OFFCURVE",
"477 567 OFFCURVE",
"330 567 CURVE SMOOTH",
"239 567 OFFCURVE",
"170 526 OFFCURVE",
"133 455 CURVE",
"133 790 LINE",
"71 790 LINE",
"71 0 LINE"
);
},
{
closed = 1;
nodes = (
"133 314 LINE SMOOTH",
"133 429 OFFCURVE",
"209 507 OFFCURVE",
"323 507 CURVE SMOOTH",
"440 507 OFFCURVE",
"506 423 OFFCURVE",
"506 273 CURVE SMOOTH",
"506 130 OFFCURVE",
"440 49 OFFCURVE",
"325 49 CURVE SMOOTH",
"214 49 OFFCURVE",
"133 124 OFFCURVE",
"133 227 CURVE SMOOTH"
);
}
);
width = 612;
},
{
anchors = (
{
name = bottom;
position = "{353, 0}";
},
{
name = top;
position = "{353, 750}";
}
);
layerId = "E787E54A-EE3E-475A-BF02-8501A6DA5144";
paths = (
{
closed = 1;
nodes = (
"237 0 LINE",
"246 76 LINE",
"275 20 OFFCURVE",
"342 -10 OFFCURVE",
"415 -10 CURVE SMOOTH",
"565 -10 OFFCURVE",
"660 106 OFFCURVE",
"660 290 CURVE SMOOTH",
"660 476 OFFCURVE",
"563 594 OFFCURVE",
"410 594 CURVE SMOOTH",
"341 594 OFFCURVE",
"284 569 OFFCURVE",
"252 515 CURVE",
"252 790 LINE",
"61 790 LINE",
"61 0 LINE"
);
},
{
closed = 1;
nodes = (
"252 302 LINE SMOOTH",
"252 394 OFFCURVE",
"288 441 OFFCURVE",
"358 441 CURVE SMOOTH",
"429 441 OFFCURVE",
"466 389 OFFCURVE",
"466 292 CURVE SMOOTH",
"466 195 OFFCURVE",
"428 143 OFFCURVE",
"358 143 CURVE SMOOTH",
"288 143 OFFCURVE",
"252 189 OFFCURVE",
"252 281 CURVE SMOOTH"
);
}
);
width = 690;
},
{
anchors = (
{
name = bottom;
position = "{339, 0}";
},
{
name = top;
position = "{339, 750}";
}
);
layerId = "47995495-C855-4C5A-BA32-118EA0334940";
paths = (
{
closed = 1;
nodes = (
"178 0 LINE",
"185 96 LINE",
"217 30 OFFCURVE",
"288 -10 OFFCURVE",
"373 -10 CURVE SMOOTH",
"522 -10 OFFCURVE",
"615 102 OFFCURVE",
"615 279 CURVE SMOOTH",
"615 460 OFFCURVE",
"519 575 OFFCURVE",
"371 575 CURVE SMOOTH",
"290 575 OFFCURVE",
"224 542 OFFCURVE",
"186 474 CURVE",
"186 790 LINE",
"84 790 LINE",
"84 0 LINE"
);
},
{
closed = 1;
nodes = (
"186 310 LINE SMOOTH",
"186 418 OFFCURVE",
"250 487 OFFCURVE",
"350 487 CURVE SMOOTH",
"453 487 OFFCURVE",
"510 412 OFFCURVE",
"510 279 CURVE SMOOTH",
"510 151 OFFCURVE",
"452 78 OFFCURVE",
"351 78 CURVE SMOOTH",
"253 78 OFFCURVE",
"186 144 OFFCURVE",
"186 244 CURVE SMOOTH"
);
}
);
width = 659;
}
);
leftKerningGroup = b;
leftMetricsKey = "=h";
rightKerningGroup = o;
rightMetricsKey = "=o";
unicode = 0062;
},
{
color = 3;
glyphname = c;
layers = (
{
anchors = (
{
name = bottom;
position = "{297, 0}";
},
{
name = ogonek;
position = "{296, 0}";
},
{
name = top;
position = "{298, 557}";
}
);
layerId = "F114AD5B-DC62-4E73-AD12-1938E40AC8EF";
paths = (
{
closed = 1;
nodes = (
"419 -9 OFFCURVE",
"503 59 OFFCURVE",
"521 170 CURVE",
"457 176 LINE",
"443 97 OFFCURVE",
"384 51 OFFCURVE",
"295 51 CURVE SMOOTH",
"178 51 OFFCURVE",
"106 137 OFFCURVE",
"106 279 CURVE SMOOTH",
"106 421 OFFCURVE",
"178 507 OFFCURVE",
"295 507 CURVE SMOOTH",
"387 507 OFFCURVE",
"448 457 OFFCURVE",
"458 372 CURVE",
"523 378 LINE",
"508 495 OFFCURVE",
"422 567 OFFCURVE",
"298 567 CURVE SMOOTH",
"142 567 OFFCURVE",
"41 453 OFFCURVE",
"41 279 CURVE SMOOTH",
"41 105 OFFCURVE",
"142 -9 OFFCURVE",
"297 -9 CURVE SMOOTH"
);
}
);
width = 557;
},
{
anchors = (
{
name = bottom;
position = "{313, 0}";
},
{
name = ogonek;
position = "{332, 0}";
},
{
name = top;
position = "{313, 584}";
}
);
layerId = "E787E54A-EE3E-475A-BF02-8501A6DA5144";
paths = (
{
closed = 1;
nodes = (
"488 -10 OFFCURVE",
"600 80 OFFCURVE",
"611 215 CURVE",
"431 241 LINE",
"428 179 OFFCURVE",
"388 144 OFFCURVE",
"330 144 CURVE SMOOTH",
"262 144 OFFCURVE",
"224 203 OFFCURVE",
"224 292 CURVE SMOOTH",
"224 387 OFFCURVE",
"266 440 OFFCURVE",
"330 440 CURVE SMOOTH",
"386 440 OFFCURVE",
"421 407 OFFCURVE",
"427 358 CURVE",
"604 384 LINE",
"592 510 OFFCURVE",
"483 594 OFFCURVE",
"332 594 CURVE SMOOTH",
"151 594 OFFCURVE",
"30 473 OFFCURVE",
"30 292 CURVE SMOOTH",
"30 111 OFFCURVE",
"148 -10 OFFCURVE",
"328 -10 CURVE SMOOTH"
);
}
);
width = 636;
},
{
anchors = (
{
name = bottom;
position = "{291, 0}";
},
{
name = ogonek;
position = "{312, 0}";
},
{
name = top;
position = "{291, 565}";
}
);
layerId = "47995495-C855-4C5A-BA32-118EA0334940";
paths = (
{
closed = 1;
nodes = (
"443 -9 OFFCURVE",
"535 67 OFFCURVE",
"550 184 CURVE",
"450 196 LINE",
"440 122 OFFCURVE",
"387 80 OFFCURVE",
"309 80 CURVE SMOOTH",
"209 80 OFFCURVE",
"148 157 OFFCURVE",
"148 283 CURVE SMOOTH",
"148 410 OFFCURVE",
"210 486 OFFCURVE",
"309 486 CURVE SMOOTH",
"386 486 OFFCURVE",
"440 444 OFFCURVE",
"450 368 CURVE",
"550 380 LINE",
"535 499 OFFCURVE",
"443 575 OFFCURVE",
"312 575 CURVE SMOOTH",
"150 575 OFFCURVE",
"43 460 OFFCURVE",
"43 283 CURVE SMOOTH",
"43 107 OFFCURVE",
"148 -9 OFFCURVE",
"310 -9 CURVE SMOOTH"
);
}
);
width = 587;
}
);
leftKerningGroup = c;
leftMetricsKey = o;
rightKerningGroup = c;
unicode = 0063;
},
{
color = 3;
glyphname = d;
layers = (
{
anchors = (
{
name = bottom;
position = "{302, 0}";
},
{
name = center;
position = "{479, 666}";
},
{
name = top;
position = "{302, 750}";
},
{
name = topright;
position = "{597, 557}";
}
);
layerId = "F114AD5B-DC62-4E73-AD12-1938E40AC8EF";
paths = (
{
closed = 1;
nodes = (
"41 100 OFFCURVE",
"132 -10 OFFCURVE",
"280 -10 CURVE SMOOTH",
"372 -10 OFFCURVE",
"445 34 OFFCURVE",
"477 105 CURVE",
"483 0 LINE",
"541 0 LINE",
"541 790 LINE",
"479 790 LINE",
"479 455 LINE",
"443 525 OFFCURVE",
"372 567 OFFCURVE",
"282 567 CURVE SMOOTH",
"135 567 OFFCURVE",
"41 453 OFFCURVE",
"41 274 CURVE SMOOTH"
);
},
{
closed = 1;
nodes = (
"106 423 OFFCURVE",
"172 507 OFFCURVE",
"289 507 CURVE SMOOTH",
"403 507 OFFCURVE",
"479 429 OFFCURVE",
"479 314 CURVE SMOOTH",
"479 237 LINE SMOOTH",
"479 126 OFFCURVE",
"400 49 OFFCURVE",
"287 49 CURVE SMOOTH",
"172 49 OFFCURVE",
"106 130 OFFCURVE",
"106 273 CURVE SMOOTH"
);
}
);
width = 612;
},
{
anchors = (
{
name = bottom;
position = "{337, 0}";
},
{
name = center;
position = "{514, 680}";
},
{
name = top;
position = "{337, 750}";
},
{
name = topright;
position = "{659, 584}";
}
);
layerId = "E787E54A-EE3E-475A-BF02-8501A6DA5144";
paths = (
{
closed = 1;
nodes = (
"30 106 OFFCURVE",
"125 -10 OFFCURVE",
"275 -10 CURVE SMOOTH",
"348 -10 OFFCURVE",
"415 20 OFFCURVE",
"444 76 CURVE",
"453 0 LINE",
"629 0 LINE",
"629 790 LINE",
"438 790 LINE",
"438 515 LINE",
"406 570 OFFCURVE",
"351 594 OFFCURVE",
"280 594 CURVE SMOOTH",
"127 594 OFFCURVE",
"30 476 OFFCURVE",
"30 290 CURVE SMOOTH"
);
},
{
closed = 1;
nodes = (
"224 389 OFFCURVE",
"261 441 OFFCURVE",
"332 441 CURVE SMOOTH",
"402 441 OFFCURVE",
"438 394 OFFCURVE",
"438 302 CURVE SMOOTH",
"438 281 LINE SMOOTH",
"438 189 OFFCURVE",
"402 143 OFFCURVE",
"332 143 CURVE SMOOTH",
"262 143 OFFCURVE",
"224 195 OFFCURVE",
"224 292 CURVE SMOOTH"
);
}
);
width = 692;
},
{
anchors = (
{
name = bottom;
position = "{319, 0}";
},
{
name = center;
position = "{488, 658}";
},
{
name = top;
position = "{319, 750}";
},
{
name = topright;
position = "{622, 565}";
}
);
layerId = "47995495-C855-4C5A-BA32-118EA0334940";
paths = (
{
closed = 1;
nodes = (
"43 102 OFFCURVE",
"135 -10 OFFCURVE",
"284 -10 CURVE SMOOTH",
"370 -10 OFFCURVE",
"440 30 OFFCURVE",
"472 96 CURVE",
"479 0 LINE",
"574 0 LINE",
"574 790 LINE",
"472 790 LINE",
"472 474 LINE",
"436 539 OFFCURVE",
"372 575 OFFCURVE",
"287 575 CURVE SMOOTH",
"139 575 OFFCURVE",
"43 460 OFFCURVE",
"43 279 CURVE SMOOTH"
);
},
{
closed = 1;
nodes = (
"148 412 OFFCURVE",
"205 487 OFFCURVE",
"307 487 CURVE SMOOTH",
"408 487 OFFCURVE",
"472 418 OFFCURVE",
"472 310 CURVE SMOOTH",
"472 250 LINE SMOOTH",
"472 146 OFFCURVE",
"406 78 OFFCURVE",
"306 78 CURVE SMOOTH",
"205 78 OFFCURVE",
"148 150 OFFCURVE",
"148 279 CURVE SMOOTH"
);
}
);
width = 657;
}
);
leftKerningGroup = c;
leftMetricsKey = "=o";
rightKerningGroup = d;
unicode = 0064;
},
{
glyphname = eth;
layers = (
{
anchors = (
{
name = bottom;
position = "{297, 0}";
},
{
name = center;
position = "{297, 255}";
},
{
name = ogonek;
position = "{528, 10}";
},
{
name = top;
position = "{297, 511}";
},
{
name = topright;
position = "{565, 511}";
}
);
layerId = "F114AD5B-DC62-4E73-AD12-1938E40AC8EF";
paths = (
{
closed = 1;
nodes = (
"407 603 OFFCURVE",
"209 790 CURVE",
"129 790 LINE",
"129 785 LINE",
"250 666 OFFCURVE",
"331 589 OFFCURVE",
"399 508 CURVE",
"373 525 OFFCURVE",
"335 535 OFFCURVE",
"297 535 CURVE SMOOTH",
"140 535 OFFCURVE",
"41 431 OFFCURVE",
"41 267 CURVE SMOOTH",
"41 109 OFFCURVE",
"145 0 OFFCURVE",
"296 0 CURVE SMOOTH",
"452 0 OFFCURVE",
"551 105 OFFCURVE",
"551 272 CURVE SMOOTH",
"551 446 OFFCURVE"
);
},
{
closed = 1;
nodes = (
"106 404 OFFCURVE",
"177 482 OFFCURVE",
"297 482 CURVE SMOOTH",
"416 482 OFFCURVE",
"486 404 OFFCURVE",
"486 272 CURVE SMOOTH",
"486 138 OFFCURVE",
"416 59 OFFCURVE",
"296 59 CURVE SMOOTH",
"176 59 OFFCURVE",
"106 138 OFFCURVE",
"106 272 CURVE SMOOTH"
);
},
{
closed = 1;
nodes = (
"164 624 LINE",
"186 583 LINE",
"295 638 LINE",
"259 672 LINE"
);
},
{
closed = 1;
nodes = (
"447 714 LINE",
"425 755 LINE",
"293 689 LINE",
"328 655 LINE"
);
}
);
width = 592;
},
{
anchors = (
{
name = bottom;
position = "{324, 0}";
},
{
name = center;
position = "{324, 270}";
},
{
name = ogonek;
position = "{562, 10}";
},
{
name = top;
position = "{324, 540}";
},
{
name = topright;
position = "{600, 540}";
}
);
layerId = "E787E54A-EE3E-475A-BF02-8501A6DA5144";
paths = (
{
closed = 1;
nodes = (
"491 640 OFFCURVE",
"309 790 CURVE",
"140 790 LINE",
"140 779 LINE",
"239 670 OFFCURVE",
"301 594 OFFCURVE",
"347 519 CURVE",
"330 526 OFFCURVE",
"309 529 OFFCURVE",
"285 529 CURVE SMOOTH",
"132 529 OFFCURVE",
"30 420 OFFCURVE",
"30 256 CURVE SMOOTH",
"30 97 OFFCURVE",
"143 -9 OFFCURVE",
"314 -9 CURVE SMOOTH",
"491 -9 OFFCURVE",
"612 107 OFFCURVE",
"612 286 CURVE SMOOTH",
"612 444 OFFCURVE"
);
},
{
closed = 1;
nodes = (
"223 354 OFFCURVE",
"258 399 OFFCURVE",
"323 399 CURVE SMOOTH",
"387 399 OFFCURVE",
"422 354 OFFCURVE",
"422 273 CURVE SMOOTH",
"422 190 OFFCURVE",
"386 144 OFFCURVE",
"322 144 CURVE SMOOTH",
"259 144 OFFCURVE",
"223 191 OFFCURVE",
"223 273 CURVE SMOOTH"
);
},
{
closed = 1;
nodes = (
"164 639 LINE",
"199 557 LINE",
"312 600 LINE",
"254 674 LINE"
);
},
{
closed = 1;
nodes = (
"509 676 LINE",
"474 758 LINE",
"364 715 LINE",
"434 647 LINE"
);
}
);
width = 642;
},
{
anchors = (
{
name = bottom;
position = "{312, 0}";
},
{
name = center;
position = "{312, 260}";
},
{
name = ogonek;
position = "{545, 10}";
},
{
name = top;
position = "{312, 520}";
},
{
name = topright;
position = "{582, 520}";
}
);
layerId = "47995495-C855-4C5A-BA32-118EA0334940";
paths = (
{
closed = 1;
nodes = (
"433 626 OFFCURVE",
"246 790 CURVE",
"145 790 LINE",
"145 784 LINE",
"249 680 OFFCURVE",
"342 574 OFFCURVE",
"389 512 CURVE",
"366 525 OFFCURVE",
"335 534 OFFCURVE",
"300 534 CURVE SMOOTH",
"143 534 OFFCURVE",
"43 427 OFFCURVE",
"43 263 CURVE SMOOTH",
"43 105 OFFCURVE",
"150 -3 OFFCURVE",
"308 -3 CURVE SMOOTH",
"470 -3 OFFCURVE",
"576 105 OFFCURVE",
"576 283 CURVE SMOOTH",
"576 443 OFFCURVE"
);
},
{
closed = 1;
nodes = (
"148 388 OFFCURVE",
"208 457 OFFCURVE",
"311 457 CURVE SMOOTH",
"413 457 OFFCURVE",
"472 387 OFFCURVE",
"472 272 CURVE SMOOTH",
"472 154 OFFCURVE",
"412 86 OFFCURVE",
"310 86 CURVE SMOOTH",
"208 86 OFFCURVE",
"148 154 OFFCURVE",
"148 272 CURVE SMOOTH"
);
},
{
closed = 1;
nodes = (
"171 629 LINE",
"197 575 LINE",
"309 626 LINE",
"272 672 LINE"
);
},
{
closed = 1;
nodes = (
"473 702 LINE",
"447 756 LINE",
"319 695 LINE",
"365 651 LINE"
);
}
);
width = 620;
}
);
leftKerningGroup = o;
leftMetricsKey = "=o";
rightKerningGroup = o;
rightMetricsKey = "=o";
unicode = 00F0;
},
{
glyphname = dcaron;
layers = (
{
components = (
{
name = d;
}
);
layerId = "F114AD5B-DC62-4E73-AD12-1938E40AC8EF";
paths = (
{
closed = 1;
nodes = (
"682 558 LINE SMOOTH",
"743 558 OFFCURVE",
"777 586 OFFCURVE",
"777 640 CURVE SMOOTH",
"777 790 LINE",
"675 790 LINE",
"675 681 LINE",
"733 681 LINE",
"733 649 LINE SMOOTH",
"733 623 OFFCURVE",
"717 606 OFFCURVE",
"682 606 CURVE SMOOTH",
"668 606 LINE",
"668 558 LINE"
);
}
);
width = 704;
},
{
components = (
{
name = d;
transform = "{1, 0, 0, 1, 16, 0}";
}
);
layerId = "E787E54A-EE3E-475A-BF02-8501A6DA5144";
paths = (
{
closed = 1;
nodes = (
"735 449 LINE SMOOTH",
"811 449 OFFCURVE",
"861 495 OFFCURVE",
"861 577 CURVE SMOOTH",
"861 789 LINE",
"689 789 LINE",
"689 616 LINE",
"772 616 LINE",
"772 600 LINE SMOOTH",
"772 560 OFFCURVE",
"748 544 OFFCURVE",
"698 544 CURVE SMOOTH",
"670 544 LINE",
"670 449 LINE"
);
}
);
width = 881;
},
{
components = (
{
alignment = -1;
name = d;
transform = "{1, 0, 0, 1, 2, 0}";
}
);
layerId = "47995495-C855-4C5A-BA32-118EA0334940";
paths = (
{
closed = 1;
nodes = (
"694 525 LINE SMOOTH",
"759 525 OFFCURVE",
"798 558 OFFCURVE",
"798 620 CURVE SMOOTH",
"798 790 LINE",
"675 790 LINE",
"675 661 LINE",
"740 661 LINE",
"740 634 LINE SMOOTH",
"740 603 OFFCURVE",
"722 587 OFFCURVE",
"682 587 CURVE SMOOTH",
"664 587 LINE",
"664 525 LINE"
);
}
);
width = 694;
}
);
leftKerningGroup = o;
rightKerningGroup = dcaron;
unicode = 010F;
},
{
color = 3;
glyphname = e;
layers = (
{
anchors = (
{
name = bottom;
position = "{295, 0}";
},
{
name = ogonek;
position = "{370, 0}";
},
{
name = top;
position = "{295, 557}";
}
);
layerId = "F114AD5B-DC62-4E73-AD12-1938E40AC8EF";
paths = (
{
closed = 1;
nodes = (
"413 -10 OFFCURVE",
"501 49 OFFCURVE",
"525 156 CURVE",
"463 169 LINE",
"446 97 OFFCURVE",
"390 50 OFFCURVE",
"296 50 CURVE SMOOTH",
"180 50 OFFCURVE",
"104 128 OFFCURVE",
"106 266 CURVE",
"527 266 LINE",
"535 447 OFFCURVE",
"448 567 OFFCURVE",
"288 567 CURVE SMOOTH",
"131 567 OFFCURVE",
"41 451 OFFCURVE",
"41 278 CURVE SMOOTH",
"41 96 OFFCURVE",
"141 -10 OFFCURVE",
"295 -10 CURVE SMOOTH"
);
},
{
closed = 1;
nodes = (
"111 441 OFFCURVE",
"182 510 OFFCURVE",
"289 510 CURVE SMOOTH",
"393 510 OFFCURVE",
"462 433 OFFCURVE",
"462 318 CURVE",
"106 318 LINE"
);
}
);
width = 555;
},
{
anchors = (
{
name = bottom;
position = "{327, 0}";
},
{
name = ogonek;
position = "{456, 10}";
},
{
name = top;
position = "{329, 584}";
}
);
background = {
paths = (
{
closed = 1;
nodes = (
"488 -10 OFFCURVE",
"600 80 OFFCURVE",
"611 215 CURVE",
"431 241 LINE",
"428 179 OFFCURVE",
"388 144 OFFCURVE",
"330 144 CURVE SMOOTH",
"262 144 OFFCURVE",
"224 203 OFFCURVE",
"224 292 CURVE SMOOTH",
"224 387 OFFCURVE",
"266 440 OFFCURVE",
"330 440 CURVE SMOOTH",
"386 440 OFFCURVE",
"421 407 OFFCURVE",
"427 358 CURVE",
"604 384 LINE",
"592 510 OFFCURVE",
"483 594 OFFCURVE",
"332 594 CURVE SMOOTH",
"151 594 OFFCURVE",
"30 473 OFFCURVE",
"30 292 CURVE SMOOTH",
"30 111 OFFCURVE",
"148 -10 OFFCURVE",
"328 -10 CURVE SMOOTH"
);
}
);
};
layerId = "E787E54A-EE3E-475A-BF02-8501A6DA5144";
paths = (
{
closed = 1;
nodes = (
"470 -10 OFFCURVE",
"580 56 OFFCURVE",
"612 155 CURVE",
"450 198 LINE",
"434 158 OFFCURVE",
"396 132 OFFCURVE",
"340 132 CURVE SMOOTH",
"276 132 OFFCURVE",
"229 165 OFFCURVE",
"224 236 CURVE",
"613 236 LINE",
"636 460 OFFCURVE",
"521 594 OFFCURVE",
"331 594 CURVE SMOOTH",
"152 594 OFFCURVE",
"30 475 OFFCURVE",
"30 290 CURVE SMOOTH",
"30 98 OFFCURVE",
"162 -10 OFFCURVE",
"335 -10 CURVE SMOOTH"
);
},
{
closed = 1;
nodes = (
"226 412 OFFCURVE",
"264 453 OFFCURVE",
"324 453 CURVE SMOOTH",
"379 453 OFFCURVE",
"420 416 OFFCURVE",
"421 355 CURVE",
"224 355 LINE"
);
}
);
width = 647;
},
{
anchors = (
{
name = bottom;
position = "{309, 0}";
},
{
name = ogonek;
position = "{400, 3}";
},
{
name = top;
position = "{310, 565}";
}
);
layerId = "47995495-C855-4C5A-BA32-118EA0334940";
paths = (
{
closed = 1;
nodes = (
"439 -10 OFFCURVE",
"527 54 OFFCURVE",
"554 153 CURVE",
"463 174 LINE",
"443 114 OFFCURVE",
"391 75 OFFCURVE",
"312 75 CURVE SMOOTH",
"214 75 OFFCURVE",
"148 136 OFFCURVE",
"148 257 CURVE",
"558 257 LINE",
"569 444 OFFCURVE",
"475 575 OFFCURVE",
"303 575 CURVE SMOOTH",
"142 575 OFFCURVE",
"43 459 OFFCURVE",
"43 282 CURVE SMOOTH",
"43 97 OFFCURVE",
"151 -10 OFFCURVE",
"310 -10 CURVE SMOOTH"
);
},
{
closed = 1;
nodes = (
"152 437 OFFCURVE",
"215 494 OFFCURVE",
"301 494 CURVE SMOOTH",
"393 494 OFFCURVE",
"452 429 OFFCURVE",
"453 330 CURVE",
"148 330 LINE"
);
}
);
width = 595;
}
);
leftKerningGroup = c;
rightKerningGroup = e;
unicode = 0065;
},
{
color = 3;
glyphname = f;
layers = (
{
layerId = "F114AD5B-DC62-4E73-AD12-1938E40AC8EF";
paths = (
{
closed = 1;
nodes = (
"7 503 LINE",
"85 503 LINE",
"85 0 LINE",
"147 0 LINE",
"147 503 LINE",
"240 503 LINE",
"240 557 LINE",
"147 557 LINE",
"147 674 LINE SMOOTH",
"147 716 OFFCURVE",
"165 738 OFFCURVE",
"208 738 CURVE SMOOTH",
"217 738 OFFCURVE",
"225 737 OFFCURVE",
"234 734 CURVE",
"238 734 LINE",
"238 790 LINE",
"230 794 OFFCURVE",
"212 796 OFFCURVE",
"195 796 CURVE SMOOTH",
"137 796 OFFCURVE",
"85 766 OFFCURVE",
"85 681 CURVE SMOOTH",
"85 557 LINE",
"7 557 LINE"
);
}
);
width = 255;
},
{
layerId = "E787E54A-EE3E-475A-BF02-8501A6DA5144";
paths = (
{
closed = 1;
nodes = (
"23 451 LINE",
"106 451 LINE",
"106 0 LINE",
"292 0 LINE",
"292 451 LINE",
"393 451 LINE",
"393 584 LINE",
"292 584 LINE",
"292 607 LINE SMOOTH",
"292 645 OFFCURVE",
"319 657 OFFCURVE",
"355 657 CURVE SMOOTH",
"367 657 OFFCURVE",
"378 656 OFFCURVE",
"384 654 CURVE",
"391 654 LINE",
"391 792 LINE",
"378 797 OFFCURVE",
"343 800 OFFCURVE",
"305 800 CURVE SMOOTH",
"180 800 OFFCURVE",
"106 742 OFFCURVE",
"106 622 CURVE SMOOTH",
"106 584 LINE",
"23 584 LINE"
);
}
);
width = 416;
},
{
layerId = "47995495-C855-4C5A-BA32-118EA0334940";
paths = (
{
closed = 1;
nodes = (
"10 485 LINE",
"92 485 LINE",
"92 0 LINE",
"193 0 LINE",
"193 485 LINE",
"310 485 LINE",
"310 565 LINE",
"193 565 LINE",
"193 631 LINE SMOOTH",
"193 689 OFFCURVE",
"219 706 OFFCURVE",
"276 706 CURVE SMOOTH",
"284 706 OFFCURVE",
"293 706 OFFCURVE",
"302 704 CURVE",
"308 704 LINE",
"308 790 LINE",
"298 793 OFFCURVE",
"279 795 OFFCURVE",
"254 795 CURVE SMOOTH",
"146 795 OFFCURVE",
"92 737 OFFCURVE",
"92 647 CURVE SMOOTH",
"92 565 LINE",
"10 565 LINE"
);
}
);
width = 320;
}
);
leftKerningGroup = f;
rightKerningGroup = f;
unicode = 0066;
},
{
glyphname = g;
layers = (
{
anchors = (
{
name = bottom;
position = "{1009, -195}";
},
{
name = top;
position = "{292, 557}";
}
);
background = {
paths = (
{
closed = 1;
nodes = (
"55 135 OFFCURVE",
"143 28 OFFCURVE",
"280 28 CURVE SMOOTH",
"366 28 OFFCURVE",
"436 68 OFFCURVE",
"466 134 CURVE",
"466 28 LINE SMOOTH",
"466 -68 OFFCURVE",
"398 -122 OFFCURVE",
"295 -122 CURVE SMOOTH",
"209 -122 OFFCURVE",
"157 -89 OFFCURVE",
"150 -31 CURVE",
"89 -41 LINE",
"106 -133 OFFCURVE",
"188 -177 OFFCURVE",
"298 -177 CURVE SMOOTH",
"436 -177 OFFCURVE",
"528 -93 OFFCURVE",
"528 32 CURVE SMOOTH",
"528 557 LINE",
"469 557 LINE",
"464 458 LINE",
"438 525 OFFCURVE",
"367 567 OFFCURVE",
"279 567 CURVE SMOOTH",
"141 567 OFFCURVE",
"55 465 OFFCURVE",
"55 302 CURVE SMOOTH"
);
},
{
closed = 1;
nodes = (
"120 433 OFFCURVE",
"181 508 OFFCURVE",
"288 508 CURVE SMOOTH",
"393 508 OFFCURVE",
"466 436 OFFCURVE",
"466 334 CURVE SMOOTH",
"466 267 LINE SMOOTH",
"466 160 OFFCURVE",
"395 88 OFFCURVE",
"290 88 CURVE SMOOTH",
"182 88 OFFCURVE",
"120 166 OFFCURVE",
"120 303 CURVE SMOOTH"
);
}
);
};
layerId = "F114AD5B-DC62-4E73-AD12-1938E40AC8EF";
paths = (
{
closed = 1;
nodes = (
"439 -181 OFFCURVE",
"515 -101 OFFCURVE",
"515 19 CURVE SMOOTH",
"515 557 LINE",
"457 557 LINE",
"451 452 LINE",
"420 523 OFFCURVE",
"351 567 OFFCURVE",
"265 567 CURVE SMOOTH",
"125 567 OFFCURVE",
"41 455 OFFCURVE",
"41 304 CURVE SMOOTH",
"41 150 OFFCURVE",
"128 36 OFFCURVE",
"269 36 CURVE SMOOTH",
"352 36 OFFCURVE",
"418 77 OFFCURVE",
"453 148 CURVE",
"453 19 LINE SMOOTH",
"453 -85 OFFCURVE",
"384 -125 OFFCURVE",
"280 -125 CURVE SMOOTH",
"182 -125 OFFCURVE",
"127 -85 OFFCURVE",
"114 -26 CURVE",
"53 -36 LINE",
"70 -123 OFFCURVE",
"145 -181 OFFCURVE",
"276 -181 CURVE SMOOTH"
);
},
{
closed = 1;
nodes = (
"170 96 OFFCURVE",
"106 174 OFFCURVE",
"106 303 CURVE SMOOTH",
"106 427 OFFCURVE",
"166 508 OFFCURVE",
"272 508 CURVE SMOOTH",
"377 508 OFFCURVE",
"453 431 OFFCURVE",
"453 328 CURVE SMOOTH",
"453 281 LINE SMOOTH",
"453 176 OFFCURVE",
"382 96 OFFCURVE",
"275 96 CURVE SMOOTH"
);
}
);
width = 586;
},
{
anchors = (
{
name = bottom;
position = "{73, 54}";
},
{
name = top;
position = "{318, 584}";
}
);
layerId = "E787E54A-EE3E-475A-BF02-8501A6DA5144";
paths = (
{
closed = 1;
nodes = (
"481 -177 OFFCURVE",
"606 -106 OFFCURVE",
"606 45 CURVE SMOOTH",
"606 584 LINE",
"430 584 LINE",
"422 512 LINE",
"395 564 OFFCURVE",
"330 593 OFFCURVE",
"261 593 CURVE SMOOTH",
"121 593 OFFCURVE",
"30 486 OFFCURVE",
"30 321 CURVE SMOOTH",
"30 154 OFFCURVE",
"123 46 OFFCURVE",
"266 46 CURVE SMOOTH",
"331 46 OFFCURVE",
"386 70 OFFCURVE",
"416 121 CURVE",
"416 34 LINE SMOOTH",
"416 -16 OFFCURVE",
"381 -44 OFFCURVE",
"319 -44 CURVE SMOOTH",
"276 -44 OFFCURVE",
"244 -29 OFFCURVE",
"237 2 CURVE",
"51 -24 LINE",
"70 -116 OFFCURVE",
"162 -177 OFFCURVE",
"310 -177 CURVE SMOOTH"
);
},
{
closed = 1;
nodes = (
"257 189 OFFCURVE",
"222 236 OFFCURVE",
"222 320 CURVE SMOOTH",
"222 404 OFFCURVE",
"257 450 OFFCURVE",
"320 450 CURVE SMOOTH",
"382 450 OFFCURVE",
"416 408 OFFCURVE",
"416 330 CURVE SMOOTH",
"416 310 LINE SMOOTH",
"416 233 OFFCURVE",
"381 189 OFFCURVE",
"320 189 CURVE SMOOTH"
);
}
);
width = 668;
},
{
anchors = (
{
name = bottom;
position = "{745, -118}";
},
{
name = top;
position = "{307, 565}";
}
);
layerId = "47995495-C855-4C5A-BA32-118EA0334940";
paths = (
{
closed = 1;
nodes = (
"469 -177 OFFCURVE",
"552 -93 OFFCURVE",
"552 33 CURVE SMOOTH",
"552 565 LINE",
"457 565 LINE",
"451 472 LINE",
"421 536 OFFCURVE",
"353 575 OFFCURVE",
"270 575 CURVE SMOOTH",
"130 575 OFFCURVE",
"43 466 OFFCURVE",
"43 313 CURVE SMOOTH",
"43 158 OFFCURVE",
"132 46 OFFCURVE",
"275 46 CURVE SMOOTH",
"354 46 OFFCURVE",
"416 82 OFFCURVE",
"451 144 CURVE",
"451 31 LINE SMOOTH",
"451 -62 OFFCURVE",
"390 -98 OFFCURVE",
"298 -98 CURVE SMOOTH",
"226 -98 OFFCURVE",
"172 -75 OFFCURVE",
"158 -15 CURVE",
"61 -30 LINE",
"76 -118 OFFCURVE",
"152 -177 OFFCURVE",
"293 -177 CURVE SMOOTH"
);
},
{
closed = 1;
nodes = (
"199 131 OFFCURVE",
"148 205 OFFCURVE",
"148 312 CURVE SMOOTH",
"148 420 OFFCURVE",
"200 490 OFFCURVE",
"294 490 CURVE SMOOTH",
"387 490 OFFCURVE",
"451 424 OFFCURVE",
"451 332 CURVE SMOOTH",
"451 294 LINE SMOOTH",
"451 201 OFFCURVE",
"389 131 OFFCURVE",
"297 131 CURVE SMOOTH"
);
}
);
width = 629;
}
);
leftKerningGroup = c;
leftMetricsKey = c;
rightKerningGroup = q;
unicode = 0067;
},
{
color = 3;
glyphname = h;
layers = (
{
anchors = (
{
name = bottom;
position = "{297, 0}";
},
{
name = center;
position = "{134, 666}";
},
{
name = top;
position = "{297, 750}";
}
);
layerId = "F114AD5B-DC62-4E73-AD12-1938E40AC8EF";
paths = (
{
closed = 1;
nodes = (
"134 0 LINE",
"134 313 LINE SMOOTH",
"134 435 OFFCURVE",
"206 507 OFFCURVE",
"315 507 CURVE SMOOTH",
"400 507 OFFCURVE",
"457 463 OFFCURVE",
"457 370 CURVE SMOOTH",
"457 0 LINE",
"520 0 LINE",
"520 379 LINE SMOOTH",
"520 492 OFFCURVE",
"450 567 OFFCURVE",
"327 567 CURVE SMOOTH",
"247 567 OFFCURVE",
"180 538 OFFCURVE",
"134 461 CURVE",
"134 790 LINE",
"71 790 LINE",
"71 0 LINE"
);
}
);
width = 591;
},
{
anchors = (
{
name = bottom;
position = "{336, 0}";
},
{
name = center;
position = "{177, 680}";
},
{
name = top;
position = "{336, 750}";
}
);
background = {
paths = (
{
closed = 1;
nodes = (
"247 0 LINE",
"247 314 LINE SMOOTH",
"247 393 OFFCURVE",
"280 430 OFFCURVE",
"349 430 CURVE SMOOTH",
"407 430 OFFCURVE",
"430 392 OFFCURVE",
"430 336 CURVE SMOOTH",
"430 0 LINE",
"621 0 LINE",
"621 383 LINE SMOOTH",
"621 518 OFFCURVE",
"537 594 OFFCURVE",
"411 594 CURVE SMOOTH",
"339 594 OFFCURVE",
"283 571 OFFCURVE",
"237 518 CURVE",
"232 584 LINE",
"56 584 LINE",
"56 0 LINE"
);
}
);
};
layerId = "E787E54A-EE3E-475A-BF02-8501A6DA5144";
paths = (
{
closed = 1;
nodes = (
"252 0 LINE",
"252 344 LINE",
"259 396 OFFCURVE",
"293 430 OFFCURVE",
"339 430 CURVE SMOOTH",
"385 430 OFFCURVE",
"415 408 OFFCURVE",
"415 361 CURVE SMOOTH",
"415 0 LINE",
"606 0 LINE",
"606 396 LINE SMOOTH",
"606 522 OFFCURVE",
"533 594 OFFCURVE",
"412 594 CURVE SMOOTH",
"340 594 OFFCURVE",
"292 573 OFFCURVE",
"252 523 CURVE",
"252 790 LINE",
"61 790 LINE",
"61 0 LINE"
);
}
);
width = 658;
},
{
anchors = (
{
name = bottom;
position = "{325, 0}";
},
{
name = center;
position = "{170, 658}";
},
{
name = top;
position = "{325, 750}";
}
);
layerId = "47995495-C855-4C5A-BA32-118EA0334940";
paths = (
{
closed = 1;
nodes = (
"187 0 LINE",
"187 336 LINE SMOOTH",
"187 428 OFFCURVE",
"256 483 OFFCURVE",
"339 483 CURVE SMOOTH",
"420 483 OFFCURVE",
"460 438 OFFCURVE",
"460 368 CURVE SMOOTH",
"460 0 LINE",
"562 0 LINE",
"562 378 LINE SMOOTH",
"562 511 OFFCURVE",
"481 575 OFFCURVE",
"368 575 CURVE SMOOTH",
"292 575 OFFCURVE",
"234 546 OFFCURVE",
"187 484 CURVE",
"187 790 LINE",
"84 790 LINE",
"84 0 LINE"
);
}
);
width = 640;
}
);
leftKerningGroup = b;
leftMetricsKey = "=n";
rightKerningGroup = n;
rightMetricsKey = "=n";
unicode = 0068;
},
{
color = 3;
glyphname = i;
layers = (
{
anchors = (
{
name = bottom;
position = "{105, 0}";
},
{
name = ogonek;
position = "{132, 0}";
}
);
layerId = "F114AD5B-DC62-4E73-AD12-1938E40AC8EF";
paths = (
{
closed = 1;
nodes = (
"135 656 LINE",
"135 790 LINE",
"73 790 LINE",
"73 656 LINE"
);
},
{
closed = 1;
nodes = (
"135 0 LINE",
"135 557 LINE",
"73 557 LINE",
"73 0 LINE"
);
}
);
width = 208;
},
{
anchors = (
{
name = bottom;
position = "{159, 0}";
},
{
name = ogonek;
position = "{252, 0}";
}
);
layerId = "E787E54A-EE3E-475A-BF02-8501A6DA5144";
paths = (
{
closed = 1;
nodes = (
"252 636 LINE",
"252 790 LINE",
"63 790 LINE",
"63 636 LINE"
);
},
{
closed = 1;
nodes = (
"252 0 LINE",
"252 584 LINE",
"63 584 LINE",
"63 0 LINE"
);
}
);
width = 315;
},
{
anchors = (
{
name = bottom;
position = "{135, 0}";
},
{
name = ogonek;
position = "{181, 0}";
}
);
layerId = "47995495-C855-4C5A-BA32-118EA0334940";
paths = (
{
closed = 1;
nodes = (
"185 652 LINE",
"185 792 LINE",
"83 792 LINE",
"83 652 LINE"
);
},
{
closed = 1;
nodes = (
"185 0 LINE",
"185 565 LINE",
"83 565 LINE",
"83 0 LINE"
);
}
);
width = 268;
}
);
leftKerningGroup = b;
rightKerningGroup = i;
unicode = 0069;
},
{
glyphname = idotless;
layers = (
{
anchors = (
{
name = bottom;
position = "{103, 0}";
},
{
name = ogonek;
position = "{129, 0}";
},
{
name = top;
position = "{103, 557}";
}
);
layerId = "F114AD5B-DC62-4E73-AD12-1938E40AC8EF";
paths = (
{
closed = 1;
nodes = (
"134 0 LINE",
"134 557 LINE",
"71 557 LINE",
"71 0 LINE"
);
}
);
width = 205;
},
{
anchors = (
{
name = bottom;
position = "{178, 0}";
},
{
name = ogonek;
position = "{252, 0}";
},
{
name = top;
position = "{157, 584}";
}
);
layerId = "E787E54A-EE3E-475A-BF02-8501A6DA5144";
paths = (
{
closed = 1;
nodes = (
"250 0 LINE",
"250 584 LINE",
"61 584 LINE",
"61 0 LINE"
);
}
);
width = 311;
},
{
anchors = (
{
name = bottom;
position = "{143, 0}";
},
{
name = ogonek;
position = "{183, 0}";
},
{
name = top;
position = "{136, 565}";
}
);
layerId = "47995495-C855-4C5A-BA32-118EA0334940";
paths = (
{
closed = 1;
nodes = (
"187 0 LINE",
"187 565 LINE",
"84 565 LINE",
"84 0 LINE"
);
}
);
width = 271;
}
);
leftKerningGroup = b;
leftMetricsKey = "=n";
rightKerningGroup = i;
rightMetricsKey = "=|n";
unicode = 0131;
},
{
color = 3;
glyphname = j;
layers = (
{
layerId = "F114AD5B-DC62-4E73-AD12-1938E40AC8EF";
paths = (
{
closed = 1;
nodes = (
"144 656 LINE",
"144 790 LINE",
"82 790 LINE",
"82 656 LINE"
);
},
{
closed = 1;
nodes = (
"96 -172 OFFCURVE",
"144 -130 OFFCURVE",
"144 -52 CURVE SMOOTH",
"144 557 LINE",
"82 557 LINE",
"82 -32 LINE SMOOTH",
"82 -89 OFFCURVE",
"57 -115 OFFCURVE",
"4 -115 CURVE SMOOTH",
"-11 -115 OFFCURVE",
"-27 -113 OFFCURVE",
"-36 -110 CURVE",
"-36 -166 LINE",
"-23 -170 OFFCURVE",
"-6 -172 OFFCURVE",
"11 -172 CURVE SMOOTH"
);
}
);
width = 217;
},
{
layerId = "E787E54A-EE3E-475A-BF02-8501A6DA5144";
paths = (
{
closed = 1;
nodes = (
"252 636 LINE",
"252 790 LINE",
"63 790 LINE",
"63 636 LINE"
);
},
{
closed = 1;
nodes = (
"178 -177 OFFCURVE",
"252 -113 OFFCURVE",
"252 22 CURVE SMOOTH",
"252 584 LINE",
"63 584 LINE",
"63 35 LINE SMOOTH",
"63 -11 OFFCURVE",
"48 -35 OFFCURVE",
"2 -35 CURVE SMOOTH",
"-13 -35 OFFCURVE",
"-27 -34 OFFCURVE",
"-37 -31 CURVE",
"-37 -165 LINE",
"-20 -172 OFFCURVE",
"12 -177 OFFCURVE",
"46 -177 CURVE SMOOTH"
);
}
);
width = 315;
},
{
layerId = "47995495-C855-4C5A-BA32-118EA0334940";
paths = (
{
closed = 1;
nodes = (
"195 652 LINE",
"195 792 LINE",
"94 792 LINE",
"94 652 LINE"
);
},
{
closed = 1;
nodes = (
"139 -173 OFFCURVE",
"195 -125 OFFCURVE",
"195 -29 CURVE SMOOTH",
"195 565 LINE",
"94 565 LINE",
"94 -11 LINE SMOOTH",
"94 -65 OFFCURVE",
"72 -90 OFFCURVE",
"21 -90 CURVE SMOOTH",
"8 -90 OFFCURVE",
"-9 -89 OFFCURVE",
"-18 -86 CURVE",
"-18 -166 LINE",
"-4 -170 OFFCURVE",
"16 -173 OFFCURVE",
"40 -173 CURVE SMOOTH"
);
}
);
width = 278;
}
);
leftKerningGroup = j;
rightKerningGroup = j;
rightMetricsKey = "=i";
unicode = 006A;
},
{
glyphname = jdotless;
layers = (
{
anchors = (
{
name = top;
position = "{113, 557}";
}
);
layerId = "F114AD5B-DC62-4E73-AD12-1938E40AC8EF";
paths = (
{
closed = 1;
nodes = (
"96 -172 OFFCURVE",
"144 -130 OFFCURVE",
"144 -52 CURVE SMOOTH",
"144 557 LINE",
"82 557 LINE",
"82 -32 LINE SMOOTH",
"82 -89 OFFCURVE",
"57 -115 OFFCURVE",
"4 -115 CURVE SMOOTH",
"-11 -115 OFFCURVE",
"-27 -113 OFFCURVE",
"-36 -110 CURVE",
"-36 -166 LINE",
"-23 -170 OFFCURVE",
"-6 -172 OFFCURVE",
"11 -172 CURVE SMOOTH"
);
}
);
width = 217;
},
{
anchors = (
{
name = top;
position = "{157, 584}";
}
);
layerId = "E787E54A-EE3E-475A-BF02-8501A6DA5144";
paths = (
{
closed = 1;
nodes = (
"172 -187 OFFCURVE",
"252 -134 OFFCURVE",
"252 0 CURVE SMOOTH",
"252 584 LINE",
"63 584 LINE",
"63 31 LINE SMOOTH",
"63 -19 OFFCURVE",
"44 -45 OFFCURVE",
"2 -45 CURVE SMOOTH",
"-13 -45 OFFCURVE",
"-27 -44 OFFCURVE",
"-37 -41 CURVE",
"-37 -175 LINE",
"-20 -182 OFFCURVE",
"7 -187 OFFCURVE",
"46 -187 CURVE SMOOTH"
);
}
);
width = 315;
},
{
anchors = (
{
name = top;
position = "{145, 565}";
}
);
layerId = "47995495-C855-4C5A-BA32-118EA0334940";
paths = (
{
closed = 1;
nodes = (
"138 -176 OFFCURVE",
"195 -131 OFFCURVE",
"195 -36 CURVE SMOOTH",
"195 565 LINE",
"94 565 LINE",
"94 -12 LINE SMOOTH",
"94 -67 OFFCURVE",
"71 -94 OFFCURVE",
"21 -94 CURVE SMOOTH",
"9 -94 OFFCURVE",
"-9 -92 OFFCURVE",
"-18 -89 CURVE",
"-18 -169 LINE",
"-4 -174 OFFCURVE",
"18 -176 OFFCURVE",
"40 -176 CURVE SMOOTH"
);
}
);
width = 278;
}
);
leftKerningGroup = j;
leftMetricsKey = "=j";
rightKerningGroup = l;
rightMetricsKey = "=j";
unicode = 0237;
},
{
color = 3;
glyphname = k;
layers = (
{
anchors = (
{
name = bottom;
position = "{272, 0}";
},
{
name = top;
position = "{272, 750}";
}
);
layerId = "F114AD5B-DC62-4E73-AD12-1938E40AC8EF";
paths = (
{
closed = 1;
nodes = (
"134 0 LINE",
"134 207 LINE",
"243 307 LINE",
"460 0 LINE",
"532 0 LINE",
"288 345 LINE",
"501 557 LINE",
"430 557 LINE",
"134 273 LINE",
"134 790 LINE",
"71 790 LINE",
"71 0 LINE"
);
}
);
width = 522;
},
{
anchors = (
{
name = bottom;
position = "{338, 0}";
},
{
name = top;
position = "{338, 750}";
}
);
layerId = "E787E54A-EE3E-475A-BF02-8501A6DA5144";
paths = (
{
closed = 1;
nodes = (
"252 0 LINE",
"252 160 LINE",
"306 218 LINE",
"427 0 LINE",
"647 0 LINE",
"444 349 LINE",
"650 584 LINE",
"429 584 LINE",
"252 366 LINE",
"252 790 LINE",
"61 790 LINE",
"61 0 LINE"
);
}
);
width = 669;
},
{
anchors = (
{
name = bottom;
position = "{309, 0}";
},
{
name = top;
position = "{309, 750}";
}
);
layerId = "47995495-C855-4C5A-BA32-118EA0334940";
paths = (
{
closed = 1;
nodes = (
"187 0 LINE",
"187 192 LINE",
"279 279 LINE",
"465 0 LINE",
"584 0 LINE",
"353 346 LINE",
"563 565 LINE",
"446 565 LINE",
"187 302 LINE",
"187 790 LINE",
"84 790 LINE",
"84 0 LINE"
);
}
);
width = 601;
}
);
leftKerningGroup = b;
leftMetricsKey = "=h";
rightKerningGroup = k;
unicode = 006B;
},
{
color = 3;
glyphname = l;
layers = (
{
anchors = (
{
name = bottom;
position = "{102, 0}";
},
{
name = center;
position = "{102, 375}";
},
{
name = top;
position = "{102, 790}";
},
{
name = topright;
position = "{190, 750}";
}
);
layerId = "F114AD5B-DC62-4E73-AD12-1938E40AC8EF";
paths = (
{
closed = 1;
nodes = (
"133 0 LINE",
"133 790 LINE",
"71 790 LINE",
"71 0 LINE"
);
}
);
width = 206;
},
{
anchors = (
{
name = bottom;
position = "{159, 0}";
},
{
name = center;
position = "{159, 375}";
},
{
name = top;
position = "{159, 790}";
},
{
name = topright;
position = "{284, 750}";
}
);
layerId = "E787E54A-EE3E-475A-BF02-8501A6DA5144";
paths = (
{
closed = 1;
nodes = (
"254 0 LINE",
"254 790 LINE",
"63 790 LINE",
"63 0 LINE"
);
}
);
width = 317;
},
{
anchors = (
{
name = bottom;
position = "{134, 0}";
},
{
name = center;
position = "{134, 375}";
},
{
name = top;
position = "{134, 790}";
},
{
name = topright;
position = "{234, 750}";
}
);
layerId = "47995495-C855-4C5A-BA32-118EA0334940";
paths = (
{
closed = 1;
nodes = (
"185 0 LINE",
"185 790 LINE",
"83 790 LINE",
"83 0 LINE"
);
}
);
width = 268;
}
);
leftKerningGroup = b;
rightKerningGroup = d;
unicode = 006C;
},
{
glyphname = lcaron;
layers = (
{
components = (
{
name = l;
}
);
layerId = "F114AD5B-DC62-4E73-AD12-1938E40AC8EF";
paths = (
{
closed = 1;
nodes = (
"254 558 LINE SMOOTH",
"315 558 OFFCURVE",
"349 586 OFFCURVE",
"349 640 CURVE SMOOTH",
"349 790 LINE",
"247 790 LINE",
"247 681 LINE",
"305 681 LINE",
"305 649 LINE SMOOTH",
"305 623 OFFCURVE",
"289 606 OFFCURVE",
"254 606 CURVE SMOOTH",
"240 606 LINE",
"240 558 LINE"
);
}
);
width = 276;
},
{
components = (
{
name = l;
}
);
layerId = "E787E54A-EE3E-475A-BF02-8501A6DA5144";
paths = (
{
closed = 1;
nodes = (
"356 450 LINE SMOOTH",
"432 450 OFFCURVE",
"482 496 OFFCURVE",
"482 578 CURVE SMOOTH",
"482 790 LINE",
"310 790 LINE",
"310 617 LINE",
"393 617 LINE",
"393 601 LINE SMOOTH",
"393 561 OFFCURVE",
"369 545 OFFCURVE",
"319 545 CURVE SMOOTH",
"291 545 LINE",
"291 450 LINE"
);
}
);
width = 502;
},
{
components = (
{
alignment = -1;
name = l;
}
);
layerId = "47995495-C855-4C5A-BA32-118EA0334940";
paths = (
{
closed = 1;
nodes = (
"281 525 LINE SMOOTH",
"346 525 OFFCURVE",
"385 558 OFFCURVE",
"385 621 CURVE SMOOTH",
"385 790 LINE",
"262 790 LINE",
"262 661 LINE",
"328 661 LINE",
"328 634 LINE SMOOTH",
"328 604 OFFCURVE",
"309 587 OFFCURVE",
"269 587 CURVE SMOOTH",
"251 587 LINE",
"251 525 LINE"
);
}
);
width = 402;
}
);
leftKerningGroup = b;
rightKerningGroup = dcaron;
unicode = 013E;
},
{
glyphname = ldot;
layers = (
{
components = (
{
name = l;
}
);
layerId = "F114AD5B-DC62-4E73-AD12-1938E40AC8EF";
paths = (
{
closed = 1;
nodes = (
"354 348 LINE",
"354 442 LINE",
"265 442 LINE",
"265 348 LINE"
);
}
);
width = 422;
},
{
components = (
{
name = l;
}
);
layerId = "E787E54A-EE3E-475A-BF02-8501A6DA5144";
paths = (
{
closed = 1;
nodes = (
"485 305 LINE",
"485 485 LINE",
"305 485 LINE",
"305 305 LINE"
);
}
);
width = 512;
},
{
components = (
{
alignment = -1;
name = l;
}
);
layerId = "47995495-C855-4C5A-BA32-118EA0334940";
paths = (
{
closed = 1;
nodes = (
"398 331 LINE",
"398 459 LINE",
"275 459 LINE",
"275 331 LINE"
);
}
);
width = 397;
}
);
leftMetricsKey = "=l";
unicode = 0140;
},
{
glyphname = lslash;
layers = (
{
anchors = (
{
name = bottom;
position = "{102, 0}";
},
{
name = center;
position = "{102, 375}";
},
{
name = top;
position = "{102, 790}";
},
{
name = topright;
position = "{190, 750}";
}
);
layerId = "F114AD5B-DC62-4E73-AD12-1938E40AC8EF";
paths = (
{
closed = 1;
nodes = (
"71 364 LINE",
"71 0 LINE",
"133 0 LINE",
"133 386 LINE",
"192 408 LINE",
"192 463 LINE",
"133 442 LINE",
"133 790 LINE",
"71 790 LINE",
"71 419 LINE",
"14 399 LINE",
"14 343 LINE"
);
}
);
width = 206;
},
{
anchors = (
{
name = bottom;
position = "{179, 0}";
},
{
name = center;
position = "{179, 375}";
},
{
name = top;
position = "{179, 790}";
},
{
name = topright;
position = "{304, 750}";
}
);
layerId = "E787E54A-EE3E-475A-BF02-8501A6DA5144";
paths = (
{
closed = 1;
nodes = (
"83 285 LINE",
"83 0 LINE",
"274 0 LINE",
"274 354 LINE",
"328 374 LINE",
"328 544 LINE",
"274 524 LINE",
"274 790 LINE",
"83 790 LINE",
"83 455 LINE",
"29 435 LINE",
"29 265 LINE"
);
}
);
width = 356;
},
{
anchors = (
{
name = bottom;
position = "{120, 0}";
},
{
name = center;
position = "{120, 375}";
},
{
name = top;
position = "{120, 790}";
},
{
name = topright;
position = "{220, 750}";
}
);
layerId = "47995495-C855-4C5A-BA32-118EA0334940";
paths = (
{
closed = 1;
nodes = (
"69 340 LINE",
"69 0 LINE",
"171 0 LINE",
"171 377 LINE",
"228 397 LINE",
"228 488 LINE",
"171 467 LINE",
"171 790 LINE",
"69 790 LINE",
"69 431 LINE",
"12 410 LINE",
"12 319 LINE"
);
}
);
width = 240;
}
);
leftKerningGroup = t;
rightKerningGroup = t;
unicode = 0142;
},
{
color = 3;
glyphname = m;
layers = (
{
anchors = (
{
name = bottom;
position = "{442, 0}";
},
{
name = top;
position = "{442, 557}";
}
);
layerId = "F114AD5B-DC62-4E73-AD12-1938E40AC8EF";
paths = (
{
closed = 1;
nodes = (
"134 0 LINE",
"134 325 LINE SMOOTH",
"134 429 OFFCURVE",
"204 507 OFFCURVE",
"303 507 CURVE SMOOTH",
"387 507 OFFCURVE",
"426 450 OFFCURVE",
"426 364 CURVE SMOOTH",
"426 0 LINE",
"489 0 LINE",
"489 318 LINE SMOOTH",
"489 431 OFFCURVE",
"560 507 OFFCURVE",
"661 507 CURVE SMOOTH",
"738 507 OFFCURVE",
"781 461 OFFCURVE",
"781 364 CURVE SMOOTH",
"781 0 LINE",
"844 0 LINE",
"844 378 LINE SMOOTH",
"844 491 OFFCURVE",
"781 567 OFFCURVE",
"666 567 CURVE SMOOTH",
"587 567 OFFCURVE",
"512 525 OFFCURVE",
"477 444 CURVE",
"451 525 OFFCURVE",
"390 567 OFFCURVE",
"310 567 CURVE SMOOTH",
"236 567 OFFCURVE",
"168 530 OFFCURVE",
"134 458 CURVE",
"129 557 LINE",
"71 557 LINE",
"71 0 LINE"
);
}
);
width = 915;
},
{
anchors = (
{
name = bottom;
position = "{474, 0}";
},
{
name = top;
position = "{474, 584}";
}
);
background = {
paths = (
{
closed = 1;
nodes = (
"551 0 LINE",
"551 314 LINE SMOOTH",
"551 393 OFFCURVE",
"584 430 OFFCURVE",
"653 430 CURVE SMOOTH",
"702 430 OFFCURVE",
"734 400 OFFCURVE",
"734 336 CURVE SMOOTH",
"734 0 LINE",
"925 0 LINE",
"925 403 LINE SMOOTH",
"925 530 OFFCURVE",
"835 594 OFFCURVE",
"725 594 CURVE SMOOTH",
"631 594 OFFCURVE",
"580 563 OFFCURVE",
"541 518 CURVE",
"536 584 LINE",
"360 584 LINE",
"360 0 LINE"
);
}
);
};
layerId = "E787E54A-EE3E-475A-BF02-8501A6DA5144";
paths = (
{
closed = 1;
nodes = (
"252 0 LINE",
"252 341 LINE SMOOTH",
"252 394 OFFCURVE",
"282 430 OFFCURVE",
"335 430 CURVE SMOOTH",
"389 430 OFFCURVE",
"410 394 OFFCURVE",
"410 341 CURVE SMOOTH",
"410 0 LINE",
"601 0 LINE",
"601 341 LINE SMOOTH",
"601 405 OFFCURVE",
"634 430 OFFCURVE",
"684 430 CURVE SMOOTH",
"738 430 OFFCURVE",
"759 394 OFFCURVE",
"759 341 CURVE SMOOTH",
"759 0 LINE",
"950 0 LINE",
"950 396 LINE SMOOTH",
"950 515 OFFCURVE",
"877 594 OFFCURVE",
"748 594 CURVE SMOOTH",
"670 594 OFFCURVE",
"607 555 OFFCURVE",
"575 495 CURVE",
"540 561 OFFCURVE",
"475 594 OFFCURVE",
"399 594 CURVE SMOOTH",
"342 594 OFFCURVE",
"286 571 OFFCURVE",
"244 512 CURVE",
"231 584 LINE",
"61 584 LINE",
"61 0 LINE"
);
}
);
width = 1002;
},
{
anchors = (
{
name = bottom;
position = "{468, 0}";
},
{
name = top;
position = "{468, 565}";
}
);
layerId = "47995495-C855-4C5A-BA32-118EA0334940";
paths = (
{
closed = 1;
nodes = (
"187 0 LINE",
"187 330 LINE SMOOTH",
"188 418 OFFCURVE",
"244 483 OFFCURVE",
"329 483 CURVE SMOOTH",
"404 483 OFFCURVE",
"437 432 OFFCURVE",
"437 357 CURVE SMOOTH",
"437 0 LINE",
"539 0 LINE",
"539 325 LINE SMOOTH",
"539 423 OFFCURVE",
"599 483 OFFCURVE",
"684 483 CURVE SMOOTH",
"753 483 OFFCURVE",
"790 440 OFFCURVE",
"790 366 CURVE SMOOTH",
"790 0 LINE",
"893 0 LINE",
"893 383 LINE SMOOTH",
"893 499 OFFCURVE",
"827 575 OFFCURVE",
"707 575 CURVE SMOOTH",
"628 575 OFFCURVE",
"557 534 OFFCURVE",
"523 460 CURVE",
"495 536 OFFCURVE",
"431 575 OFFCURVE",
"354 575 CURVE SMOOTH",
"285 575 OFFCURVE",
"221 543 OFFCURVE",
"184 475 CURVE",
"177 565 LINE",
"84 565 LINE",
"84 0 LINE"
);
}
);
width = 971;
}
);
leftKerningGroup = m;
leftMetricsKey = "=n";
rightKerningGroup = h;
rightMetricsKey = "=n";
unicode = 006D;
},
{
color = 3;
glyphname = n;
layers = (
{
anchors = (
{
name = bottom;
position = "{297, 0}";
},
{
name = top;
position = "{297, 557}";
}
);
layerId = "F114AD5B-DC62-4E73-AD12-1938E40AC8EF";
paths = (
{
closed = 1;
nodes = (
"134 0 LINE",
"134 313 LINE SMOOTH",
"134 435 OFFCURVE",
"206 507 OFFCURVE",
"315 507 CURVE SMOOTH",
"400 507 OFFCURVE",
"457 463 OFFCURVE",
"457 370 CURVE SMOOTH",
"457 0 LINE",
"520 0 LINE",
"520 379 LINE SMOOTH",
"520 492 OFFCURVE",
"450 567 OFFCURVE",
"327 567 CURVE SMOOTH",
"247 567 OFFCURVE",
"180 538 OFFCURVE",
"134 461 CURVE",
"129 557 LINE",
"71 557 LINE",
"71 0 LINE"
);
}
);
width = 591;
},
{
anchors = (
{
name = bottom;
position = "{336, 0}";
},
{
name = top;
position = "{336, 584}";
}
);
layerId = "E787E54A-EE3E-475A-BF02-8501A6DA5144";
paths = (
{
closed = 1;
nodes = (
"252 0 LINE",
"252 344 LINE",
"259 396 OFFCURVE",
"293 430 OFFCURVE",
"339 430 CURVE SMOOTH",
"385 430 OFFCURVE",
"415 408 OFFCURVE",
"415 361 CURVE SMOOTH",
"415 0 LINE",
"606 0 LINE",
"606 396 LINE SMOOTH",
"606 522 OFFCURVE",
"533 594 OFFCURVE",
"412 594 CURVE SMOOTH",
"335 594 OFFCURVE",
"284 570 OFFCURVE",
"243 511 CURVE",
"237 584 LINE",
"61 584 LINE",
"61 0 LINE"
);
}
);
width = 658;
},
{
anchors = (
{
name = bottom;
position = "{325, 0}";
},
{
name = top;
position = "{325, 565}";
}
);
layerId = "47995495-C855-4C5A-BA32-118EA0334940";
paths = (
{
closed = 1;
nodes = (
"187 0 LINE",
"187 336 LINE SMOOTH",
"187 428 OFFCURVE",
"256 483 OFFCURVE",
"339 483 CURVE SMOOTH",
"420 483 OFFCURVE",
"460 438 OFFCURVE",
"460 368 CURVE SMOOTH",
"460 0 LINE",
"562 0 LINE",
"562 378 LINE SMOOTH",
"562 511 OFFCURVE",
"481 575 OFFCURVE",
"368 575 CURVE SMOOTH",
"291 575 OFFCURVE",
"232 545 OFFCURVE",
"184 480 CURVE",
"178 565 LINE",
"84 565 LINE",
"84 0 LINE"
);
}
);
width = 640;
}
);
leftKerningGroup = m;
rightKerningGroup = n;
unicode = 006E;
},
{
glyphname = eng;
layers = (
{
layerId = "F114AD5B-DC62-4E73-AD12-1938E40AC8EF";
paths = (
{
closed = 1;
nodes = (
"134 0 LINE",
"134 313 LINE SMOOTH",
"134 435 OFFCURVE",
"206 507 OFFCURVE",
"315 507 CURVE SMOOTH",
"400 507 OFFCURVE",
"457 463 OFFCURVE",
"457 370 CURVE SMOOTH",
"457 -32 LINE SMOOTH",
"457 -89 OFFCURVE",
"433 -115 OFFCURVE",
"380 -115 CURVE SMOOTH",
"365 -115 OFFCURVE",
"349 -113 OFFCURVE",
"340 -110 CURVE",
"340 -166 LINE",
"353 -170 OFFCURVE",
"370 -172 OFFCURVE",
"387 -172 CURVE SMOOTH",
"472 -172 OFFCURVE",
"520 -130 OFFCURVE",
"520 -52 CURVE SMOOTH",
"520 379 LINE SMOOTH",
"520 492 OFFCURVE",
"450 567 OFFCURVE",
"327 567 CURVE SMOOTH",
"247 567 OFFCURVE",
"180 538 OFFCURVE",
"134 461 CURVE",
"129 557 LINE",
"71 557 LINE",
"71 0 LINE"
);
}
);
width = 591;
},
{
layerId = "E787E54A-EE3E-475A-BF02-8501A6DA5144";
paths = (
{
closed = 1;
nodes = (
"252 0 LINE",
"252 344 LINE",
"259 396 OFFCURVE",
"293 430 OFFCURVE",
"339 430 CURVE SMOOTH",
"385 430 OFFCURVE",
"415 408 OFFCURVE",
"415 361 CURVE SMOOTH",
"415 56 LINE SMOOTH",
"415 11 OFFCURVE",
"405 -36 OFFCURVE",
"339 -36 CURVE SMOOTH",
"332 -36 OFFCURVE",
"317 -35 OFFCURVE",
"311 -34 CURVE",
"311 -172 LINE",
"329 -176 OFFCURVE",
"354 -178 OFFCURVE",
"389 -178 CURVE SMOOTH",
"504 -178 OFFCURVE",
"606 -124 OFFCURVE",
"606 27 CURVE SMOOTH",
"606 396 LINE SMOOTH",
"606 522 OFFCURVE",
"533 594 OFFCURVE",
"412 594 CURVE SMOOTH",
"335 594 OFFCURVE",
"284 570 OFFCURVE",
"243 511 CURVE",
"237 584 LINE",
"61 584 LINE",
"61 0 LINE"
);
}
);
width = 658;
},
{
layerId = "47995495-C855-4C5A-BA32-118EA0334940";
paths = (
{
closed = 1;
nodes = (
"187 0 LINE",
"187 336 LINE SMOOTH",
"187 428 OFFCURVE",
"256 483 OFFCURVE",
"339 483 CURVE SMOOTH",
"420 483 OFFCURVE",
"460 438 OFFCURVE",
"460 368 CURVE SMOOTH",
"460 -9 LINE SMOOTH",
"460 -62 OFFCURVE",
"439 -90 OFFCURVE",
"385 -90 CURVE SMOOTH",
"372 -90 OFFCURVE",
"356 -89 OFFCURVE",
"348 -86 CURVE",
"348 -167 LINE",
"362 -171 OFFCURVE",
"386 -174 OFFCURVE",
"405 -174 CURVE SMOOTH",
"502 -174 OFFCURVE",
"562 -126 OFFCURVE",
"562 -29 CURVE SMOOTH",
"562 378 LINE",
"562 511 OFFCURVE",
"481 575 OFFCURVE",
"368 575 CURVE SMOOTH",
"291 575 OFFCURVE",
"232 545 OFFCURVE",
"184 480 CURVE",
"178 565 LINE",
"84 565 LINE",
"84 0 LINE"
);
}
);
width = 640;
}
);
leftKerningGroup = n;
leftMetricsKey = "=n";
rightKerningGroup = h;
rightMetricsKey = "=n";
unicode = 014B;
},
{
glyphname = nhookleft;
layers = (
{
layerId = "F114AD5B-DC62-4E73-AD12-1938E40AC8EF";
paths = (
{
closed = 1;
nodes = (
"-23 -170 OFFCURVE",
"-6 -172 OFFCURVE",
"11 -172 CURVE SMOOTH",
"96 -172 OFFCURVE",
"144 -130 OFFCURVE",
"144 -52 CURVE SMOOTH",
"144 313 LINE SMOOTH",
"144 435 OFFCURVE",
"216 507 OFFCURVE",
"325 507 CURVE SMOOTH",
"410 507 OFFCURVE",
"467 463 OFFCURVE",
"467 370 CURVE SMOOTH",
"467 0 LINE",
"530 0 LINE",
"530 379 LINE SMOOTH",
"530 492 OFFCURVE",
"460 567 OFFCURVE",
"337 567 CURVE SMOOTH",
"257 567 OFFCURVE",
"190 538 OFFCURVE",
"144 461 CURVE",
"139 557 LINE",
"81 557 LINE",
"81 -32 LINE SMOOTH",
"81 -89 OFFCURVE",
"57 -115 OFFCURVE",
"4 -115 CURVE SMOOTH",
"-11 -115 OFFCURVE",
"-27 -113 OFFCURVE",
"-36 -110 CURVE",
"-36 -166 LINE"
);
}
);
width = 601;
},
{
layerId = "47995495-C855-4C5A-BA32-118EA0334940";
paths = (
{
closed = 1;
nodes = (
"-2 -171 OFFCURVE",
"19 -174 OFFCURVE",
"39 -174 CURVE SMOOTH",
"137 -174 OFFCURVE",
"197 -126 OFFCURVE",
"197 -29 CURVE SMOOTH",
"197 336 LINE SMOOTH",
"197 428 OFFCURVE",
"266 483 OFFCURVE",
"349 483 CURVE SMOOTH",
"430 483 OFFCURVE",
"470 438 OFFCURVE",
"470 368 CURVE SMOOTH",
"470 0 LINE",
"573 0 LINE",
"573 378 LINE SMOOTH",
"573 511 OFFCURVE",
"491 575 OFFCURVE",
"379 575 CURVE SMOOTH",
"302 575 OFFCURVE",
"242 545 OFFCURVE",
"194 480 CURVE",
"188 565 LINE",
"94 565 LINE",
"94 -9 LINE SMOOTH",
"94 -63 OFFCURVE",
"73 -90 OFFCURVE",
"20 -90 CURVE SMOOTH",
"6 -90 OFFCURVE",
"-9 -89 OFFCURVE",
"-18 -86 CURVE",
"-18 -167 LINE"
);
}
);
width = 651;
},
{
layerId = "E787E54A-EE3E-475A-BF02-8501A6DA5144";
paths = (
{
closed = 1;
nodes = (
"-19 -176 OFFCURVE",
"6 -178 OFFCURVE",
"41 -178 CURVE SMOOTH",
"156 -178 OFFCURVE",
"258 -124 OFFCURVE",
"258 27 CURVE SMOOTH",
"258 344 LINE",
"265 396 OFFCURVE",
"299 430 OFFCURVE",
"345 430 CURVE SMOOTH",
"391 430 OFFCURVE",
"421 408 OFFCURVE",
"421 361 CURVE SMOOTH",
"421 0 LINE",
"612 0 LINE",
"612 396 LINE SMOOTH",
"612 522 OFFCURVE",
"539 594 OFFCURVE",
"418 594 CURVE SMOOTH",
"341 594 OFFCURVE",
"290 570 OFFCURVE",
"249 511 CURVE",
"243 584 LINE",
"67 584 LINE",
"67 56 LINE SMOOTH",
"67 11 OFFCURVE",
"57 -36 OFFCURVE",
"-9 -36 CURVE SMOOTH",
"-16 -36 OFFCURVE",
"-31 -35 OFFCURVE",
"-37 -34 CURVE",
"-37 -172 LINE"
);
}
);
width = 664;
}
);
leftKerningGroup = j;
leftMetricsKey = j;
rightKerningGroup = n;
rightMetricsKey = n;
unicode = 0272;
},
{
color = 3;
glyphname = o;
layers = (
{
anchors = (
{
name = bottom;
position = "{297, 0}";
},
{
name = center;
position = "{297, 279}";
},
{
name = ogonek;
position = "{544, 10}";
},
{
name = top;
position = "{297, 557}";
},
{
name = topright;
position = "{394, 557}";
}
);
layerId = "F114AD5B-DC62-4E73-AD12-1938E40AC8EF";
paths = (
{
closed = 1;
nodes = (
"41 103 OFFCURVE",
"141 -10 OFFCURVE",
"297 -10 CURVE SMOOTH",
"452 -10 OFFCURVE",
"552 102 OFFCURVE",
"552 277 CURVE SMOOTH",
"552 454 OFFCURVE",
"452 567 OFFCURVE",
"297 567 CURVE SMOOTH",
"142 567 OFFCURVE",
"41 453 OFFCURVE",
"41 276 CURVE SMOOTH"
);
},
{
closed = 1;
nodes = (
"106 421 OFFCURVE",
"177 507 OFFCURVE",
"297 507 CURVE SMOOTH",
"417 507 OFFCURVE",
"487 424 OFFCURVE",
"487 279 CURVE SMOOTH",
"487 134 OFFCURVE",
"416 50 OFFCURVE",
"296 50 CURVE SMOOTH",
"176 50 OFFCURVE",
"106 133 OFFCURVE",
"106 278 CURVE SMOOTH"
);
}
);
width = 593;
},
{
anchors = (
{
name = bottom;
position = "{333, 0}";
},
{
name = center;
position = "{333, 292}";
},
{
name = ogonek;
position = "{599, 10}";
},
{
name = top;
position = "{333, 584}";
},
{
name = topright;
position = "{498, 584}";
}
);
layerId = "E787E54A-EE3E-475A-BF02-8501A6DA5144";
paths = (
{
closed = 1;
nodes = (
"30 111 OFFCURVE",
"148 -10 OFFCURVE",
"331 -10 CURVE SMOOTH",
"514 -10 OFFCURVE",
"632 111 OFFCURVE",
"632 292 CURVE SMOOTH",
"632 473 OFFCURVE",
"514 594 OFFCURVE",
"331 594 CURVE SMOOTH",
"148 594 OFFCURVE",
"30 473 OFFCURVE",
"30 292 CURVE SMOOTH"
);
},
{
closed = 1;
nodes = (
"218 389 OFFCURVE",
"260 443 OFFCURVE",
"331 443 CURVE SMOOTH",
"402 443 OFFCURVE",
"444 389 OFFCURVE",
"444 292 CURVE SMOOTH",
"444 195 OFFCURVE",
"402 141 OFFCURVE",
"331 141 CURVE SMOOTH",
"260 141 OFFCURVE",
"218 195 OFFCURVE",
"218 292 CURVE SMOOTH"
);
}
);
width = 662;
},
{
anchors = (
{
name = bottom;
position = "{312, 0}";
},
{
name = center;
position = "{312, 283}";
},
{
name = ogonek;
position = "{563, 10}";
},
{
name = top;
position = "{312, 565}";
},
{
name = topright;
position = "{429, 565}";
}
);
layerId = "47995495-C855-4C5A-BA32-118EA0334940";
paths = (
{
closed = 1;
nodes = (
"43 106 OFFCURVE",
"148 -10 OFFCURVE",
"312 -10 CURVE SMOOTH",
"474 -10 OFFCURVE",
"579 105 OFFCURVE",
"579 282 CURVE SMOOTH",
"579 459 OFFCURVE",
"474 575 OFFCURVE",
"312 575 CURVE SMOOTH",
"149 575 OFFCURVE",
"43 459 OFFCURVE",
"43 281 CURVE SMOOTH"
);
},
{
closed = 1;
nodes = (
"146 410 OFFCURVE",
"207 487 OFFCURVE",
"312 487 CURVE SMOOTH",
"415 487 OFFCURVE",
"476 413 OFFCURVE",
"476 283 CURVE SMOOTH",
"476 154 OFFCURVE",
"415 78 OFFCURVE",
"311 78 CURVE SMOOTH",
"207 78 OFFCURVE",
"146 153 OFFCURVE",
"146 282 CURVE SMOOTH"
);
}
);
width = 623;
}
);
leftKerningGroup = c;
rightKerningGroup = o;
unicode = 006F;
},
{
color = 3;
glyphname = p;
layers = (
{
anchors = (
{
name = bottom;
position = "{310, 0}";
},
{
name = top;
position = "{310, 557}";
}
);
layerId = "F114AD5B-DC62-4E73-AD12-1938E40AC8EF";
paths = (
{
closed = 1;
nodes = (
"133 -167 LINE",
"133 102 LINE",
"169 32 OFFCURVE",
"240 -10 OFFCURVE",
"330 -10 CURVE SMOOTH",
"477 -10 OFFCURVE",
"571 104 OFFCURVE",
"571 283 CURVE SMOOTH",
"571 457 OFFCURVE",
"480 567 OFFCURVE",
"332 567 CURVE SMOOTH",
"240 567 OFFCURVE",
"167 523 OFFCURVE",
"135 452 CURVE",
"129 557 LINE",
"71 557 LINE",
"71 -167 LINE"
);
},
{
closed = 1;
nodes = (
"133 320 LINE SMOOTH",
"133 431 OFFCURVE",
"212 508 OFFCURVE",
"325 508 CURVE SMOOTH",
"440 508 OFFCURVE",
"506 427 OFFCURVE",
"506 284 CURVE SMOOTH",
"506 134 OFFCURVE",
"440 50 OFFCURVE",
"323 50 CURVE SMOOTH",
"209 50 OFFCURVE",
"133 128 OFFCURVE",
"133 243 CURVE SMOOTH"
);
}
);
width = 612;
},
{
anchors = (
{
name = bottom;
position = "{353, 0}";
},
{
name = top;
position = "{353, 584}";
}
);
layerId = "E787E54A-EE3E-475A-BF02-8501A6DA5144";
paths = (
{
closed = 1;
nodes = (
"252 -167 LINE",
"252 69 LINE",
"284 15 OFFCURVE",
"341 -10 OFFCURVE",
"410 -10 CURVE SMOOTH",
"563 -10 OFFCURVE",
"660 108 OFFCURVE",
"660 294 CURVE SMOOTH",
"660 478 OFFCURVE",
"565 594 OFFCURVE",
"415 594 CURVE SMOOTH",
"342 594 OFFCURVE",
"275 564 OFFCURVE",
"246 508 CURVE",
"237 584 LINE",
"61 584 LINE",
"61 -167 LINE"
);
},
{
closed = 1;
nodes = (
"252 303 LINE SMOOTH",
"252 395 OFFCURVE",
"288 441 OFFCURVE",
"358 441 CURVE SMOOTH",
"428 441 OFFCURVE",
"466 389 OFFCURVE",
"466 292 CURVE SMOOTH",
"466 195 OFFCURVE",
"429 143 OFFCURVE",
"358 143 CURVE SMOOTH",
"288 143 OFFCURVE",
"252 190 OFFCURVE",
"252 282 CURVE SMOOTH"
);
}
);
width = 690;
},
{
anchors = (
{
name = bottom;
position = "{339, 0}";
},
{
name = top;
position = "{339, 565}";
}
);
layerId = "47995495-C855-4C5A-BA32-118EA0334940";
paths = (
{
closed = 1;
nodes = (
"186 -167 LINE",
"186 92 LINE",
"223 24 OFFCURVE",
"291 -10 OFFCURVE",
"371 -10 CURVE SMOOTH",
"519 -10 OFFCURVE",
"615 105 OFFCURVE",
"615 287 CURVE SMOOTH",
"615 464 OFFCURVE",
"522 575 OFFCURVE",
"373 575 CURVE SMOOTH",
"287 575 OFFCURVE",
"217 536 OFFCURVE",
"185 469 CURVE",
"178 565 LINE",
"84 565 LINE",
"84 -167 LINE"
);
},
{
closed = 1;
nodes = (
"186 315 LINE SMOOTH",
"186 420 OFFCURVE",
"252 487 OFFCURVE",
"351 487 CURVE SMOOTH",
"452 487 OFFCURVE",
"510 415 OFFCURVE",
"510 287 CURVE SMOOTH",
"510 153 OFFCURVE",
"453 79 OFFCURVE",
"350 79 CURVE SMOOTH",
"250 79 OFFCURVE",
"186 147 OFFCURVE",
"186 255 CURVE SMOOTH"
);
}
);
width = 659;
}
);
leftKerningGroup = m;
leftMetricsKey = "=n";
rightKerningGroup = o;
rightMetricsKey = "=o";
unicode = 0070;
},
{
glyphname = thorn;
layers = (
{
anchors = (
{
name = bottom;
position = "{275, 0}";
},
{
name = top;
position = "{275, 511}";
}
);
layerId = "F114AD5B-DC62-4E73-AD12-1938E40AC8EF";
paths = (
{
closed = 1;
nodes = (
"133 -167 LINE",
"133 102 LINE",
"164 32 OFFCURVE",
"240 -10 OFFCURVE",
"330 -10 CURVE SMOOTH",
"477 -10 OFFCURVE",
"571 104 OFFCURVE",
"571 283 CURVE SMOOTH",
"571 457 OFFCURVE",
"480 567 OFFCURVE",
"332 567 CURVE SMOOTH",
"240 567 OFFCURVE",
"162 523 OFFCURVE",
"133 452 CURVE",
"133 729 LINE",
"71 729 LINE",
"71 -167 LINE"
);
},
{
closed = 1;
nodes = (
"133 320 LINE SMOOTH",
"133 431 OFFCURVE",
"212 508 OFFCURVE",
"325 508 CURVE SMOOTH",
"440 508 OFFCURVE",
"506 427 OFFCURVE",
"506 284 CURVE SMOOTH",
"506 134 OFFCURVE",
"440 50 OFFCURVE",
"323 50 CURVE SMOOTH",
"209 50 OFFCURVE",
"133 128 OFFCURVE",
"133 243 CURVE SMOOTH"
);
}
);
width = 612;
},
{
anchors = (
{
name = bottom;
position = "{331, 0}";
},
{
name = top;
position = "{331, 538}";
}
);
layerId = "E787E54A-EE3E-475A-BF02-8501A6DA5144";
paths = (
{
closed = 1;
nodes = (
"252 -167 LINE",
"252 59 LINE",
"283 16 OFFCURVE",
"338 -10 OFFCURVE",
"410 -10 CURVE SMOOTH",
"560 -10 OFFCURVE",
"660 104 OFFCURVE",
"660 294 CURVE SMOOTH",
"660 481 OFFCURVE",
"563 594 OFFCURVE",
"415 594 CURVE SMOOTH",
"347 594 OFFCURVE",
"284 568 OFFCURVE",
"252 527 CURVE",
"252 750 LINE",
"61 750 LINE",
"61 -167 LINE"
);
},
{
closed = 1;
nodes = (
"252 303 LINE SMOOTH",
"252 403 OFFCURVE",
"294 441 OFFCURVE",
"358 441 CURVE SMOOTH",
"428 441 OFFCURVE",
"466 389 OFFCURVE",
"466 292 CURVE SMOOTH",
"466 184 OFFCURVE",
"421 143 OFFCURVE",
"358 143 CURVE SMOOTH",
"289 143 OFFCURVE",
"252 188 OFFCURVE",
"252 282 CURVE SMOOTH"
);
}
);
width = 690;
},
{
anchors = (
{
name = bottom;
position = "{308, 0}";
},
{
name = top;
position = "{308, 519}";
}
);
layerId = "47995495-C855-4C5A-BA32-118EA0334940";
paths = (
{
closed = 1;
nodes = (
"187 -167 LINE",
"187 89 LINE",
"217 30 OFFCURVE",
"284 -10 OFFCURVE",
"375 -10 CURVE SMOOTH",
"522 -10 OFFCURVE",
"622 100 OFFCURVE",
"622 287 CURVE SMOOTH",
"622 469 OFFCURVE",
"525 575 OFFCURVE",
"378 575 CURVE SMOOTH",
"295 575 OFFCURVE",
"219 540 OFFCURVE",
"187 476 CURVE",
"187 750 LINE",
"84 750 LINE",
"84 -167 LINE"
);
},
{
closed = 1;
nodes = (
"187 315 LINE SMOOTH",
"187 426 OFFCURVE",
"259 487 OFFCURVE",
"355 487 CURVE SMOOTH",
"455 487 OFFCURVE",
"517 421 OFFCURVE",
"517 287 CURVE SMOOTH",
"517 149 OFFCURVE",
"456 79 OFFCURVE",
"354 79 CURVE SMOOTH",
"257 79 OFFCURVE",
"187 142 OFFCURVE",
"187 255 CURVE SMOOTH"
);
}
);
width = 666;
}
);
leftKerningGroup = b;
leftMetricsKey = "=h";
rightKerningGroup = o;
rightMetricsKey = "=o";
unicode = 00FE;
},
{
color = 3;
glyphname = q;
layers = (
{
anchors = (
{
name = bottom;
position = "{302, 0}";
},
{
name = top;
position = "{302, 557}";
}
);
layerId = "F114AD5B-DC62-4E73-AD12-1938E40AC8EF";
paths = (
{
closed = 1;
nodes = (
"41 104 OFFCURVE",
"135 -10 OFFCURVE",
"282 -10 CURVE SMOOTH",
"374 -10 OFFCURVE",
"442 31 OFFCURVE",
"479 102 CURVE",
"479 -167 LINE",
"541 -167 LINE",
"541 557 LINE",
"483 557 LINE",
"477 452 LINE",
"445 523 OFFCURVE",
"372 567 OFFCURVE",
"280 567 CURVE SMOOTH",
"132 567 OFFCURVE",
"41 457 OFFCURVE",
"41 283 CURVE SMOOTH"
);
},
{
closed = 1;
nodes = (
"106 427 OFFCURVE",
"172 508 OFFCURVE",
"287 508 CURVE SMOOTH",
"400 508 OFFCURVE",
"479 431 OFFCURVE",
"479 320 CURVE SMOOTH",
"479 243 LINE SMOOTH",
"479 128 OFFCURVE",
"403 50 OFFCURVE",
"289 50 CURVE SMOOTH",
"172 50 OFFCURVE",
"106 134 OFFCURVE",
"106 284 CURVE SMOOTH"
);
}
);
width = 613;
},
{
anchors = (
{
name = bottom;
position = "{337, 0}";
},
{
name = top;
position = "{337, 584}";
}
);
layerId = "E787E54A-EE3E-475A-BF02-8501A6DA5144";
paths = (
{
closed = 1;
nodes = (
"30 108 OFFCURVE",
"127 -10 OFFCURVE",
"280 -10 CURVE SMOOTH",
"349 -10 OFFCURVE",
"406 15 OFFCURVE",
"438 69 CURVE",
"438 -167 LINE",
"629 -167 LINE",
"629 584 LINE",
"453 584 LINE",
"444 508 LINE",
"415 564 OFFCURVE",
"348 594 OFFCURVE",
"275 594 CURVE SMOOTH",
"125 594 OFFCURVE",
"30 478 OFFCURVE",
"30 294 CURVE SMOOTH"
);
},
{
closed = 1;
nodes = (
"224 389 OFFCURVE",
"262 441 OFFCURVE",
"332 441 CURVE SMOOTH",
"402 441 OFFCURVE",
"438 395 OFFCURVE",
"438 303 CURVE SMOOTH",
"438 282 LINE SMOOTH",
"438 190 OFFCURVE",
"402 143 OFFCURVE",
"332 143 CURVE SMOOTH",
"261 143 OFFCURVE",
"224 195 OFFCURVE",
"224 292 CURVE SMOOTH"
);
}
);
width = 692;
},
{
anchors = (
{
name = bottom;
position = "{319, 0}";
},
{
name = top;
position = "{319, 565}";
}
);
layerId = "47995495-C855-4C5A-BA32-118EA0334940";
paths = (
{
closed = 1;
nodes = (
"43 106 OFFCURVE",
"138 -10 OFFCURVE",
"287 -10 CURVE SMOOTH",
"372 -10 OFFCURVE",
"435 26 OFFCURVE",
"472 92 CURVE",
"472 -167 LINE",
"574 -167 LINE",
"574 565 LINE",
"479 565 LINE",
"472 469 LINE",
"440 536 OFFCURVE",
"370 575 OFFCURVE",
"284 575 CURVE SMOOTH",
"135 575 OFFCURVE",
"43 463 OFFCURVE",
"43 287 CURVE SMOOTH"
);
},
{
closed = 1;
nodes = (
"148 415 OFFCURVE",
"205 487 OFFCURVE",
"306 487 CURVE SMOOTH",
"406 487 OFFCURVE",
"472 420 OFFCURVE",
"472 315 CURVE SMOOTH",
"472 255 LINE SMOOTH",
"472 147 OFFCURVE",
"408 79 OFFCURVE",
"307 79 CURVE SMOOTH",
"205 79 OFFCURVE",
"148 153 OFFCURVE",
"148 287 CURVE SMOOTH"
);
}
);
width = 657;
}
);
leftKerningGroup = c;
leftMetricsKey = "=o";
rightKerningGroup = q;
unicode = 0071;
},
